<svg xmlns="http://www.w3.org/2000/svg" xmlns:xlink="http://www.w3.org/1999/xlink" xmlns:inkscape="http://www.inkscape.org/namespaces/inkscape" version="1.1" width="612" height="212.92" viewBox="0 0 612 212.92">
<path transform="matrix(.1,0,0,-.1,0,212.923)" d="M5410.4 1193.03C5319.6 1193.03 5245.78 1117.58 5245.78 1024.85 5245.78 932.117 5319.6 856.668 5410.4 856.668 5501.16 856.668 5575.01 932.117 5575.01 1024.85 5575.01 1117.58 5501.16 1193.03 5410.4 1193.03M5410.4 741.426C5257.41 741.426 5132.95 868.578 5132.95 1024.85 5132.95 1181.15 5257.41 1308.3 5410.4 1308.3 5563.35 1308.3 5687.8 1181.15 5687.8 1024.85 5687.8 868.578 5563.35 741.426 5410.4 741.426" fill="#004f6b"/>
<path transform="matrix(.1,0,0,-.1,0,212.923)" d="M5391.63 521.828H5429.1105V669.199H5391.63Z" fill="#004f6b"/>
<path transform="matrix(.1,0,0,-.1,0,212.923)" d="M5391.63 1380.47H5429.1105V1527.833H5391.63Z" fill="#004f6b"/>
<path transform="matrix(.1,0,0,-.1,0,212.923)" d="M5846.13 1259.75 5721.23 1186.07 5702.47 1219.25 5827.36 1292.93Z" fill="#004f6b"/>
<path transform="matrix(.1,0,0,-.1,0,212.923)" d="M5118.3 830.445 4993.41 756.766 4974.65 789.945 5099.54 863.625Z" fill="#004f6b"/>
<path transform="matrix(.1,0,0,-.1,0,212.923)" d="M5827.38 756.773 5702.48 830.453 5721.2 863.633 5846.13 789.953Z" fill="#004f6b"/>
<path transform="matrix(.1,0,0,-.1,0,212.923)" d="M5099.55 1186.08 4974.66 1259.76 4993.38 1292.94 5118.31 1219.26Z" fill="#004f6b"/>
<path transform="matrix(.1,0,0,-.1,0,212.923)" d="M921.648 1056.68C939.512 1132.09 992.789 1177.99 1068.53 1177.99 1144.32 1177.99 1196.73 1133.06 1208.79 1056.68ZM553.52 845.488C461.82 845.488 398.25 924.777 398.25 1015.53 398.25 1102.5 461.82 1177.99 549.738 1177.99 633.922 1177.99 702.18 1101.49 702.18 1016.53 702.18 929.527 644.199 845.488 553.52 845.488M1579.29 1294.52C1519.42 1294.52 1478.32 1271.61 1437.14 1230.5V1276.4H1322.14V1107.05C1287.07 1216.65 1188.42 1294.52 1067.63 1294.52 959.84 1294.52 871.441 1235.17 826.559 1146.75V1284.77H723.5V1238.39C684.199 1266.89 624.262 1294.52 538.539 1294.52 389.852 1294.52 273.871 1165.55 273.871 1016.53 273.871 902.75 333.691 800.52 436.59 752.77 468.398 737.508 503.98 728.848 539.488 728.848 608.699 728.848 669.469 755.66 709.66 813.969L711.559 812.078C706.859 720.27 645.148 646.707 552.539 646.707 500.238 646.707 459.02 664.867 424.41 705.98H282.262C324.391 595.129 428.16 530.148 543.199 530.148 582.488 530.148 623.672 538.73 660.129 555.027 778.871 605.641 826.559 716.488 826.559 843.52V875.289C872 787.348 961.648 728.848 1068.53 728.848 1178.92 728.848 1285.49 805.309 1319.22 913.301H1188.22C1163 866.469 1119.06 845.488 1068.53 845.488 1017.1 845.488 970.359 872.23 942.301 916.238 934.809 927.59 928.27 940.027 925.469 954.41H1322.14V746.039H1446.52V998.367C1446.52 1037.47 1446.52 1097.71 1468.94 1131.13 1487.66 1158.87 1521.36 1177.99 1554.07 1177.99 1646.64 1177.99 1658.82 1081.44 1658.82 1007.88V746.039H1783.16V1040.41C1783.16 1102.5 1775.71 1171.27 1735.51 1220.95 1699.02 1265.85 1636.27 1294.52 1579.29 1294.52" fill="#004f6b"/>
<path transform="matrix(.1,0,0,-.1,0,212.923)" d="M2042.66 1539.06V1340.8L2167.04 1403.57V1539.06Z" fill="#004f6b"/>
<path transform="matrix(.1,0,0,-.1,0,212.923)" d="M2042.66 746.055H2167.04V1312L2042.66 1249.15Z" fill="#004f6b"/>
<path transform="matrix(.1,0,0,-.1,0,212.923)" d="M1824.74 954.41H1991.803V1056.6799H1824.74Z" fill="#004f6b"/>
<path transform="matrix(.1,0,0,-.1,0,212.923)" d="M4350.48 1323.34C4312.65 1276.11 4259.37 1208.95 4235.79 1176.22L4229.49 1167.52C4198.19 1124.48 4177.55 1096.05 4177.55 1029.54 4177.55 932.094 4255.11 852.863 4350.48 852.863 4445.85 852.863 4523.45 932.094 4523.45 1029.54 4523.45 1095.97 4502.8 1124.45 4471.54 1167.48L4465.21 1176.22C4441.59 1208.95 4388.31 1276.11 4350.48 1323.34M4350.48 741.934C4195.25 741.934 4068.98 870.945 4068.98 1029.54 4068.98 1132.7 4107.95 1186.32 4142.32 1233.63L4148.42 1241.97C4188.59 1297.73 4303.78 1439.99 4308.66 1446.04L4350.48 1497.61 4392.3 1446.04C4397.18 1439.99 4512.37 1297.73 4552.62 1241.97L4558.72 1233.55C4593.05 1186.24 4631.98 1132.65 4631.98 1029.54 4631.98 870.945 4505.71 741.934 4350.48 741.934" fill="#004f6b"/>
<path transform="matrix(.1,0,0,-.1,0,212.923)" d="M4261.73 662.09H4439.269V700.62136H4261.73Z" fill="#004f6b"/>
<path transform="matrix(.1,0,0,-.1,0,212.923)" d="M3323.89 662.09H3502.48V700.82058H3323.89Z" fill="#004f6b"/>
<path transform="matrix(.1,0,0,-.1,0,212.923)" d="M3473.54 581.406H3352.8L3323.89 620.137H3502.5Z" fill="#004f6b"/>
<path transform="matrix(.1,0,0,-.1,0,212.923)" d="M3416.07 854.809C3345.04 854.809 3284.45 900.57 3260.59 964.68H3426.77V994.77H3252.39C3250.66 1004.54 3249.63 1014.56 3249.63 1024.83 3249.63 1036.54 3250.79 1047.98 3253 1059.04H3426.77V1089.13H3262.06C3286.95 1151.1 3346.57 1194.9 3416.07 1194.9 3478.22 1194.9 3532.43 1159.85 3560.99 1108.15L3659.68 1166.37C3611.36 1252.88 3520.38 1311.45 3416.07 1311.45 3261.39 1311.45 3135.54 1182.87 3135.54 1024.83 3135.54 866.801 3261.39 738.219 3416.07 738.219 3522.05 738.219 3614.43 798.59 3662.13 887.41L3563.27 945.719C3535.36 891.73 3479.89 854.809 3416.07 854.809" fill="#004f6b"/>
<path transform="matrix(.1,0,0,-.1,0,212.923)" d="M2652.86 208.781H2680.9422V1923.661H2652.86Z" fill="#004f6b"/>
</svg>