<svg xmlns="http://www.w3.org/2000/svg" xmlns:xlink="http://www.w3.org/1999/xlink" xmlns:inkscape="http://www.inkscape.org/namespaces/inkscape" version="1.1" width="353.87" height="209.106" viewBox="0 0 353.87 209.106">
<defs>
<clipPath id="clip_0">
<path transform="matrix(1,0,0,-1,0,209.106)" d="M0 0H353.872V209.106H0Z" clip-rule="evenodd"/>
</clipPath>
</defs>
<g clip-path="url(#clip_0)">
<path transform="matrix(.1,0,0,-.1,0,209.106)" d="M3129.85 871.152C3128.78 872.371 3128.18 874.055 3127.21 875.352 3102.3 907.273 3070.63 932.281 3031.98 950.125 2993.39 968.082 2947.63 977.031 2894.55 977.031 2841.55 977.031 2795.76 968.082 2757.14 950.125 2718.61 932.281 2686.71 907.273 2661.93 875.352 2641.42 849.031 2626.48 817.773 2614.64 783.531 2637.04 773.762 2658.25 762.191 2677.55 747.203 2714.64 718.594 2746.04 694.172 2762.82 648.023 2878.16 333.313 3054.44 582.723 2964.57 695.313 2882.68 797.863 3015.21 848.273 3129.85 871.152" fill="#008499"/>
<path transform="matrix(.1,0,0,-.1,0,209.106)" d="M3172.8 787.949C3106.82 779.859 3030.8 763.109 3057.84 728.16 3087.36 690 3097.8 659.27 3104.98 612.879 3116.64 537.539 3080.54 449.18 3005.7 422.109 2898.86 383.379 2830.93 429.551 2769.59 464.82 2729.11 487.941 2703.91 534.48 2688.79 575.68 2668.77 630.48 2634.07 665.691 2592.48 688.602 2589.84 666.309 2588.3 643.281 2588.3 619.219 2588.3 567.98 2594.23 520.879 2606.48 477.801 2618.45 434.578 2637.04 397.078 2661.93 365.48 2686.73 333.891 2718.61 308.988 2757.16 291.059 2795.75 273.191 2841.55 264.262 2894.55 264.262 2947.63 264.262 2993.39 273.191 3031.98 291.059 3070.63 308.988 3102.3 333.891 3127.21 365.48 3151.98 397.078 3170.48 434.578 3182.77 477.801 3194.77 520.879 3200.86 567.98 3200.86 619.219 3200.86 670.441 3194.77 717.859 3182.77 761.629 3180.05 771.012 3176.02 779.09 3172.8 787.949" fill="#008499"/>
<path transform="matrix(.1,0,0,-.1,0,209.106)" d="M1782.3 1403.63C1775.63 1408.48 1765.32 1415.88 1759.66 1415.3 1749.06 1414.41 1733.95 1386.72 1728.72 1378.59 1718.88 1363.7 1711.41 1351.18 1702.02 1338.34 1715.84 1321.27 1748.07 1305.56 1733.81 1272.09 1720.92 1276.32 1691.99 1287.56 1709.15 1301.95 1705.19 1319.7 1677.25 1317.88 1676.07 1336.31 1675.45 1346.88 1693.79 1363.86 1698.62 1371.09 1710.12 1388.77 1729.2 1431.24 1687.99 1424.79 1678.24 1423.27 1664.96 1417.11 1655.33 1412.7 1645.48 1408.31 1635.63 1402.84 1628.51 1395.11 1620.32 1386.38 1610.56 1366.75 1612.77 1354.96 1615.01 1344.54 1626.71 1345.4 1626.62 1329.59 1613.92 1322.22 1595.93 1341.47 1592.72 1353.88 1591.17 1359.09 1592.34 1366.41 1591.8 1373.89 1591.17 1380.29 1588.59 1387.8 1589.03 1392.13 1590.48 1406.59 1609.27 1407.73 1619.17 1416.93 1619.6 1417.36 1619.93 1417.54 1620.32 1417.86 1620.22 1418 1620.32 1418.2 1620.32 1418.29 1616.29 1417.11 1612.13 1416.09 1607.85 1416.09 1591.47 1415.95 1577.72 1424.2 1572.01 1435.91 1568.38 1432.75 1568.97 1434.9 1571.42 1437.82V1437.86C1563.73 1429.55 1547.22 1414.13 1546.89 1401.68 1546.71 1396.23 1552.92 1385.45 1556.51 1379.05 1566.12 1360.46 1578.27 1332.68 1594.74 1321.89 1599.34 1319.02 1605.64 1317.71 1609.09 1314.88 1615.58 1309.22 1620.78 1298.4 1623.65 1289.45 1616.18 1279.18 1594.64 1270.06 1584.8 1281.81 1578.27 1289.84 1587.15 1301.54 1579.58 1310 1566.3 1315.06 1552.85 1302.27 1542.62 1309.7 1539.65 1315.63 1544.96 1320.23 1545.93 1325.2 1549.61 1346.57 1537.88 1377.88 1519.11 1382.95 1518.79 1382.89 1518.6 1382.65 1518.18 1382.65 1509.15 1382.54 1501.79 1388.45 1501.58 1395.79 1501.58 1401.56 1506.89 1405.65 1513.5 1407.52 1513.89 1407.93 1514.14 1408.31 1514.97 1408.8 1525.59 1417.45 1523.69 1450.41 1509.44 1452.48 1501.37 1453.56 1491.16 1442.64 1484.35 1436.84 1476.09 1429.68 1469.4 1423.06 1464.5 1416.47 1452.4 1401.43 1440.95 1383.59 1434.41 1365.29 1421.97 1330.5 1462.15 1321.99 1450.33 1285.27 1434.58 1285.79 1418.93 1291.49 1418.24 1306.86 1417.74 1313.45 1424.46 1319.99 1422.96 1326.02 1420.5 1338.7 1420.36 1348.68 1410.19 1354.74 1417.26 1377.88 1429.86 1368.04 1422.36 1407.09 1421.69 1410.29 1421.12 1412.23 1420.43 1413.77 1415.11 1415.95 1410.86 1419.41 1410.79 1424.54 1410.79 1431.88 1418.08 1437.86 1427.19 1437.93 1428 1437.93 1428.41 1437.43 1428.97 1437.38 1430.37 1438.22 1431.72 1439.11 1434.69 1439.99 1441.38 1441.99 1443.82 1450.07 1442.09 1461.88 1439.8 1478.65 1425.17 1498.81 1431.56 1525.61 1427.42 1506.56 1418.68 1496.84 1401.64 1488.04 1391.88 1483.06 1376.18 1478.61 1375 1469.59 1373.23 1457.84 1387.79 1439.84 1376.87 1427.7 1370.74 1420.75 1359.24 1420.52 1350 1425.63 1349.77 1425.18 1349.77 1424.61 1349.7 1424.15L1344.84 1430.09C1344.84 1435.75 1341.81 1440.73 1342.22 1445.64 1342.91 1452.48 1351.56 1461.09 1353.84 1468.46 1358.09 1482.43 1354.8 1497.82 1360.21 1509.59 1368.79 1528.52 1397.1 1538.75 1419.74 1541.02 1423.75 1541.45 1428.97 1540.04 1433.01 1541.11 1442.09 1543.46 1449.66 1556.45 1462.31 1563.23 1497.58 1582.13 1542.52 1570.63 1574.26 1554.99 1578.5 1564.68 1586.06 1577.59 1592.34 1593.43 1597.79 1606.77 1608.7 1623.84 1607.32 1635.47 1606.54 1639.14 1600.53 1648.02 1596.99 1649.02 1577.09 1639.88 1561.18 1636.18 1558.05 1640.7 1556.23 1643.38 1559.5 1648.66 1565.8 1654.79 1565.62 1655.59 1565.11 1656.04 1565.11 1657.02 1580.27 1671.25 1598.65 1681.93 1619.42 1690.34 1622.55 1691.74 1625.31 1692.93 1628.09 1694.22 1629.54 1694.61 1630.63 1695.39 1631.93 1695.86H1632.37C1647.32 1701.65 1658.96 1703.99 1661.49 1700.25 1664.11 1696.47 1656.91 1688 1644.97 1678.43 1644.93 1678.23 1644.7 1677.98 1644.6 1677.68 1649.16 1673.5 1651.69 1664.36 1655.72 1659.54 1658.55 1656.3 1665.35 1654.48 1665.93 1649.66 1666.65 1643.25 1657.49 1639.14 1656.02 1633.18 1655.23 1629.73 1656.61 1626.04 1656.08 1623.14 1655.42 1618.24 1652.38 1614.95 1650.4 1611.29 1666.32 1603.09 1678.24 1578.79 1678.56 1548.97 1678.56 1547.9 1675.86 1529.88 1678.24 1535.04 1678.7 1534.86 1675.98 1526.39 1676.37 1526.16 1686.29 1520.59 1689.46 1509.54 1699.1 1519.02 1708.32 1528.27 1712.07 1532.06 1718.88 1547.99 1725.52 1563.59 1732.13 1579.13 1739.63 1592.79 1746.83 1606.48 1755.29 1616.95 1764.42 1626.14 1751.54 1664.36 1733.95 1698.55 1709.94 1727.21 1683.53 1758.98 1650.1 1783.88 1610.15 1801.93 1569.94 1820.02 1523.53 1828.79 1469.88 1828.38 1416.61 1827.99 1370.17 1818.36 1330.9 1799.66 1291.66 1780.93 1259.18 1755.43 1233.81 1723.27 1208.03 1691.11 1188.87 1653.06 1176.19 1609.22 1163.29 1565.2 1157.2 1518.39 1157.56 1468.46 1158.09 1418.47 1164.97 1372.11 1178.31 1329.32 1191.81 1286.49 1211.68 1249.24 1237.98 1217.43 1264.04 1185.65 1296.77 1160.96 1336.31 1143.36 1375.95 1125.75 1422.36 1117.16 1475.84 1117.59 1529.43 1118 1575.79 1127.43 1615.58 1145.72 1655.23 1163.93 1688.17 1189.15 1714 1221.38 1740.18 1253.59 1759.29 1291.21 1771.58 1334.27 1777.69 1355.68 1782.52 1378.04 1785.47 1401.29 1784.27 1402.06 1783.52 1402.88 1782.3 1403.63" fill="#fbad1e"/>
<path transform="matrix(.1,0,0,-.1,0,209.106)" d="M618.348 1119.21 621.477 1119.7V1553.71L927.309 1119.21C973.906 1111.79 1012.08 1111.31 1060.29 1119.21L1063.46 1119.76V1822.29L1060.29 1822.82C1016.42 1830.74 970.379 1830.74 916.285 1822.82L913.156 1822.33V1387.5L609.285 1822.83C561.559 1830.74 520.688 1830.66 474.129 1822.83L470.996 1822.29V1119.76L474.129 1119.21C519.988 1111.5 571.035 1111.5 618.348 1119.21" fill="#625454"/>
<path transform="matrix(.1,0,0,-.1,0,209.106)" d="M1854.43 1117.63 1854.89 1113.06 2494.25 1395.66 2494.48 1397.24C2496.85 1411.85 2498.53 1425.14 2499.71 1437.39 2500.76 1449.33 2501.29 1461.64 2501.29 1474.45 2501.29 1488.43 2500.76 1501.64 2499.71 1514.11 2498.53 1526.38 2496.85 1539.19 2494.48 1552.56L2494.25 1554.19 1880.1 1831.38 1879.18 1826.94C1877.14 1813.75 1875.55 1801.74 1874.89 1789.99 1874.17 1778.45 1873.73 1766.77 1873.73 1755.42 1873.73 1743.33 1874.17 1731.43 1874.89 1719.45 1875.55 1707.99 1877.14 1695.65 1879.18 1682.93L1879.5 1681.35 2314.59 1478.24 1854.59 1269.7 1854.43 1268.06C1849.98 1241.32 1847.71 1215.69 1847.71 1191.75 1847.71 1182 1848.52 1170.11 1849.98 1154.58 1851.44 1140.71 1852.96 1128.27 1854.43 1117.63" fill="#625454"/>
<path transform="matrix(.1,0,0,-.1,0,209.106)" d="M2050.49 270.098C2050.49 306.758 2045.84 338.109 2036.66 363.16 2027.56 388 2014.54 409.48 1998.23 427.07 1981.9 444.328 1961.6 459.188 1938.23 471.008 1914.59 482.879 1888.56 494.27 1858.35 505.969L1789 531.891C1777.14 536.539 1765.54 541.23 1753.88 546.148 1741.71 551.391 1731.08 557.5 1721.53 564.918 1711.9 572.438 1704.13 581.5 1698.72 591.77 1693.2 601.918 1690.46 614.848 1690.46 630.219 1690.46 649.148 1694.09 664.73 1701.18 676.68 1708.22 688.809 1717.51 697.859 1728.83 704.379 1740.24 710.699 1753.12 714.988 1767.24 717.277 1780.65 719.578 1796.87 720.699 1815.27 720.699 1832.25 720.699 1851.48 719.68 1866.7 717.898 1883.63 716.051 1899.21 713.5 1913.03 710.438 1927.43 707.277 1940.22 703.559 1952.23 698.879 1962.74 694.98 1973.14 690.961 1983.51 686.938 2002.55 727.73 2014.45 769.57 2018.98 811.199 1983.1 823.367 1947.58 832.949 1913.35 839.738 1879.29 846.449 1842.32 849.879 1803.35 849.879 1760.78 849.879 1721.84 844.82 1687.52 834.758 1653.66 824.891 1623.97 809.949 1599.58 790.277 1575.36 770.848 1556.27 746.148 1542.79 716.961 1529.34 687.848 1522.5 653.77 1522.5 615.461 1522.5 583.828 1526.6 556.559 1534.65 534.289 1542.7 512.039 1554.11 492.578 1568.46 476.598 1582.74 460.91 1600.44 446.969 1621.09 435.379 1641.65 423.738 1665.28 413.02 1691.24 403.398L1762.04 377.398C1776.33 372.039 1789.6 366.551 1802.8 361 1816.24 355.188 1828.57 347.93 1839.38 339.367 1850.09 330.789 1858.83 320.309 1865.76 308.098 1869.51 301.008 1871.93 281.969 1873.51 263.328H2050.49" fill="#91c848"/>
<path transform="matrix(.1,0,0,-.1,0,209.106)" d="M2540.3 976.738H2077L2076.39 973.848C2072.36 954.129 2070.21 933.57 2070.21 912.648 2070.21 890.25 2072.3 869.57 2076.39 849.488L2077 846.66H2233V268.617L2236.23 268.199C2250.52 266.07 2263.5 264.801 2276.36 264.148 2302.84 262.84 2324.39 262.488 2348.77 264.539 2360.77 265.551 2372.88 266.777 2384.86 268.141L2388.09 268.539V846.66H2540.3L2540.77 849.52C2544.84 869.758 2546.77 891.008 2546.77 912.648 2546.77 933.09 2544.84 953.699 2540.77 973.848" fill="#625454"/>
<path transform="matrix(.1,0,0,-.1,0,209.106)" d="M1427.05 385.266H1131.52L1131.62 566.215H1425.79L1427.28 572.875C1431.45 590.305 1433.49 608.676 1433.49 627.297 1433.49 644.914 1431.45 662.613 1427.28 679.945L1425.79 686.703H1131.91V857.406H1421.51L1423.09 864.113C1427.05 881.465 1429.24 899.816 1429.24 918.547 1429.24 936.203 1427.05 953.965 1423.09 971.297L1421.51 977.934 1063.49 977.176C1032.68 977.855 1002.92 975.977 979.59 971.824L976.148 971.145 806.949 592.066 642.656 971.297 639.066 971.824C586.648 979.477 533.43 979.477 478.656 971.844L474.289 971.246 473.418 274.344 478.656 273.477C529.449 265.316 548.699 265.504 595.117 273.477L599.387 274.246 600.477 732.316 730.969 426.094 734.508 425.496C744.469 423.465 753.898 422.176 763.289 421.445 782.629 420.164 802.316 420.215 822.238 422.023 832.5 422.945 842.457 423.977 852.066 425.355L855.816 425.887 997.527 729.297 996.09 274.195 1012.97 271.297C1026.52 268.805 1032.68 267.695 1050.72 267.695 1053.87 267.695 1056.86 267.895 1060.08 268.035L1078.37 268.805V267.895H1427.65L1428.98 274.715C1433.01 292.246 1434.87 308.996 1434.87 325.855 1434.87 343.664 1432.96 361.477 1428.62 378.703" fill="#625454"/>
<path transform="matrix(.1,0,0,-.1,0,209.106)" d="M3060.97 1442.72C3044.74 1410.56 3017.2 1375.68 2989.23 1352.82 2970.85 1337.97 2950.8 1324.14 2930.17 1312.69 2921.08 1307.68 2911.69 1303.4 2903.21 1297.59 2894.44 1303.15 2885.01 1307.27 2875.76 1312 2854.79 1322.97 2834.31 1336.29 2815.82 1350.75 2787.14 1372.92 2758.77 1407.08 2741.58 1438.83 2716.02 1486.68 2719.03 1549.5 2765.08 1584.13 2804.55 1613.74 2853.7 1587.47 2893.16 1563.27L2899.46 1565.73C2938.2 1590.91 2993.98 1616.11 3034.11 1587.47 3081.03 1553.97 3085.63 1491.22 3060.97 1442.72M3182.85 1613.05C3170.83 1656.87 3152.57 1694.83 3127.95 1726.86 3103.34 1758.93 3072.06 1783.91 3033.79 1801.81 2995.65 1819.72 2950.29 1828.76 2898.1 1828.76 2845.54 1828.76 2800.41 1819.72 2762.23 1801.81 2723.98 1783.91 2692.69 1758.93 2667.99 1726.86 2643.49 1694.83 2625.3 1656.87 2613.2 1613.05 2601.21 1569.27 2595.3 1521.71 2595.3 1470.48 2595.3 1419.17 2601.21 1372.01 2613.2 1328.76 2625.3 1285.59 2643.49 1248.02 2667.99 1216.3 2692.69 1184.69 2723.98 1159.82 2762.23 1141.97 2800.41 1124.01 2845.54 1115.06 2898.1 1115.06 2950.29 1115.06 2995.65 1124.01 3033.79 1141.97 3072.06 1159.82 3103.34 1184.69 3127.95 1216.3 3152.57 1248.02 3170.83 1285.59 3182.85 1328.76 3194.76 1372.01 3200.85 1419.17 3200.85 1470.48 3200.85 1521.71 3194.76 1569.27 3182.85 1613.05" fill="#ec542a"/>
</g>
</svg>