<svg xmlns="http://www.w3.org/2000/svg" xmlns:xlink="http://www.w3.org/1999/xlink" xmlns:inkscape="http://www.inkscape.org/namespaces/inkscape" version="1.1" width="229.45" height="66.02" viewBox="0 0 229.45 66.02">
<path transform="matrix(.1,0,0,-.1,0,66.0208)" d="M765.621 400.781H730.0702V329.2693H765.621ZM765.621 472.301C775.43 472.301 784.699 470.469 793.41 466.781 802.121 463.109 809.762 458 816.289 451.469 822.84 444.93 827.949 437.301 831.621 428.59 835.301 419.859 837.141 410.59 837.141 400.781V329.281C837.141 319.461 835.301 310.199 831.621 301.469 827.949 292.762 822.84 285.121 816.289 278.59 809.762 272.051 802.121 266.949 793.41 263.27 784.699 259.578 775.43 257.75 765.621 257.75H730.07V186.23H658.551V400.781 472.301H730.07" fill="#2c8776"/>
<path transform="matrix(.1,0,0,-.1,0,66.0208)" d="M962.25 400.781H926.6992V364.8279H962.25ZM1033.49 368.68C1033.49 343.301 1016.58 334.852 1006.91 327.199 1017.38 318.738 1033.77 308.27 1033.77 280.879V186.23H962.25V293.309H926.699V186.23H855.18V400.781 472.301H926.699 962.25C972.059 472.301 981.328 470.469 990.039 466.781 998.75 463.109 1006.39 458 1012.92 451.469 1019.47 444.93 1024.58 437.301 1028.25 428.59 1031.93 419.859 1033.77 410.59 1033.77 400.781" fill="#2c8776"/>
<path transform="matrix(.1,0,0,-.1,0,66.0208)" d="M1159.85 400.781H1124.2992V257.75H1159.85ZM1231.37 257.75C1231.37 247.941 1229.53 238.68 1225.85 229.969 1222.18 221.238 1217.07 213.621 1210.52 207.07 1203.98 200.531 1196.35 195.43 1187.64 191.75 1178.92 188.078 1169.66 186.23 1159.85 186.23H1124.3C1114.49 186.23 1105.22 188.078 1096.51 191.75 1087.78 195.43 1080.16 200.531 1073.61 207.07 1067.08 213.621 1061.97 221.238 1058.3 229.969 1054.62 238.68 1052.77 247.941 1052.77 257.75V400.781C1052.77 410.59 1054.62 419.859 1058.3 428.59 1061.97 437.301 1067.08 444.93 1073.61 451.469 1080.16 458 1087.78 463.109 1096.51 466.781 1105.22 470.469 1114.49 472.301 1124.3 472.301H1159.85C1169.66 472.301 1178.92 470.469 1187.64 466.781 1196.35 463.109 1203.98 458 1210.52 451.469 1217.07 444.93 1222.18 437.301 1225.85 428.59 1229.53 419.859 1231.37 410.59 1231.37 400.781" fill="#2c8776"/>
<path transform="matrix(.1,0,0,-.1,0,66.0208)" d="M1421.02 461.84 1381.9 400.781H1345.93V186.23H1274.41V400.781H1238.85V472.313H1274.41 1345.93 1415.3C1420.67 472.313 1423.92 466.371 1421.02 461.84" fill="#2c8776"/>
<path transform="matrix(.1,0,0,-.1,0,66.0208)" d="M1479.73 364.832H1551.25V293.313H1479.73V257.754H1551.25L1590.56 196.715C1593.47 192.191 1590.22 186.234 1584.84 186.234H1479.73C1469.92 186.234 1460.66 188.082 1451.94 191.754 1443.21 195.434 1435.6 200.531 1429.04 207.074 1422.51 213.621 1417.4 221.242 1413.73 229.973 1410.05 238.684 1408.21 247.941 1408.21 257.754V400.781C1408.21 410.594 1410.05 419.863 1413.73 428.594 1417.4 437.305 1422.51 444.934 1429.04 451.473 1435.6 458.004 1443.21 463.113 1451.94 466.781 1460.66 470.484 1469.92 472.305 1479.73 472.305H1584.03C1589.39 472.305 1592.64 466.414 1589.78 461.883L1551.25 400.781H1479.73" fill="#2c8776"/>
<path transform="matrix(.1,0,0,-.1,0,66.0208)" d="M1675.04 355.449V421.949H1622.36C1615.14 421.949 1608.25 420.578 1601.92 417.879 1595.52 415.191 1589.84 411.391 1585.05 406.578 1580.23 401.762 1576.43 396.109 1573.76 389.738 1571.05 383.32 1569.69 376.43 1569.69 369.281V291.602C1569.69 284.441 1571.05 277.57 1573.76 271.16 1576.43 264.801 1580.23 259.141 1585.05 254.309 1589.89 249.48 1595.55 245.68 1601.89 243.012 1608.32 240.301 1615.2 238.941 1622.36 238.941H1675.04V305.441H1636.19V355.449" fill="#83b751"/>
<path transform="matrix(.1,0,0,-.1,0,66.0208)" d="M1692.5 421.949V355.449H1711.81V238.941H1778.31V355.449H1797.85V421.949" fill="#83b751"/>
<path transform="matrix(.1,0,0,-.1,0,66.0208)" d="M1991.19 473.977V259.426C1991.19 249.613 1989.34 240.355 1985.67 231.637 1981.99 222.906 1976.89 215.297 1970.34 208.734 1963.8 202.203 1956.17 197.094 1947.45 193.426 1938.74 189.746 1929.48 187.906 1919.67 187.906H1884.11C1874.3 187.906 1865.04 189.746 1856.33 193.426 1847.6 197.094 1839.98 202.203 1833.43 208.734 1826.89 215.297 1821.79 222.906 1818.11 231.637 1814.44 240.355 1812.59 249.613 1812.59 259.426V473.977H1884.11V259.426H1919.67V473.977" fill="#2c8776"/>
<path transform="matrix(.1,0,0,-.1,0,66.0208)" d="M2176.55 231.637C2172.89 222.906 2167.78 215.285 2161.23 208.734 2154.69 202.207 2147.05 197.098 2138.35 193.426 2129.63 189.746 2120.37 187.906 2110.55 187.906H2075.01 2003.48V259.426H2075.01 2110.55V294.977H2075.01C2065.19 294.977 2055.93 296.875 2047.21 300.695 2038.48 304.508 2030.87 309.605 2024.32 316.027 2017.78 322.418 2012.68 329.984 2009 338.715 2005.32 347.426 2003.48 356.688 2003.48 366.496V402.457C2003.48 412.266 2005.32 421.527 2009 430.258 2012.68 438.965 2017.78 446.605 2024.32 453.137 2030.87 459.676 2038.48 464.777 2047.21 468.457 2055.93 472.145 2065.19 473.977 2075.01 473.977H2110.55 2187.71C2193.09 473.977 2196.34 468.035 2193.43 463.508L2154.29 402.457H2110.55 2075.01V366.496H2110.55C2120.37 366.496 2129.63 364.656 2138.35 360.977 2147.05 357.305 2154.69 352.195 2161.23 345.645 2167.78 339.105 2172.89 331.477 2176.55 322.766 2180.23 314.047 2182.07 304.785 2182.07 294.977V259.426C2182.07 249.617 2180.23 240.348 2176.55 231.637" fill="#2c8776"/>
<path transform="matrix(.1,0,0,-.1,0,66.0208)" d="M161.586 446.934C183.355 412.977 206.375 391.234 228.645 370.215 232.957 366.145 237.195 362.113 241.395 358.066 232.605 397.145 238.656 432.363 245.555 472.125 248.336 488.145 251.207 504.715 253.336 522.766 253.336 522.773 253.348 522.875 253.348 522.906 253.367 523.066 253.375 523.234 253.395 523.395 253.645 526.246 254.555 538.773 253.367 558.344 196.805 554.195 153.305 543.934 127.324 536.273 136.297 501.926 147.695 468.613 161.586 446.934" fill="#83b751"/>
<path transform="matrix(.1,0,0,-.1,0,66.0208)" d="M151.238 285.984C170.941 274.508 188.191 266.535 204.871 258.836 236.371 244.285 263.57 231.715 293.98 201.734 303.961 191.895 311.102 179.938 316.172 166.914 311.148 208.426 302.641 235.207 282.07 269.914 281.641 270.574 281.219 271.227 280.781 271.895 277 277.707 273.02 283.816 268.961 290.734 268 292.188 267.09 293.586 266.102 295.066 250.398 318.477 232.27 335.598 213.07 353.727 189.809 375.688 165.762 398.395 142.5 434.695 127.371 458.285 115.199 493.375 105.711 529.227 101.949 527.855 100 527.035 100 527.035 100 527.035 100.25 415.324 100.25 376.105 100.609 365.758 101.461 355.906 102.539 346.285 114.691 321.445 130.789 297.895 151.238 285.984" fill="#83b751"/>
<path transform="matrix(.1,0,0,-.1,0,66.0208)" d="M435.953 232.746C420.664 227.316 406.594 225.344 394.016 225.344 382.523 225.344 372.402 227.047 363.594 229.195 382.543 215.305 404.594 201.684 421.094 198.496 429.676 196.836 438.586 196.234 447.355 196.297 463.324 216.797 477.676 241.375 488.414 270.824 471.836 254.316 452.973 238.785 435.953 232.746" fill="#2c8776"/>
<path transform="matrix(.1,0,0,-.1,0,66.0208)" d="M304.25 100.039C304.461 131.461 298.82 165.109 278.051 185.59 250.469 212.789 224.93 224.59 195.348 238.25 179 245.809 160.461 254.371 139.828 266.391 130.488 271.828 122.008 279.121 114.289 287.559 160.578 132.859 304.09 100 304.09 100 304.09 100 304.219 100.031 304.25 100.039" fill="#2c8776"/>
<path transform="matrix(.1,0,0,-.1,0,66.0208)" d="M416.777 176.23C385.93 182.199 345.746 213.289 325.84 230.07H325.816C332.598 210.059 336.637 189.039 339.488 162.758 341.406 145.098 340.129 127.668 337.52 111.77 362.219 122.5 396.859 141.867 428.539 174.609 424.609 175.027 420.668 175.48 416.777 176.23" fill="#2c8776"/>
<path transform="matrix(.1,0,0,-.1,0,66.0208)" d="M428.371 254.117C436.82 257.117 446.434 263.676 456.152 271.867 444.371 268.727 433.383 267.238 423.191 267.238 387.172 267.238 360.301 284.418 337.172 301.766 322.922 312.445 299.004 314.426 282.043 313.996 284.121 309.969 286.191 306.176 288.262 302.648 292.91 295.578 297.16 288.848 301.012 282.387 305.523 275.445 309.902 268.586 313.98 260.926 322.813 260.559 342.773 259.195 358.16 254.219 375.332 248.656 398.813 243.637 428.371 254.117" fill="#2aadd5"/>
<path transform="matrix(.1,0,0,-.1,0,66.0208)" d="M278.105 559.707C277.988 546.996 277.418 534.566 276.066 522.328 275.969 521.148 275.887 520.359 275.855 520.156V520.129C273.656 501.457 270.727 484.578 267.898 468.246 259.926 422.309 253.637 386.027 269.367 343.09 270.258 340.656 271.148 338.418 272.035 336.168 288.785 337.477 326.566 338.059 350.777 319.906 373.898 302.566 399.355 286.648 434.926 290.816 419.855 300.109 406.309 311.559 394.285 324.598L377.867 316.68C375.918 315.777 373.836 316.047 372.246 317.328L357.488 329.246 345.945 327.488C343.059 327.059 340.367 329.039 339.926 331.93 339.559 334.359 340.906 336.656 343.066 337.578 343.348 337.699 343.648 337.758 343.945 337.828L341.605 339.258C339.129 340.777 338.336 344.039 339.867 346.52 341.387 349.008 344.637 349.789 347.137 348.27L351.598 345.539 350.738 350.137C350.266 352.629 351.617 355.027 353.848 355.977 354.195 356.129 354.566 356.238 354.945 356.316 357.828 356.859 360.586 354.969 361.129 352.098L363.828 337.707 376.285 327.648 387.027 332.84C374.879 347.289 364.297 363.168 355.078 379.477L354.379 379.188C354.227 379.398 354.129 379.547 354.129 379.547 354.129 379.547 343.867 381.578 340.168 386.996 334.445 395.367 333.879 412.887 331.418 422.059 328.945 431.219 323.027 444.449 319.629 452.898 316.219 461.359 317.637 477.098 327.977 478.969 338.309 480.848 343.586 470.859 349.695 460.758 355.797 450.656 363.656 441.137 371.285 432.906 378.918 424.688 385.836 414.688 386.309 406.238 386.695 399.18 383.516 393.406 382.445 391.68 393.355 379.508 405.066 367.02 417.559 355.629L436.617 367.68C436.855 367.828 437.105 367.957 437.367 368.066 438.945 368.746 440.785 368.617 442.266 367.68L458.297 357.52 469.566 360.578C472.379 361.34 475.277 359.68 476.047 356.859 476.777 354.18 475.285 351.449 472.695 350.559L475.219 349.387C477.855 348.156 479.008 345.02 477.777 342.367 476.547 339.727 473.418 338.578 470.758 339.797L466.008 342.008 467.387 337.527C468.246 334.746 466.695 331.777 463.906 330.918 461.117 330.059 458.156 331.617 457.297 334.406L452.969 348.387 439.438 356.957 425.879 348.387C437.945 338.199 450.629 329.227 463.957 322.879 464.258 322.738 464.559 322.629 464.879 322.527 474.227 319.758 482.855 315.719 490.746 310.746 493.137 312.078 495.527 313.43 497.898 314.84 499.188 316.367 500.387 317.84 501.598 319.309 505.746 341.039 508.176 364.707 508.176 390.746V527.039C508.176 527.039 428.957 560.207 304.086 560.207 295.188 560.207 286.535 560.02 278.105 559.707" fill="#2aadd5"/>
</svg>