<?xml version="1.0" encoding="UTF-8"?>
<svg id="Layer_1" xmlns="http://www.w3.org/2000/svg" version="1.1" viewBox="0 0 510.24 269.29">
  <!-- Generator: Adobe Illustrator 29.7.1, SVG Export Plug-In . SVG Version: 2.1.1 Build 8)  -->
  <defs>
    <style>
      .st0 {
        fill: #fff;
      }

      .st1 {
        fill: #a61d1e;
      }

      .st2 {
        fill: none;
        stroke: gray;
        stroke-width: .26px;
      }
    </style>
  </defs>
  <path d="M434.77,192.27c-1.4-.74-2.49-1.77-3.29-3.07-.8-1.31-1.19-2.78-1.19-4.42s.4-3.11,1.19-4.42c.8-1.31,1.89-2.33,3.29-3.07,1.39-.74,2.97-1.11,4.72-1.11s3.32.37,4.72,1.11,2.49,1.77,3.29,3.07c.79,1.31,1.19,2.78,1.19,4.42s-.4,3.11-1.19,4.42c-.8,1.31-1.89,2.33-3.29,3.07s-2.97,1.11-4.72,1.11-3.32-.37-4.72-1.11ZM441.76,188.91c.68-.39,1.21-.95,1.61-1.67.39-.72.59-1.54.59-2.47s-.2-1.75-.59-2.47c-.39-.72-.93-1.27-1.61-1.67-.68-.39-1.44-.59-2.27-.59s-1.59.2-2.27.59-1.21.95-1.61,1.67c-.39.72-.59,1.54-.59,2.47s.2,1.75.59,2.47c.39.72.93,1.27,1.61,1.67.68.39,1.43.59,2.27.59s1.59-.2,2.27-.59Z"/>
  <path d="M420.24,180.02h-5.08v-3.71h14.82v3.71h-5.06v12.84h-4.68v-12.84h0Z"/>
  <path d="M415.13,185.11c-.61-.67-1.32-1.16-2.15-1.47s-1.87-.6-3.13-.86c-1.12-.24-1.93-.46-2.44-.69-.5-.22-.76-.55-.76-.99s.21-.8.64-1.08c.43-.28,1.1-.41,2.03-.41,1.21,0,2.68.16,4.41.3v-3.65c-.37-.04-.74-.09-1.32-.14-1.22-.11-1.98-.16-3.06-.16-1.59,0-2.94.24-4.03.71-1.1.47-1.92,1.11-2.47,1.93-.55.81-.83,1.72-.83,2.73,0,1.15.3,2.07.9,2.74.6.68,1.32,1.17,2.15,1.48s1.88.6,3.12.86c1.13.25,1.96.49,2.47.72s.77.58.77,1.05c0,.9-.9,1.35-2.7,1.35-.95,0-1.91-.15-2.89-.45s-1.84-.69-2.58-1.18l-1.54,3.45c.79.55,1.81.99,3.07,1.32s2.56.5,3.9.5c1.58,0,2.92-.24,4.02-.72,1.1-.48,1.93-1.12,2.48-1.93.55-.8.83-1.7.83-2.7,0-1.15-.3-2.06-.91-2.73l.02.02h0Z"/>
  <path d="M400.54,189.24v3.62h-13.29v-16.55h12.98v3.62h-8.35v2.79h7.35v3.5h-7.35v3.03h8.66Z"/>
  <path d="M380.01,192.86l-.05-8.77-4.26,7.14h-2.08l-4.23-6.9v8.54h-4.33v-16.55h3.85l5.82,9.55,5.67-9.55h3.85l.05,16.55h-4.3,0Z"/>
  <path d="M339.94,192.08c-1.4-.74-2.49-1.77-3.29-3.07-.8-1.31-1.19-2.78-1.19-4.42s.4-3.11,1.19-4.42c.8-1.31,1.89-2.33,3.29-3.07,1.39-.74,2.97-1.11,4.72-1.11s3.32.37,4.72,1.11,2.49,1.77,3.29,3.07c.79,1.31,1.19,2.78,1.19,4.42s-.4,3.11-1.19,4.42c-.8,1.31-1.89,2.33-3.29,3.07s-2.97,1.11-4.72,1.11-3.32-.37-4.72-1.11ZM346.92,188.72c.68-.39,1.21-.95,1.61-1.67.39-.72.59-1.54.59-2.47s-.2-1.75-.59-2.47c-.39-.72-.93-1.27-1.61-1.67-.68-.39-1.44-.59-2.27-.59s-1.59.2-2.27.59-1.21.95-1.61,1.67c-.39.72-.59,1.54-.59,2.47s.2,1.75.59,2.47c.39.72.93,1.27,1.61,1.67.68.39,1.43.59,2.27.59s1.59-.2,2.27-.59Z"/>
  <path d="M336.5,176.31l-7.09,16.55h-4.61l-7.07-16.55h5.06l4.49,10.78,4.59-10.78h4.63Z"/>
  <path d="M304.93,192.08c-1.4-.74-2.49-1.77-3.29-3.07-.8-1.31-1.19-2.78-1.19-4.42s.4-3.11,1.19-4.42c.8-1.31,1.89-2.33,3.29-3.07,1.39-.74,2.97-1.11,4.72-1.11s3.32.37,4.72,1.11,2.49,1.77,3.29,3.07c.79,1.31,1.19,2.78,1.19,4.42s-.4,3.11-1.19,4.42c-.8,1.31-1.89,2.33-3.29,3.07s-2.97,1.11-4.72,1.11-3.32-.37-4.72-1.11ZM311.92,188.72c.68-.39,1.21-.95,1.61-1.67.39-.72.59-1.54.59-2.47s-.2-1.75-.59-2.47c-.39-.72-.93-1.27-1.61-1.67-.68-.39-1.44-.59-2.27-.59s-1.59.2-2.27.59-1.21.95-1.61,1.67c-.39.72-.59,1.54-.59,2.47s.2,1.75.59,2.47c.39.72.93,1.27,1.61,1.67.68.39,1.43.59,2.27.59s1.59-.2,2.27-.59Z"/>
  <path d="M299.08,176.31v16.55h-3.85l-7.31-8.82v8.82h-4.59v-16.55h3.85l7.31,8.82v-8.82h4.59Z"/>
  <path d="M485.1,162.9c.54.7.8,1.55.8,2.54,0,1.45-.58,2.57-1.75,3.36s-2.85,1.18-5.06,1.18h-8.94v-16.55h8.46c2.11,0,3.72.39,4.82,1.17s1.65,1.83,1.65,3.16c0,.79-.19,1.49-.58,2.12-.39.62-.93,1.12-1.64,1.48.95.33,1.69.85,2.22,1.55h.02ZM474.79,156.81v3.19h3.22c1.58,0,2.36-.54,2.36-1.61s-.79-1.58-2.36-1.58h-3.22ZM481.17,164.92c0-1.12-.82-1.68-2.46-1.68h-3.92v3.36h3.92c1.64,0,2.46-.56,2.46-1.68h0Z"/>
  <path d="M453.84,168.3c-1.36-1.34-2.04-3.24-2.04-5.7v-9.17h4.68v9.03c0,2.65,1.05,3.97,3.14,3.97s3.12-1.32,3.12-3.97v-9.03h4.61v9.17c0,2.46-.68,4.36-2.04,5.7-1.36,1.34-3.28,2.01-5.73,2.01s-4.37-.67-5.73-2.01h0Z"/>
  <path d="M438.34,153.43h4.68v12.84h7.9v3.71h-12.58v-16.55Z"/>
  <path d="M427.26,163.97l-1.75,1.87v4.14h-4.63v-16.55h4.63v6.88l6.41-6.88h5.16l-6.76,7.33,7.12,9.22h-5.44l-4.73-6.01h0Z"/>
  <path d="M403.65,153.43h4.68v16.55h-4.68v-16.55Z"/>
  <path d="M392.57,163.97l-1.75,1.87v4.14h-4.63v-16.55h4.63v6.88l6.41-6.88h5.16l-6.76,7.33,7.12,9.22h-5.44l-4.73-6.01h0Z"/>
  <path d="M373.11,169.81c-1.26-.33-2.29-.77-3.07-1.32l1.54-3.45c.74.49,1.6.88,2.58,1.18.98.3,1.94.45,2.89.45,1.8,0,2.7-.45,2.7-1.35,0-.47-.26-.82-.77-1.05s-1.34-.47-2.47-.72c-1.24-.27-2.29-.56-3.12-.86-.84-.31-1.55-.8-2.15-1.48s-.9-1.59-.9-2.74c0-1.01.27-1.92.83-2.73.55-.81,1.37-1.45,2.47-1.93,1.1-.47,2.44-.71,4.03-.71,1.09,0,2.16.12,3.22.37,1.06.24,1.99.6,2.79,1.08l-1.44,3.48c-1.58-.85-3.11-1.28-4.59-1.28-.93,0-1.61.14-2.03.41-.43.28-.64.64-.64,1.08s.25.77.76.99,1.32.45,2.44.69c1.26.27,2.31.56,3.13.86.83.31,1.55.8,2.15,1.47.61.67.91,1.58.91,2.73,0,.99-.28,1.89-.83,2.7-.55.8-1.38,1.45-2.48,1.93s-2.44.72-4.02.72c-1.34,0-2.64-.17-3.9-.5l-.03-.02h0Z"/>
  <path d="M361.25,165.58h-2.55v4.4h-4.68v-16.55h7.57c1.5,0,2.8.25,3.9.74,1.1.5,1.96,1.21,2.55,2.13.6.92.9,2.01.9,3.25s-.28,2.24-.84,3.13-1.36,1.59-2.4,2.09l3.57,5.2h-5.01l-3-4.4h-.01ZM363.47,157.76c-.49-.43-1.21-.64-2.17-.64h-2.6v4.85h2.6c.96,0,1.69-.21,2.17-.63.49-.42.73-1.01.73-1.79s-.24-1.37-.73-1.8h0Z"/>
  <path d="M346.9,166.76h-7l-1.3,3.22h-4.77l7.31-16.55h4.61l7.33,16.55h-4.87l-1.3-3.22h-.01ZM345.52,163.31l-2.13-5.3-2.13,5.3h4.26Z"/>
  <path d="M328.55,169.98l-.05-8.77-4.26,7.14h-2.08l-4.23-6.9v8.54h-4.33v-16.55h3.85l5.82,9.55,5.67-9.55h3.85l.05,16.55h-4.3,0Z"/>
  <path d="M306.49,166.76h-7l-1.3,3.22h-4.77l7.31-16.55h4.61l7.33,16.55h-4.87l-1.3-3.22h-.01ZM305.12,163.31l-2.13-5.3-2.13,5.3h4.26Z"/>
  <path d="M283.64,169.68c-.99-.42-1.81-1.02-2.44-1.81l2.55-3.03c.88,1.15,1.84,1.73,2.86,1.73.68,0,1.19-.21,1.55-.62.35-.41.53-1.01.53-1.8v-7.12h-5.72v-3.62h10.36v10.45c0,2.14-.54,3.75-1.62,4.82s-2.67,1.61-4.76,1.61c-1.21,0-2.32-.21-3.31-.63v.02h0Z"/>
  <polygon class="st1" points="510.03 74.7 492.91 74.7 467.72 117.12 441.89 74.7 424.77 74.7 424.77 148.2 443.99 148.2 443.99 110.3 462.78 140.95 472.02 140.95 490.92 109.25 491.13 169.95 510.24 169.95 510.03 74.7"/>
  <polygon class="st1" points="399.08 113.86 366.64 74.7 359.95 74.7 349.53 85.9 349.53 139.24 324.84 107.25 354.87 74.7 331.98 74.7 303.53 105.26 303.53 74.7 282.95 74.7 282.95 148.2 303.53 148.2 303.53 129.82 311.3 121.53 332.3 148.2 349.53 148.2 356.44 148.2 369.9 148.2 369.9 109.04 402.34 148.2 419.45 148.2 419.45 74.7 399.08 74.7 399.08 113.86"/>
  <path class="st1" d="M254.12,74.69h-21.92c.06.33.13.64.19.96.96,4.96,1.77,10,2.47,15.11h24.39v76.52c0,3.5-1.04,6.58-2.62,8.4-1.57,1.82-5.42,2.31-8.43,2.31-2.3,0-4.52-.66-6.65-1.96v17.77c2.57.52,5.28.78,8.12.78,9.31,0,16.36-2.38,21.16-7.14,4.79-4.76,7.19-11.9,7.19-21.42v-91.33h-23.91,0Z"/>
  <g id="Znak">
    <path class="st0" d="M232.21,74.7c-1.2-6.08-2.66-12.13-4.4-18.12-2.37-8.13-5.41-16.04-9.41-23.46-2.4-4.46-5.3-8.73-8.73-12.48-.95-1.04-1.78-1.83-2.47-2.37-2.05-1.6-4.4-2.82-6.76-3.79-4.33-1.79-8.57-2.97-13.41-4.08-3.71-.85-7.9-1.62-12.56-2.33-5.34-.8-10.85-1.46-16.52-1.98-10.22-.93-20.43-1.52-30.65-1.76-.9-.02-1.58-.05-2.03-.06-2.03-.1-3.15-.06-6.26-.06s-4.22-.04-6.26.06c-.45.03-1.13.05-2.03.06-10.22.24-20.43.83-30.65,1.76-5.67.52-11.18,1.18-16.52,1.98-4.67.7-8.85,1.48-12.56,2.33-4.85,1.11-9.07,2.29-13.41,4.08-2.37.98-4.7,2.19-6.76,3.79-.69.54-1.52,1.33-2.47,2.37-3.43,3.75-6.33,8.03-8.73,12.48-3.99,7.42-7.05,15.33-9.41,23.46-1.83,6.3-3.36,12.66-4.59,19.07-1.64,8.55-2.91,17.31-3.81,26.28-.75,7.39-1.25,14.27-1.53,20.62-.06,1.34-.14,3.54-.25,6.57-.06,1.79-.05,3.57-.05,5.51s0,3.73.05,5.51c.11,3.04.19,5.23.25,6.57.28,6.36.78,13.23,1.53,20.62.9,8.97,2.17,17.73,3.82,26.28,1.23,6.41,2.76,12.76,4.59,19.07,2.37,8.13,5.41,16.04,9.41,23.46,2.4,4.46,5.3,8.73,8.73,12.48.95,1.04,1.78,1.83,2.47,2.37,2.05,1.6,4.4,2.82,6.76,3.79,4.33,1.79,8.57,2.97,13.41,4.08,3.71.85,7.9,1.62,12.56,2.33,5.34.8,10.85,1.46,16.52,1.98,10.22.93,20.43,1.52,30.65,1.76.9.02,1.58.05,2.03.06,2.02.1,3.15.06,6.26.06s4.22.04,6.26-.06c.45-.03,1.13-.05,2.03-.06,10.22-.24,20.43-.83,30.65-1.76,5.67-.52,11.18-1.18,16.52-1.98,4.67-.7,8.85-1.47,12.56-2.33,4.85-1.11,9.07-2.29,13.41-4.08,2.37-.98,4.7-2.19,6.76-3.79.69-.54,1.52-1.33,2.47-2.37,3.43-3.75,6.33-8.03,8.73-12.48,3.99-7.42,7.05-15.33,9.41-23.46,1.83-6.3,3.36-12.66,4.59-19.07,1.64-8.55,2.91-17.31,3.81-26.28.75-7.39,1.25-14.27,1.53-20.62.06-1.34.14-3.54.25-6.57.06-1.79.05-3.57.05-5.51s.02-3.73-.05-5.51c-.11-3.04-.19-5.23-.25-6.57-.28-6.36-.78-13.23-1.53-20.62-.38-3.77-.84-7.49-1.35-11.18-.7-5.1-1.52-10.15-2.47-15.11-.06-.32-.13-.63-.19-.95h0Z"/>
    <g>
      <path class="st2" d="M186.57,92.22c1.13.58,1.86,1.43,2.18,2.54.63,2.14-.66,4.23-2.77,4.79-.41.11-.69.08-1.21.11-.05,0-.09.04-.1.08l-3.06,10.16s-.02.05-.04.06c-.1.12-.19.09-.26-.1-.18-.52-.36-1.1-.52-1.73-.07-.32-.06-.65.04-1.01.44-1.5,1.33-4.47,2.66-8.94.05-.15.2-.24.35-.21.76.16,1.79.24,2.42-.18.78-.52,1.24-1.55,1.03-2.42-.24-1.01-.92-1.66-2.02-1.94-.39-.1-.54-.3-.48-.62.26-1.24.49-2.38.68-3.41,1.32-6.86,2.33-12.1,3.04-15.73.07-.38.08-.61.47-.67.3-.05.77.02,1.13-.07,1.4-.36,2.16-1.74,1.67-3.09-.45-1.22-1.45-1.46-2.65-1.66-.22-.04-.33-.17-.33-.4,0-3.41.02-8.43.03-15.08v-.16c0-.06.06-.11.12-.11h.02c.88.21,1.75.16,2.42-.51.51-.51.92-1.38.72-2.11-.13-.47-.39-1.12-.81-1.42-.65-.45-1.1-.51-2.06-.74-.1-.03-.17-.11-.17-.22v-13.98c0-.07-.05-.14-.11-.17l-1.19-.51s-.1,0-.12.05v14.27c0,.06-.06.12-.12.12h-.03l-18.86-4.44s-.07-.04-.08-.07c-.09-.26-.17-.46-.23-.62-.47-1.2-1.3-2.1-2.47-2.71-.24-.12-.35-.34-.35-.64.02-1.32.03-4.95.02-10.92v-.26s-.03-.06-.06-.07l-1.13-.19s-.08.02-.09.06v12.72s.03.09.07.11c.23.13.7.25,1.04.44,1.23.74,1.91,1.86,2.02,3.37,0,.04.03.07.06.08.22.07.92.25,2.1.52,11.68,2.75,18.52,4.37,20.52,4.84.86.2.52,1.78-.48,1.55-9.27-2.18-16-3.77-20.23-4.78-1.03-.25-1.74-.42-2.14-.53-.13-.04-.27.03-.32.14-.43.86-1.15,1.42-2.02,1.8-.07.04-.12.11-.11.19l2.07,14.73c.03.17.16.3.32.33,1.48.25,2.52,1.06,3.14,2.44.14.3.21.64.24,1.04,0,.12.09.22.21.25.33.06.73.14,1.19.22,7.4,1.26,13.2,2.25,17.41,2.95.37.06.62.14.75.24.46.34.37,1.14-.14,1.35-.14.06-.4.06-.79,0-5.14-.88-11.4-1.93-18.78-3.16-.07,0-.14.03-.17.09-.25.65-.67,1.19-1.27,1.6-.36.25-.5.47-.39.89,2.42,9.18,3.95,15.05,4.61,17.59.06.2.13.4.22.56.06.09.15.15.25.16.5.02.89.04,1.32.18,1.27.44,2.09,1.33,2.47,2.65.09.32.08.61.11.97,0,.08.06.16.15.17,3.1.81,5.49,1.41,7.15,1.81.46.11.74.22.83.34.29.34.28,1.14-.26,1.3-.22.06-.47.06-.75,0-2.63-.68-5.11-1.31-7.42-1.89-.03,0-.06,0-.07.04-.33.67-.78,1.2-1.34,1.56-.1.06-.12.21-.06.42,2.11,6.76,3.69,11.77,4.74,15.04.24.76.42,1.4.55,1.92,0,.03.03.05.06.05,2.05.04,3.66,1,4.21,3.06.42,1.59-.4,3.25-1.68,4.17-.08.06-.12.17-.08.27l6.3,18.89c.03.08-.02.17-.1.19h-.02c-.58.11-1.06.32-1.41.65-1.28,1.19-.92,3.09.65,3.83.56.26,1.33.17,2.02.17.14,0,.25.09.29.22,1.38,5.9,2.42,11.84,3.12,17.79.02.17.04.38.05.59,0,.09.06.17.15.19,2.24.66,2.65,3.45.63,4.68-.05.03-.08.06-.1.12-.06.14-.07.28-.06.43.25,2.37.48,4.74.68,7.09.16,1.79.33,4.86.53,9.21,0,.03.02.06.06.07,2.25.8,2.55,3.6.4,4.74-.14.07-.22.21-.23.38-.04,2.63.16,5.47.15,7.89,0,2.88-.03,4.06.07,6.54.06,1.27.06,2.88.03,4.85,0,.15.02.29.06.43.02.06.06.1.11.13.36.18.64.28.88.51.4.38.64.8.73,1.27.26,1.45-.28,2.47-1.6,3.04-.1.05-.17.15-.17.26.03,1.91-.06,3.87-.28,5.86-.02.16.06.31.19.39,1.03.6,1.06,1.44.96,2.5-.06.67-.13,1.42-.52,1.9-1.05,1.32-3.4.82-3.61-.93-.09-.78-.03-1.55.19-2.31.21-.73.72-1.14,1.37-1.45.06-.03.08-.07.09-.14.16-1.96.26-3.6.3-4.91,0-.26,0-.52-.02-.78,0-.16-.1-.29-.24-.38-.55-.31-1.1-.56-1.35-1.05-.04-.07-.11-.11-.19-.1-7.59,1.1-14.84,2.16-21.73,3.2-.38.06-.64.06-.76,0-.48-.25-.57-.95-.25-1.34.08-.11.31-.19.68-.25,5.69-.87,12.96-1.99,21.82-3.38.09,0,.17-.07.18-.17.22-.74.72-1.31,1.49-1.72.06-.03.09-.09.09-.16,0-2.52,0-4.48-.1-7.5-.07-1.97,0-3.97-.1-6.15-.09-2.11-.06-4.1-.06-6.13,0-.09-.06-.17-.16-.2-.5-.13-.9-.42-1.21-.89-.05-.06-.13-.1-.2-.08-5.73,1.14-13.15,2.62-22.26,4.45-.64.13-1.15-.1-1.15-.84,0-.4.25-.66.74-.75.65-.13,1.1-.21,1.35-.27,8.74-1.82,15.69-3.28,20.85-4.37.1-.02.17-.09.2-.18.23-.78.72-1.36,1.47-1.75.06-.03.1-.09.1-.17,0-1-.03-2.01-.08-3-.24-4.52-.62-9.02-1.13-13.51,0-.07-.06-.13-.13-.15-.63-.18-1.1-.51-1.43-.95-.06-.09-.18-.14-.29-.11-.75.17-1.52.35-2.33.5-3.7.71-7.76,1.52-12.18,2.43-3.23.66-5.41,1.12-6.54,1.38-1.26.29-1.56-1.39-.39-1.64,5.91-1.25,12.83-2.71,20.75-4.36.18-.04.38-.03.52-.11.04-.03.07-.06.07-.11.13-.81.52-1.26,1.2-1.72.06-.04.09-.09.11-.16.05-.16.06-.35.04-.58-.64-5.58-1.6-11.14-2.88-16.68,0-.03-.03-.05-.06-.05-1.1-.03-2.03-.4-2.8-1.13-.29-.28-.54-.71-.87-1-.04-.04-.1-.06-.15-.04-4.75,1.1-9.36,2.21-13.85,3.3-.55.14-.98-.3-.98-.86,0-.4.24-.66.71-.76.76-.17,1.21-.28,1.33-.31,2.34-.57,4.65-1.11,6.92-1.64,2.29-.52,4.16-.97,5.6-1.33.06,0,.09-.06.1-.11.05-.22.09-.48.15-.76.2-1.07.83-1.91,1.76-2.51.05-.03.06-.08.05-.14l-5.88-17.62s-.04-.05-.06-.05c-.73,0-1.36-.06-2.02-.34-2.87-1.25-3.06-5.18-.5-6.84.12-.08.17-.23.14-.38l-5.37-17.03c-.03-.07-.09-.13-.17-.13-.25,0-.47-.02-.67-.02-.85-.02-1.67-.4-2.27-.95-1.59-1.47-1.73-3.88-.25-5.52.18-.2.77-.54.91-.99.02-.06.02-.14,0-.2l-4.71-18.16c-.04-.16-.17-.28-.34-.29-1.58-.13-2.71-.8-3.39-2.02-.94-1.7-.52-3.68.93-4.91.14-.12.44-.31.91-.56.04-.02.06-.05.09-.08.07-.12.09-.26.07-.4-1.16-8.22-1.84-13.08-2.06-14.59,0-.09-.08-.17-.17-.18-1.67-.29-2.78-1.19-3.3-2.69-.42-1.2-.2-2.54.6-3.52.51-.62,1.07-1.05,1.67-1.29.29-.11.45-.17.51-.19.08-.04.14-.11.14-.2v-12.88s0-.02-.02-.02l-1.24-.21s-.04,0-.04.03h0v11.9c0,.19-.07.33-.22.41-1.57.87-2.55,2.14-2.91,3.82-.14.64-.13,1.31.03,1.99.47,1.97,1.67,3.3,3.6,3.99.06.03.11.08.13.16l1.79,12.78v.07c-.02.21-.1.37-.25.47-1.49,1.04-2.4,3.23-2.08,5.02.33,1.85,1.55,3.45,3.33,4.08.36.13.63.22.79.29.17.06.29.2.33.37,1.72,6.52,3.13,11.86,4.22,16.04.06.27.07.49.03.67,0,.05-.04.08-.06.11-1.31,1.19-1.86,2.69-1.67,4.49.26,2.37,2.27,4.26,4.54,4.56.1,0,.17.08.21.17l4.35,13.8c.06.17.06.36,0,.53-.58,1.89-1.02,3.17-1.51,4.97-.4,1.46-.84,2.98-1.29,4.55-.61,2.07-1.06,3.99-1.59,6.1-.31,1.21-.8,3.46-1.45,6.73-.02.1-.04.17-.06.2-.02.04-.07.06-.11.03-.02,0-.03-.03-.04-.05-.49-1.93-.74-2.92-.76-2.97-.05-.14-.08-.34-.11-.61-.19-1.69-.26-2.7-.52-4.1-.14-.78-.22-1.31-.24-1.55-.06-.94-.16-2.38-.29-4.34-.05-.61-.3-1.77-.96-1.94-.76-.21-1.14,1.15-1.19,1.7-.08.99-.15,2.16-.2,3.5-.02.61-.11,1.89-.27,3.85-.06.74-.24,1.27-.36,1.97-.07.42-.2.91-.4,1.44-.47,1.28-1,2.46-1.6,3.53-.06.12-.22.17-.35.1,0,0-.03-.02-.04-.03-.16-.12-.27-.3-.36-.54-.35-.99-.75-1.81-1.2-2.48-.65-.97-.95-1.75-1.22-2.82-.19-.75-.39-1.49-.56-2.23-.22-.88-.49-1.64-.79-2.57-.13-.39-.45-1.11-.78-1.46-.2-.22-.53.03-.61.22-.38,1.05-.8,2.34-1.27,3.87-.33,1.09-.7,2.11-1.11,3.07-.18.42-.35.89-.42,1.24-.24,1.1-.4,1.86-.48,2.27-.2.98-.58,1.81-.93,2.79-.34.96-.54,1.93-.6,2.95-.06,1.04-.2,3.33-.43,6.87-.05.75-.11,1.32-.19,1.67-.02.06-.15.62-.4,1.65-.13.52-.41.88-.86,1.1-.49.24-1.03-.46-1.15-.85-.22-.71-.29-1.15-.57-1.83-.14-.33-.23-.67-.29-1.04-.09-.53-.21-1.31-.37-2.32-.03-.18-.18-.64-.45-1.37-.41-1.11-.64-2.02-.46-3.04.14-.85.23-1.46.28-1.86.13-1.15-.06-2.24-.54-3.25-.46-.96-.76-1.57-.9-1.87-.39-.79-.71-1.75-.92-2.36-.22-.62-.35-1.14-.4-1.56-.21-2.06-.34-3.41-.41-4.03-.06-.48-.2-1.06-.45-1.76-1.01-2.82-1.64-4.57-1.91-5.26-.43-1.14-1.1-2.6-1.61-3.53-.43-.77-.99-1.47-1.67-2.09-.12-.11-.15-.29-.06-.41.05-.06.13-.12.25-.16.52-.14.93-.25,1.21-.31,1.73-.41,2.88-2.31,3.12-3.99.24-1.6.52-3.11.82-4.53.13-.58.25-1.02.35-1.3.4-1.11.68-2.14,1.17-3.16,1.17-2.38,2.54-4.74,4.33-6.72,1.19-1.31,2.37-2.51,3.54-3.61.88-.82,1.91-1.55,3.06-2.17.21-.11.38-.25.51-.4.09-.11.08-.27-.02-.37-.41-.4-1.64-.49-2.28-.52-1.81-.06-3.66.14-5.53.59-1.58.39-3.09.86-4.53,1.39-2.66,1-4.01,1.51-4.05,1.53-2.21.86-4.55,1.97-7.02,3.34-2.82,1.56-5.46,3.56-7.68,5.68-1.47,1.4-2.76,2.76-3.87,4.09-.82.98-1.46,1.81-1.91,2.5-1.3,1.96-2.48,3.86-3.54,5.69-1.05,1.81-.82,3.41.69,4.79.43.4.87.76,1.33,1.11,1.58,1.21,2.5,1.88,3.7,2.93.57.51,1.8,1.55,3.68,3.11,1.61,1.34,3.11,2.9,4.47,4.67.29.38.59.69.88.94.15.12.33.11.54-.03.42-.29.52-.76.33-1.27-.29-.73-.67-1.37-1.16-1.91-1.24-1.41-2.9-2.95-4.56-4.32-1.46-1.21-3.24-2.82-5-4.16-.73-.56-1.46-1.15-2.2-1.77-.17-.15-.29-.29-.35-.45-.05-.14,0-.29.13-.38.17-.11.36-.21.56-.31.88-.43,2-.92,3.36-1.47.97-.4,2.13-.77,3.49-1.14,1.85-.51,3.43-.89,4.75-1.17,1.38-.29,2.51-.46,3.41-.52,1.64-.1,3.4-.12,4.99.26.51.12.96.59.42,1.05-.14.12-.29.19-.43.22-1.52.31-2.86,1-4.03,2.06-.75.69-1.3,1.59-1.77,2.41-.95,1.64-1.47,3.75-1.3,5.74.14,1.56.33,2.84.94,4.08.42.87.69,1.61.8,2.22.17.92-.46,1.95-1.13,2.51-.57.49-1.06.87-1.48,1.25-.7.64-1.38,1.24-2.03,1.8-1.89,1.6-3.46,3.33-4.68,5.38-.41.69-.9,1.6-1.47,2.75-.43.87-.73,1.57-.88,2.14-.38,1.32-.7,2.83-.97,4.53-.25,1.6-.2,3.03.07,4.49.08.45.29.75.64.92.89.43,1.7.09,2.93-.21.61-.15,1.21-.1,1.8.16.84.36,1.33.99,1.48,1.9.06.4-.06.72-.38.94-.08.06-.2.04-.26-.05,0,0,0-.02-.02-.03-.2-.47-.52-.84-.93-1.1-.64-.4-1.69-.19-2.41-.03-.9.21-1.64.43-2.22.68-2.66,1.13-4.84,2.88-6.55,5.24-.39.53-.71,1.1-.98,1.72-.46,1.06-.84,2.07-1.12,3.16-.14.53-.24.86-.29.98-.34.78-.92,1.11-1.73,1.01-1.09-.14-2.21-.17-2.6-.19-1.71-.11-3.59.11-5.19.85-.88.4-1.47.69-1.77.86-.75.43-1.49.97-2.21,1.58-1.27,1.1-2.22,2.15-2.86,3.63-.27.62-.64,1.54-1.09,2.77-.24.66-.37,1.07-.38,1.23-.03.71.29,1.08.74,1.57.08.09.07.23-.02.3,0,0-.02.02-.03.02-.23.14-.49.16-.77.06-.56-.2-.96-.56-1.19-1.06-.31-.67-.4-1.2-.13-1.91.26-.66.44-1.33.55-1.99.18-1.1-.14-2-.98-2.67-.57-.46-1.39-1.01-2.46-1.67-.89-.55-1.78-.98-2.67-1.29-1.18-.41-2.25-.71-3.21-.88-3.28-.61-6.6-.7-9.97-.27-1.42.18-2.63.52-3.63.99-.71.34-1.35.67-1.92.98-.36.2-.95.63-1.76,1.27-.81.64-1.63,1.32-2.46,2.02-.34.29-.73.15-.98-.11-.84-.83-1.87-1.63-3.09-2.4-3.24-2.04-7.49-2.73-11.05-1.11-1,.45-1.89,1.3-2.55,1.78-.52.39-.78.53-1.37.35-.44-.14-.87-.29-1.3-.47-.87-.35-1.49-.57-2.28-.85-.37-.13-.72-.22-1.05-.29-1.39-.26-2.72-.4-4-.44-2.82-.09-5.52.33-8.13,1.27-2.34.85-4.69,2.03-6.55,3.62-.17.14-.56.19-.66-.06-.38-.93,2.02-4.32,2.51-5.02.39-.54,1.2-1.62,2.43-3.22.57-.74,1.2-1.47,1.9-2.22.92-.98,1.6-1.66,2.06-2.06,1.14-.99,2.97-2.63,4.64-3.78,1.72-1.19,3.58-2.27,5.55-3.26.45-.23,1.59-.76,3.42-1.61.94-.43,2.14-.89,3.6-1.38,2.06-.68,3.98-1.22,5.76-1.61,1.74-.38,2.88-.63,3.42-.73,1.04-.19,1.67-.44,1.79-1.51.11-.95.18-1.52.24-1.7.26-.87.81-1.44,1.65-1.68.46-.14.84-.02,1.22.19.06.04.09.13.06.19-.02.03-.05.06-.08.06-1.13.37-1.69,1.24-1.39,2.44.37,1.44,1.68,2.02,3.01,2.29,1.35.28,2.79.46,4.31.53,3.29.17,6.36.23,9.64.12,1.44-.05,2.85-.18,4.26-.4,1.84-.29,3.44-.57,4.79-.85.83-.17,1.91-.46,2.69-.94.6-.37.93-.87,1.01-1.49.08-.69.04-1.35-.15-1.99-.17-.6-.55-1.23-.74-1.71-.38-.99-.5-1.92-.24-2.96.47-1.89,1.66-4.01,3.53-4.69.96-.35,1.99-.52,3.09-.53,1.17,0,2.28.35,3.35,1.06.36.24.78.77,1.26,1.02.7.37,1.49.37,2.37,0,1.08-.44,1.97-1.03,2.69-1.78,1.29-1.34,2.37-2.63,3.27-3.86.89-1.23,1.63-2.5,2.22-3.79.79-1.74,1.62-3.67,2.12-5.48.28-1,.52-2.05.71-3.17.32-1.83.6-3.73-.18-5.3-.27-.53-.68-.9-1.26-1.09-.47-.16-.88-.17-1.23-.04-.68.25-1.16.59-1.33,1.33-.03.11-.13.17-.22.16h-.04c-.08-.04-.15-.11-.2-.22-.22-.45-.2-.91.06-1.35.45-.76,1.09-1.21,1.9-1.34,1.23-.2,2.2.24,3.01-.98.21-.32.75-1.15,1.6-2.49.78-1.22,1.8-2.6,2.51-3.72.52-.84.21-2.08.11-3.02-.56-5.12-.92-8.32-1.08-9.61-.12-.94-.35-2.05-.7-3.35-.17-.66-.29-1.15-.32-1.46-.13-1.07-.17-1.69-.29-2.75-.12-1-.45-1.87-1.01-2.66-.39-.54-.64-.98-.78-1.49-.59-1.97-1.07-3.74-1.79-5.56-.54-1.4-.79-2.16-1.37-3.18-.25-.44-.91-1.19-1.47-.98-.12.05-.34.2-.65.47-.24.2-.42.43-.55.7-.5,1.04-.98,2.34-1.43,3.89-.05.15-.13.27-.25.36-.07.06-.17.04-.22-.02-.09-.1-.17-.21-.21-.35-.42-1.15-.52-2.23-.7-3.5-.12-.85-.48-1.63-.78-2.41-.03-.07-.06-.16-.06-.23-.11-.6-.21-1.29-.31-2.08-.09-.77-.41-1.23-.86-2.01-.21-.36-.51-.51-.89-.45-1.03.16-1.11,2.67-1.12,3.46-.03,2.07.11,3.7-.27,5.43-.29,1.36-.51,2.67-.62,3.64-.13,1.12-.57,2.03-1.4,2.77-.76.68-1.3,1.09-1.69,1.95-.52,1.14-.83,1.79-.91,1.95-.45.88-.64,1.74-.52,2.61.05.37.13.86.24,1.46.18,1.05-.05,1.78-.66,2.79-.56.93-1.01,1.68-1.15,2.57-.13.81-.24,1.84-.34,3.1-.06.66-.18,1.21-.4,1.64-.57,1.11-.99,1.95-1.27,2.51-.08.17-.15.35-.18.53-.3,1.35-.51,2.73-.61,4.13-.04.47-.11.84-.23,1.1-.46,1.01-.86,2.09-1.21,3.25-.05.17-.21.26-.37.22-.06-.02-.11-.07-.17-.18-.14-.3-.25-.59-.33-.87-.25-.79-.57-1.34-.96-2.14-.15-.31-.25-.55-.29-.72-.18-.71-.44-1.72-.75-3.05-.17-.73-.17-2.14-.33-3.38-.07-.5-.12-.81-.17-.93-.38-1.28-.61-2.55-.69-3.79-.09-1.42-.18-2.74-.29-3.99-.17-2.03-.25-3.84-.39-5.8-.05-.69-.11-1.16-.2-1.4-.09-.27-.29-.63-.6-1.08-.43-.64-.72-1.38-.87-2.23-.17-1-.29-2.01-.35-3.04-.09-1.59-.28-2.85-.48-3.91-.13-.67-.17-1.18-.12-1.53.13-.93.34-1.67.13-2.26-.39-1.08-1.1-2.08-1.79-2.97-.62-.79-1.16-1.93-1.23-2.95-.2-2.67-.42-5.72-.66-9.13-.06-.79-.13-1.5-.37-2.34-.31-1.1-.4-2.26-1.03-3.28-.33-.52-.84-.77-1.53-.74-.39.02-.64.21-.74.58-.26.87-.42,1.9-.86,2.75-.52,1.02-1.02,1.88-1.06,2.91,0,.29.06.87.18,1.73.11.76.23,1.36.34,1.8.14.53.12,1.03-.02,1.46-.34,1.06-.6,1.8-.69,2.83-.09,1.01-.16,2.08-.28,3.17-.35,3.16-.51,4.86-.75,6.33-.03.14-.07.26-.14.34-.07.08-.19.1-.29.03-.02,0-.03-.03-.04-.05-.06-.09-.11-.21-.13-.36-.17-1.29-.25-2.64-1.13-3.63-.22-.25-.52-.06-.65.17-.17.28-.27.64-.3,1.1-.1,1.3-.23,2.37-.38,3.2-.17.98-.3,1.89-.4,2.73-.18,1.51-.5,3.13-.95,4.88-.51,1.98-.55,4.11-.85,5.91-.1.66-.19,1.36-.27,2.11-.18,1.79-.56,3.38-1.19,4.96-.2.51-.75,1.4-1.39.73-.24-.26-.4-.52-.49-.78-.4-1.25-.67-2.62-.81-4.11-.1-1.11-.66-2.14-1.16-3.22-.24-.52-.38-1.01-.41-1.44-.11-1.49-.17-2.37-.2-2.65-.07-.76-.52-1.71-.7-2.18-.13-.32-.23-.75-.32-1.3-.19-1.18-.32-1.83-.65-2.86-.14-.42-.24-.83-.3-1.2-.35-2.11-.6-3.77-.75-5.01-.07-.62-.19-1.28-.36-2.01-.12-.55-.24-1.31-.34-2.26-.06-.49-.17-.96-.35-1.41-.2-.49-.34-.87-.43-1.15-.2-.64-.38-1.09-.52-1.34-.78-1.44-1.08-3-.87-4.67.08-.63.02-1.24-.18-1.83-.36-1.04-.58-2.03-.7-3.13-.09-.82-.29-1.96-.95-2.44-.09-.07-.23-.06-.31.02-.56.51-.94,1.13-1.13,1.88-.12.47-.2.87-.25,1.21-.35,2.39-.64,4.64-.88,6.72-.03.2-.06.38-.09.53-.33,1.23-1.54,2-2.03,3.19-.3.72-.52,1.33-.64,1.83-.49,1.9-.63,3.98-.73,5.96-.05.98-.14,1.72-.25,2.2-.16.64-.35,1.27-.56,1.88-.41,1.2-.71,2.68-.85,3.85-.16,1.26-.4,2.15-.87,3.15-.03.06-.09.08-.16.06,0,0-.02,0-.03-.02-.03-.03-.06-.06-.08-.13-.32-.72-.56-1.38-.72-2-.25-.98-.31-2.49-.66-3.55-.39-1.17-.71-2.34-.98-3.51-.14-.6-.23-1.15-.29-1.67-.18-1.75-.25-3.03-.42-5.94-.1-1.61-.38-3.14-.84-4.58-.63-1.99-1.07-4.01-1.16-5.86-.14-2.56-.22-4-.25-4.33-.08-.9-.17-1.5-.25-1.79-.36-1.29-1.67-2.27-2.89-2.73-.53-.2-1.01-.14-1.44.18-.87.66-1.36,1.38-1.91,2.5-.98,1.99-1.58,3.2-1.79,3.64-1.1,2.35-2.14,4.86-3.15,7.56-1.67,4.5-3.15,9.26-4.43,14.27-1.11,4.35-2.05,8.61-2.83,12.75-1.27,6.78-2.27,13.67-3.02,20.64-.9,8.36-1.48,16.78-1.74,25.25-.06,2.07-.06,3.87.02,5.92.1,2.65.19,4.89.29,6.73.54,10.36,1.55,20.4,3.01,30.12.36,2.39.8,5,1.33,7.8,1.72,9.26,4,18.44,7.16,27.13,1.84,5.07,4.06,9.88,6.64,14.45.18.32.46.85.84.6.44-.29.64-.76.73-1.32.07-.46.17-.87.28-1.24.27-.87.4-1.81.3-2.58-.1-.82-.3-1.92-.31-2.83,0-.56.07-1.36.24-2.39.1-.61.3-1.24.62-1.92.59-1.27.91-1.95.98-2.05.56-.89.89-1.5,1-1.83.25-.74.61-1.44,1.09-2.12.35-.5.81-.73,1.39-.69.75.05,1.09.6,1.25,1.27.07.3.19.79.35,1.46.03.13.07.25.13.36.68,1.37,1.2,2.4,1.53,3.09.29.61.36,1.26.43,1.91.12,1.13.62,1.46,1.37,2.14.97.87.97,2.39,1.54,3.48.22.42.63.88.92,1.41.45.8.79,1.37,1,1.71.54.87.69,1.86.87,2.81.06.29.17.64.36,1.07.26.6.57,1.45.92,2.55.23.74.47,1.29.69,1.65.44.7.87,1.49,1.27,2.36.29.64.58,1.18.85,1.6.57.91,1.55,1.07,2.39,1.41.48.19,1.73,1.06,2.05,1.57.32.51.52,1.16.59,1.99.03.29.18.48.49.54,1.43.31,2.98.62,4.68.89.16.03.3-.05.39-.18.2-.34.37-.62.64-.91.44-.47.79-.96,1.04-1.44.28-.53.46-.85.55-.93.4-.39.91-.8,1.47-.67.52.11,1.1.11,1.71,0,.27-.05.49,0,.66.17,1.04.98,2.2,1.76,3.48,2.33.55.25,1.18.98,1.79,1.17.75.24,1.5.04,2.2-.37.67-.4,1.1-.64,1.25-.76.27-.19.42-.47.47-.83.11-.84.31-1.51.74-2.34.07-.15.25-.54.52-1.17.62-1.44,1.32-2.66,2.1-3.67.34-.44.52-.95.54-1.53.02-.49.07-1.15.17-1.98.13-1.15.43-2,1.09-2.86.56-.74.98-1.3,1.25-1.69.06-.09.12-.19.17-.29.21-.51.4-.95.59-1.33.07-.16.27-.42.59-.79.04-.05.07-.09.09-.14.09-.17.15-.29.16-.34.32-1.28.63-2.57,1.78-3.13.35-.17.68-.13,1,.14,1.45,1.17,1.53,2.72,1.71,4.43.06.56.17,1,.35,1.33.29.56.79,1.13,1.48,1.71.62.52.91.99,1.12,1.87.14.56.45,1.56.92,2.99.07.24.17.44.28.62.42.68.91,1.27,1.43,1.96.1.14.19.29.26.45.33.82.52,1.47.56,1.94.11,1.12.23,2.06.34,2.8.17,1.07.24,2.32.42,3.5.18,1.15.86,2.34,1.44,3.2.13.19.32.38.57.53.16.1.4.15.75.16h2.9c.41,0,.63-.17.69-.56.15-.92.31-1.71.51-2.37.08-.28.18-1.1.3-2.5.06-.64.14-1.06.25-1.24.28-.48.44-.87.5-1.16.24-1.32.65-2.61,1.04-3.8.4-1.2.95-2.27,1.65-3.22.58-.79.86-1.35,1.35-2.04.62-.86,1.3-.1,2.03-.17.28-.03,1.09-.41,1.42-.17.26.19.52.48.77.86.28.4.74,1.11,1.39,2.13.04.06.25.34.62.83.53.71.76,1.52,1.03,2.34.25.77.72,1.72.98,2.33.05.1.07.2.09.31.12.66.19,1.21.24,1.67.07.71.27,1.21.59,2.16.21.63.16,1.4.17,2.06.03.95.19,1.7.5,2.44.06.16.21.25.38.24l3.19-.11c.13,0,.25-.08.3-.19.35-.68.58-1.4.68-2.14.29-2.01.48-3.83.64-5.24.08-.75.34-1.46.37-2.24.05-1.07-.1-2.37-.07-3.16.03-.69.24-1.57.64-2.68.29-.79.85-1.74,1.83-1.56.75.14,1,.63,1.33,1.25.09.17.31.25.49.17,1.09-.51,1.54-4.22,1.68-5.41.06-.48.19-1.19.42-2.13.12-.51.32-1.55.61-3.11.26-1.43,1.13-1.96,2.25-2.86.39-.31.68-.71.87-1.18.17-.41.21-.98.33-1.36.03-.1.07-.2.12-.3.23-.48.36-.81.38-.99.08-.69.17-1.39.24-2.09.04-.37.19-.77.47-1.21.54-.87.98-1.6,1.89-1.71.59-.07,1.35-.05,1.77.37.52.53,1.12,1.32,1.79,2.36.13.19.25.37.36.51.89,1.08.93,2.52,1.07,3.9.04.38.17.81.4,1.29.39.81.82,1.52,1.32,2.14.4.51.68.9.82,1.18.33.64.56,1.11.68,1.41.38.93.47,2.11.63,2.93.04.21.1.41.18.62.32.8.52,1.43.6,1.89.08.51.18,1.45.29,2.85.05.53.05.94,0,1.23-.11.98-.17,1.56-.17,1.76.02,1.21.1,2.55.25,4.04.15,1.48.39,2.72.72,3.74.14.41.22.75.25.98.1.7.17,1.51.4,1.81.31.41.75.33.94-.13.06-.15.11-.32.16-.52.25-1.12.26-1.81.41-3.44.13-1.37.49-2.49,1.04-3.5.4-.71,1.17-.7,1.91-.59.57.08.77.66.96,1.13.04.09.09.18.17.26.22.23.39.52.5.86.09.28.18.48.29.61.24.29.4.48.48.55.06.06.13.11.21.14.52.23.91.42,1.14.58.71.46,1.4,1.25,2.1,1.67.43.27.96.56,1.56.89.69.38,1.42.61,2.19.67.44.04,1.21-.05,2.27-.25,3.15-.61,5.93-1.22,8.33-1.85,3.77-.98,7.54-2.2,10.94-3.87,1.06-.52,1.87-.98,2.44-1.39,1.16-.83,2.21-1.87,3.14-3.1,4.71-6.28,8.19-13.37,10.88-20.79,1.25-3.45,2.34-6.81,3.25-10.08,1.55-5.55,2.85-11.21,3.91-16.99.29-1.58.65-3.62,1.08-6.08.17-.94.11-2.24-.52-2.95-.6-.66-1.37-1.24-2.21-1.66-1.2-.6-2.35-1.22-3.13-2.46-1.01-1.6-1.72-3.01-2.04-4.88-.22-1.27-.34-1.97-.36-2.08-.25-1.21-.7-2.32-1.36-3.36-.42-.65-.64-1.06-1.06-1.58-.2-.25-.43-.53-.71-.87-.64-.75-.99-1.64-1.3-2.57-.37-1.1-.17-2.35.12-3.41.25-.9.23-1.61-.15-2.38-.31-.64-.61-1.19-.88-1.67-.51-.87-.38-2.01-.18-2.97.19-.92.34-1.64.44-2.16.19-.97-.14-1.67-.99-2.12-1.12-.59-1.81-.97-2.07-1.11-.66-.4-1.07-.67-1.23-.86-.59-.63-.94-1.35-1.06-2.17-.22-1.55-.47-2.96-.75-4.25-.15-.69-.36-1.33-.64-1.95-.27-.58-.68-.72-1.23-.41-.15.08-.26.23-.29.4-.1.52-.22,1.23-.26,1.87-.12,2.03-.51,4.06-1.22,5.97-.07.2-.3.88-.69,2.03-.1.31-.31.81-.47,1.22-.03.06-.09.09-.15.06-.03,0-.06-.04-.06-.07l-6.19-18.57c-.04-.12,0-.24.08-.32.59-.52,1-1.15,1.24-1.9.62-1.89.32-3.58-.87-5.07-.79-.98-1.82-1.6-3.09-1.83-.09-.02-.15-.1-.13-.18v-.02c.86-2.83,1.85-6.17,2.97-10,.05-.17.19-.58.41-1.21,0-.04.05-.06.08-.06,1.14-.18,2.09-.65,2.84-1.39,1.17-1.15,1.7-2.56,1.59-4.22-.06-1.02-.45-1.98-1.14-2.86-.17-.21-.9-.75-.82-1.21,1.1-5.66,2.05-10.66,2.88-15,0,0,.05-.21.14-.59,0-.05.05-.08.08-.1.45-.23,1.01-.47,1.43-.8,1.33-1.06,2-2.47,2-4.22,0-1.99-1.12-3.77-2.91-4.64-.07-.04-.12-.11-.12-.19v-10.48c0-.1.06-.2.16-.24,2.8-1.33,4-4.68,2.42-7.4-.52-.89-1.29-1.62-2.29-2.16-.04-.02-.06-.06-.08-.09-.06-.12-.08-.25-.07-.39.02-2.38.03-5.51.02-9.37v-.74c0-.12-.06-.23-.17-.29l-.95-.47c-.06-.04-.15,0-.17.06v12.15c0,.06.04.1.09.11.64.1,1.3.49,1.94,1.16,1.33,1.38,1.36,3.56.18,5.02-.63.77-1.41,1.23-2.36,1.38-.07,0-.12.07-.12.15v12.57c0,.06.04.1.09.12,1.51.39,2.48,1.33,2.91,2.83.21.75.18,1.5-.09,2.25-.53,1.46-1.56,2.31-3.07,2.55-.16.03-.28.14-.3.29l-3.35,17.37s0,.06.04.08" vector-effect="non-scaling-stroke"/>
      <path class="st2" d="M161.56,42.61c-.77,1.02-.56,2.48.47,3.26s2.49.59,3.27-.43.56-2.48-.47-3.26-2.49-.59-3.27.43" vector-effect="non-scaling-stroke"/>
      <path class="st2" d="M169.02,66.75c0-1.29-1.05-2.34-2.34-2.34s-2.34,1.05-2.34,2.34,1.05,2.34,2.34,2.34,2.34-1.05,2.34-2.34" vector-effect="non-scaling-stroke"/>
      <path class="st2" d="M175.98,92.96c0-1.29-1.04-2.33-2.33-2.33h0c-1.29,0-2.33,1.04-2.33,2.33h0c0,1.29,1.04,2.33,2.33,2.33h0c1.29,0,2.33-1.04,2.33-2.33h0" vector-effect="non-scaling-stroke"/>
      <path class="st2" d="M183.82,117.63c0-1.29-1.04-2.33-2.33-2.33h0c-1.29,0-2.33,1.04-2.33,2.33h0c0,1.29,1.04,2.33,2.33,2.33h0c1.29,0,2.33-1.04,2.33-2.33h0" vector-effect="non-scaling-stroke"/>
      <path class="st2" d="M57.58,153.56c.18.16.19.32.03.49-.87.91-1.76,1.91-2.68,3.01-1.58,1.87-2.97,3.85-4.15,5.93-.98,1.75-2,3.69-2.72,5.53-.27.66-.53,1.41-.23,2.02.26.52.83.55,1.16.07.18-.27.4-.65.63-1.15.36-.79.72-1.7,1.1-2.48.8-1.64,1.79-3.22,2.83-4.8,1.85-2.8,3.99-5.19,6.14-7.57.59-.65,1-1.07,1.21-1.23.28-.21.59-.3.93-.27.98.11,1.11,1.11,1.2,1.88.51,4.25.98,8.07,1.41,11.47.14,1.05.27,2.48.5,3.77.09.51.24,1.34.78,1.46.55.13.84-.47.84-.95,0-.98-.02-1.78-.08-2.38-.29-2.48-.42-4.13-.73-6.29-.3-2.13-.52-3.77-.66-4.94-.15-1.25-.29-2.26-.4-3.06-.17-1.14-.66-2.45-1.72-3.08-.54-.32-1.36-.28-1.97-.17-.19.03-1.64.32-4.34.87-1.6.32-3.04.67-4.31,1.04-1.12.32-2.39.75-3.81,1.28-1.71.64-3.87,1.67-4.96,2.19-.29.14-1.12.58-2.5,1.33-.91.49-1.82,1.04-2.73,1.66-.59.4-2.72,1.8-1.64,2.63.41.31,1.01-.04,1.42-.31,1.34-.93,2.51-1.67,3.52-2.22.57-.31,1.18-.64,1.82-.98,4.15-2.21,8.6-3.85,13.22-4.76.22-.05.48-.06.76-.04.05,0,.08.02.12.05" vector-effect="non-scaling-stroke"/>
      <path class="st2" d="M113.37,152.22c-.59.09-1.01.59-.61,1.17.43.63,1.08.78,1.79.98,1.67.47,3.38.64,5.12.52.6-.05,1.28-.23,1.8-.49.45-.21.69-.52.73-.9.05-.55-.37-1.1-.99-.9-1.15.37-2.21.72-3.44.54-1.39-.2-2.64-.48-3.77-.82-.29-.09-.51-.13-.63-.1" vector-effect="non-scaling-stroke"/>
      <path class="st2" d="M107.49,163.76c-.37,1.06.64,1.67,1.63,1.53.85-.12,1.68-.03,2.63.11.48.06.81.06,1-.04.32-.16.53-.41.64-.77.18-.63.34-1.11.47-1.46.45-1.17.6-1.82.06-2.79-.22-.4-.69-.72-1.12-.56-.75.28-1.05,1.07-1,1.83.04.64.35,1.19-.24,1.73-.3.29-.78.24-1.13.09-1.02-.43-2.43-1.18-2.95.34" vector-effect="non-scaling-stroke"/>
      <path class="st2" d="M97.21,172.66c.65.61,1.29-.19,1.46-.76.68-2.17.91-4.4.7-6.7-.04-.36-.09-.71-.17-1.05-.17-.74-.98-1.41-1.68-.83-.21.17-.29.38-.25.59.35,1.56.44,3.18.26,4.84-.08.73-.23,1.43-.46,2.11-.24.71-.4,1.32.15,1.81" vector-effect="non-scaling-stroke"/>
      <path class="st2" d="M194.93,166.18c0-.55-.44-.99-.99-.99h0c-.55,0-.99.44-.99.99h0c0,.55.44.99.99.99h0c.55,0,.99-.44.99-.99h0" vector-effect="non-scaling-stroke"/>
      <path class="st2" d="M196.26,187.02c-.4-.35-1.03-.3-1.39.11h0c-.36.41-.32,1.04.08,1.4h0c.4.35,1.03.3,1.39-.11h0c.36-.41.32-1.04-.08-1.4h0" vector-effect="non-scaling-stroke"/>
      <path class="st2" d="M196.16,211.7c-.54-.06-1.03.33-1.1.87h0c-.06.55.32,1.05.86,1.11h0c.54.06,1.03-.33,1.1-.87h0c.06-.55-.32-1.05-.86-1.11h0" vector-effect="non-scaling-stroke"/>
      <path class="st2" d="M196.32,223.42c.04-.36-.22-.68-.58-.73h-.07c-.36-.05-.68.21-.73.57l-.16,1.39c-.04.36.22.68.58.73h.07c.36.05.68-.21.73-.57l.16-1.39" vector-effect="non-scaling-stroke"/>
      <path class="st2" d="M187.29,67.87c.1.02.19-.05.21-.15v-15.33c0-.31-.26-.32-.5-.38-5.7-1.34-10.78-2.54-15.21-3.59-1.41-.33-2.8-.6-4.04-1.02-.08-.03-.17,0-.23.05l-1.11.94s-.03.03-.04.05c-.07.16-.1.3-.08.45.29,2.17.74,5.28,1.32,9.36.16,1.07.29,2.13.42,3.18.02.14.1.26.22.32.36.18.76.29,1.11.52,1.1.7,1.86,1.62,2.26,2.77.05.13.16.21.29.24l15.38,2.6" vector-effect="non-scaling-stroke"/>
      <path class="st2" d="M183.41,92.75s.05-.11.06-.18c.15-.81,1.38-7.16,3.68-19.05.08-.45.23-.88-.3-.98-4.61-.76-9.76-1.64-15.43-2.6-.2-.04-.34-.04-.4-.02-.32.12-.9.64-.93.98-.02.17,0,.29,0,.38,1.28,4.85,2.69,10.23,4.22,16.14.06.2.15.32.29.36,1.82.4,3.09,1.39,3.83,2.96.13.28.19.7.39.95.03.04.06.06.1.08.17.07.36.14.57.18,1.13.28,2.35.58,3.64.91.11.03.23-.02.29-.12" vector-effect="non-scaling-stroke"/>
      <path class="st2" d="M153.74,87.57c-.44-.06-1.18.13-1.51.22-3.34.92-6.42,2.04-9.73,3.32-1.71.66-3.21,1.33-4.49,2-1.93,1.01-3.36,1.81-4.28,2.42-1.39.91-3.05,2.22-4.97,3.93-.55.5-1.17,1.1-1.83,1.83-1.16,1.26-1.74,1.9-1.75,1.91-2.06,2.33-3.49,4.85-5.17,7.74-.12.2-.2.4-.26.59-.04.14.05.29.19.32h.09c.17-.02.37-.07.58-.17,2.02-.95,3.85-1.67,5.46-2.18,2.48-.78,5.07-1.42,7.74-1.89,1.66-.29,3.51-.38,5.55-.27.49.03.94.08,1.34.17.77.17,1.21.26,1.33.29.46.12.75-.04.87-.48.06-.25.19-.7.24-1,.38-2.58,1.04-4.97,1.99-7.18.57-1.33,1.45-2.93,2.67-4.8,1.4-2.17,3.41-4.26,5.28-5.87.36-.3.61-.56.75-.75.04-.05.02-.11-.03-.15,0,0-.03-.02-.05-.02" vector-effect="non-scaling-stroke"/>
      <path class="st2" d="M179.98,105.06c.08-.12.15-.25.18-.39.1-.32.75-2.46,1.92-6.4.06-.21.09-.39.08-.52,0-.16-.12-.28-.27-.31-1.81-.45-3.09-.77-3.85-.97-.4-.1-.98.07-.79.62.54,1.63,1.14,3.68,1.69,5.34.33.98.54,1.67.64,2.08.04.16.11.33.2.53.03.06.08.07.14.06.02,0,.03-.02.05-.04" vector-effect="non-scaling-stroke"/>
      <path class="st2" d="M172.4,218.87s-.04-.07-.07-.07c-.45-.02-.81,0-1.21-.11-1.43-.43-2.29-1.88-1.62-3.3.52-1.1,1.59-1.31,2.7-1.42.06,0,.1-.06.09-.11l-.67-18.64c0-.06-.05-.1-.1-.09h-.03c-.73.21-1.4.1-2.03-.33-.95-.65-1.28-2.02-.73-3.02.55-1.01,1.49-1.27,2.57-1.35.05,0,.08-.05.08-.09l-.29-16.66c0-.14-.11-.25-.25-.25-.56-.02-1.02,0-1.44-.16-.47-.18-1.22-.89-1.35-1.43-.3-1.25.05-2.16,1.04-2.75.55-.32,1.17-.4,1.81-.52.1-.02.17-.1.18-.2.05-.37.07-.79.09-1.27.1-2.68.24-5.3.42-7.86.17-2.33.47-5.61.9-9.88,0-.05,0-.09-.05-.12-.21-.17-.4-.06-.62-.08-1.33-.09-2.39-1.45-2.1-2.78.15-.67.52-1.19,1.1-1.56.5-.3,1.38-.42,1.85-.55.6-.16.54-.72.62-1.22.94-6.57,2.3-13.08,4.1-19.53.18-.67.38-1.29.56-1.84,0-.04,0-.07-.02-.1l-1.02-1.32c-.04-.06-.12-.06-.17-.02-.02.02-.04.04-.04.06-1.88,6.25-3.35,12.65-4.44,19.19-.22,1.33-.4,2.49-.54,3.5,0,.07-.06.13-.13.15-.52.14-.8.18-1.22.39-1.58.78-2.29,2.39-1.96,4.09.25,1.31,1.17,2.13,2.33,2.74.06.03.08.08.07.15-.55,5.38-1.01,10.84-1.18,16.46,0,.32-.17.52-.48.6-1.29.34-2.31,1.49-2.55,2.81-.39,2.08.87,3.73,2.84,4.33.04,0,.06.05.06.09l.25,14.32c0,.11-.06.2-.17.24-1.22.44-2.16,1.45-2.46,2.72-.22.95-.06,1.87.51,2.76.53.87,1.32,1.4,2.34,1.62.11.02.18.12.18.23,0,1.29.1,2.8.12,4.2.03,2.06.11,4.63.24,7.69.06,1.44.06,2.83.03,4.06,0,.12-.08.23-.19.28-1.61.64-2.5,1.91-2.44,3.68.05,1.22.61,2.21,1.69,2.95.42.29.89.37,1.34.54.04.02.06.05.07.09l.67,4.81c0,.07-.02.15-.07.2-.68.64-1.01,1.26-.85,2.22.22,1.35.42,2.54,1.96,2.9.4.09.76-.05,1.11-.18.55-.22.92-.63,1.1-1.21.1-.32.15-.56.14-.73-.06-.98-.29-2.45-1.2-3.02-.18-.11-.4-.17-.63-.28-.04-.02-.07-.05-.09-.08-.08-.15-.14-.27-.16-.37-.31-1.77-.53-3.63-.66-5.58" vector-effect="non-scaling-stroke"/>
      <path class="st2" d="M184.76,141.3c.06-.1.14-.3.23-.61.18-.62.7-1.29,1.13-1.75.03-.03.05-.06.06-.1.05-.12.04-.28-.03-.47-1.13-3.34-2.55-7.78-3.97-11.97-.28-.82-.63-1.88-1.04-3.18-.07-.22-.19-.35-.37-.4-.49-.11-.97-.24-1.43-.4-.09-.03-.19.02-.23.11h0c-1.81,6.36-3.22,12.77-4.22,19.25-.07.51-.16,1.07-.23,1.68,0,.1.06.18.16.2.04,0,.09,0,.17-.02,4.62-1.1,7.85-1.88,9.67-2.31.05,0,.08-.04.11-.08" vector-effect="non-scaling-stroke"/>
      <path class="st2" d="M101.82,132.88c.1-.07.14-.22.11-.42-.22-1.83-.51-3.49-1.85-4.81-.4-.4-.74-.58-1.2-.17-.14.12-.25.29-.32.52-.29.77-.31,1.42-.17,2.28.03.13.1.59.23,1.39.11.65.04,1.33-.2,2.02-.06.16.02.33.17.4h.03c.13.07.29.02.35-.12v-.04c.31-1,.52-1.9.64-2.67.06-.42.52-.94.95-.52.49.5.75,1.34.97,2.01.04.11.14.17.24.16.02,0,.04-.02.06-.03" vector-effect="non-scaling-stroke"/>
      <path class="st2" d="M88.54,144.13c0-.41-.76-.68-1-.85-.5-.34-1.07-1.01-.47-1.54.17-.15.38-.24.61-.26.87-.07,1.55-.16,2.06-.24.12-.02.2-.12.2-.24s-.06-.19-.17-.21c-1.11-.21-2.23-.48-3.29-.92-.24-.1-.6-.2-1.09-.32-.66-.16-1.26-.06-1.79.28-.46.3-.55.8-.2,1.26.51.66,1.18,1.2,1.94,1.75.33.24.74.48,1.21.72.71.35,1.32.73,1.86.72.07,0,.14-.06.14-.14h0" vector-effect="non-scaling-stroke"/>
      <path class="st2" d="M190.65,142.6c0-.44-.36-.79-.79-.79s-.79.36-.79.79.36.79.79.79h0c.44,0,.79-.36.79-.79h0" vector-effect="non-scaling-stroke"/>
      <path class="st2" d="M175.27,148.55c.02.31.12.59.31.83.81,1.04,1.33,1.8,1.6,2.89.26,1.02.5,1.93.74,2.75.14.49.27.79.37.93.6.74,1.06,1.53,1.4,2.39.23.58.39,1.44.49,1.91.16.74.36,1.34.71,1.97.51.9.82,1.48.92,1.74.02.04.05.07.08.1.25.17.43.14.58-.1.21-.35.38-.81.43-1.22.12-.87.24-1.81.4-2.63.13-.66.36-1.27.58-1.95.06-.16.13-.48.23-.98.26-1.27.64-2.58,1.12-3.92.7-1.93,1.87-3.79,3.02-5.45.05-.06.03-.15-.04-.19,0,0-.02,0-.03-.02-.9-.33-1.69-.86-2.36-1.57-.04-.04-.09-.06-.14-.05l-10.36,2.48s-.06.05-.06.08" vector-effect="non-scaling-stroke"/>
      <path class="st2" d="M164.23,44c0-.44-.36-.8-.8-.8h0c-.44,0-.8.36-.8.8h0c0,.44.36.8.8.8h0c.44,0,.8-.36.8-.8h0" vector-effect="non-scaling-stroke"/>
      <path class="st2" d="M167.48,66.75c0-.44-.36-.79-.79-.79s-.79.36-.79.79.36.79.79.79.79-.36.79-.79" vector-effect="non-scaling-stroke"/>
      <path class="st2" d="M174.5,92.91c0-.44-.36-.8-.8-.8h0c-.44,0-.8.36-.8.8h0c0,.44.36.8.8.8h0c.44,0,.8-.36.8-.8h0" vector-effect="non-scaling-stroke"/>
      <path class="st2" d="M182,116.99c-.34-.28-.84-.22-1.12.13h0c-.29.35-.24.85.1,1.12s.84.22,1.12-.13h0c.29-.35.24-.85-.1-1.12" vector-effect="non-scaling-stroke"/>
      <path class="st2" d="M172.72,226.24c-.61.11-.58.75-.45,1.46s.32,1.33.93,1.21c.61-.11.58-.75.45-1.46s-.32-1.33-.93-1.21" vector-effect="non-scaling-stroke"/>
    </g>
    <path d="M119.03,17.85c2.79,0,3.78-.04,5.6.06.4.02,1.01.05,1.82.06,9.15.21,18.3.74,27.44,1.57,5.08.46,10.01,1.05,14.79,1.77,4.18.63,7.93,1.33,11.25,2.08,4.34.99,8.13,2.05,12.01,3.65,2.12.87,4.22,1.96,6.06,3.4.62.49,1.35,1.19,2.21,2.12,3.07,3.36,5.67,7.18,7.82,11.17,3.58,6.64,6.31,13.72,8.42,21,1.64,5.64,3.01,11.34,4.11,17.07,1.47,7.66,2.6,15.51,3.41,23.54.66,6.62,1.12,12.77,1.36,18.47.06,1.21.13,3.17.22,5.89.06,1.6.05,3.2.05,4.93s.02,3.33-.05,4.93c-.09,2.71-.17,4.68-.22,5.89-.25,5.7-.7,11.85-1.36,18.47-.81,8.03-1.95,15.88-3.41,23.54-1.1,5.73-2.47,11.43-4.11,17.07-2.12,7.28-4.84,14.37-8.42,21-2.15,3.99-4.75,7.82-7.82,11.18-.86.93-1.59,1.64-2.21,2.12-1.84,1.44-3.94,2.52-6.06,3.4-3.88,1.6-7.67,2.66-12.01,3.65-3.32.76-7.07,1.45-11.25,2.08-4.79.72-9.71,1.31-14.79,1.77-9.15.84-18.3,1.36-27.44,1.57-.81.02-1.42.04-1.82.06-1.82.09-2.82.06-5.6.06s-3.78.04-5.6-.06c-.4-.02-1.01-.05-1.82-.06-9.15-.21-18.3-.74-27.44-1.57-5.08-.46-10.01-1.05-14.79-1.77-4.18-.63-7.93-1.33-11.25-2.08-4.34-.99-8.13-2.05-12.01-3.65-2.12-.87-4.22-1.96-6.06-3.4-.62-.49-1.35-1.19-2.21-2.12-3.07-3.36-5.67-7.18-7.82-11.17-3.58-6.64-6.31-13.72-8.42-21-1.64-5.65-3.01-11.34-4.11-17.07-1.47-7.66-2.6-15.51-3.41-23.54-.66-6.62-1.12-12.77-1.36-18.47-.06-1.21-.13-3.17-.22-5.89-.06-1.6-.05-3.19-.05-4.93s0-3.33.05-4.93c.09-2.71.17-4.68.22-5.89.25-5.7.7-11.85,1.36-18.47.81-8.03,1.95-15.88,3.41-23.54,1.1-5.73,2.47-11.43,4.11-17.07,2.12-7.28,4.84-14.37,8.42-21,2.15-3.99,4.75-7.82,7.82-11.17.86-.93,1.59-1.64,2.21-2.12,1.84-1.44,3.94-2.52,6.06-3.4,3.88-1.6,7.67-2.66,12.01-3.65,3.32-.76,7.07-1.45,11.25-2.08,4.79-.72,9.71-1.31,14.79-1.77,9.15-.84,18.3-1.36,27.44-1.57.81-.02,1.42-.04,1.82-.06,1.82-.09,2.82-.06,5.6-.06h0ZM186.57,92.22c1.13.58,1.86,1.43,2.18,2.54.63,2.14-.66,4.23-2.77,4.79-.41.11-.69.08-1.21.11-.05,0-.09.04-.1.08l-3.06,10.16s-.02.05-.04.06c-.1.12-.19.09-.26-.1-.18-.52-.36-1.1-.52-1.73-.07-.32-.06-.65.04-1.01.44-1.5,1.33-4.47,2.66-8.94.05-.15.2-.24.35-.21.76.16,1.79.24,2.42-.18.78-.52,1.24-1.55,1.03-2.42-.24-1.01-.92-1.66-2.02-1.94-.39-.1-.54-.3-.48-.62.26-1.24.49-2.38.68-3.41,1.32-6.86,2.33-12.1,3.04-15.73.07-.38.08-.61.47-.67.3-.05.77.02,1.13-.07,1.4-.36,2.16-1.74,1.67-3.09-.45-1.22-1.45-1.46-2.65-1.66-.22-.04-.33-.17-.33-.4,0-3.41.02-8.43.03-15.08v-.16c0-.06.06-.11.12-.11h.02c.88.21,1.75.16,2.42-.51.51-.51.92-1.38.72-2.11-.13-.47-.39-1.12-.81-1.42-.65-.45-1.1-.51-2.06-.74-.1-.03-.17-.11-.17-.22v-13.98c0-.07-.05-.14-.11-.17l-1.19-.51s-.1,0-.12.05v14.27c0,.06-.06.12-.12.12h-.03l-18.86-4.44s-.07-.04-.08-.07c-.09-.26-.17-.46-.23-.62-.47-1.2-1.3-2.1-2.47-2.71-.24-.12-.35-.34-.35-.64.02-1.32.03-4.95.02-10.92v-.26s-.03-.06-.06-.07l-1.13-.19s-.08.02-.09.06v12.72s.03.09.07.11c.23.13.7.25,1.04.44,1.23.74,1.91,1.86,2.02,3.37,0,.04.03.07.06.08.22.07.92.25,2.1.52,11.68,2.75,18.52,4.37,20.52,4.84.86.2.52,1.78-.48,1.55-9.27-2.18-16-3.77-20.23-4.78-1.03-.25-1.74-.42-2.14-.53-.13-.04-.27.03-.32.14-.43.86-1.15,1.42-2.02,1.8-.07.04-.12.11-.11.19l2.07,14.73c.03.17.16.3.32.33,1.48.25,2.52,1.06,3.14,2.44.14.3.21.64.24,1.04,0,.12.09.22.21.25.33.06.73.14,1.19.22,7.4,1.26,13.2,2.25,17.41,2.95.37.06.62.14.75.24.46.34.37,1.14-.14,1.35-.14.06-.4.06-.79,0-5.14-.88-11.4-1.93-18.78-3.16-.07,0-.14.03-.17.09-.25.65-.67,1.19-1.27,1.6-.36.25-.5.47-.39.89,2.42,9.18,3.95,15.05,4.61,17.59.06.2.13.4.22.56.06.09.15.15.25.16.5.02.89.04,1.32.18,1.27.44,2.09,1.33,2.47,2.65.09.32.08.61.11.97,0,.08.06.16.15.17,3.1.81,5.49,1.41,7.15,1.81.46.11.74.22.83.34.29.34.28,1.14-.26,1.3-.22.06-.47.06-.75,0-2.63-.68-5.11-1.31-7.42-1.89-.03,0-.06,0-.07.04-.33.67-.78,1.2-1.34,1.56-.1.06-.12.21-.06.42,2.11,6.76,3.69,11.77,4.74,15.04.24.76.42,1.4.55,1.92,0,.03.03.05.06.05,2.05.04,3.66,1,4.21,3.06.42,1.59-.4,3.25-1.68,4.17-.08.06-.12.17-.08.27l6.3,18.89c.03.08-.02.17-.1.19h-.02c-.58.11-1.06.32-1.41.65-1.28,1.19-.92,3.09.65,3.83.56.26,1.33.17,2.02.17.14,0,.25.09.29.22,1.38,5.9,2.42,11.84,3.12,17.79.02.17.04.38.05.59,0,.09.06.17.15.19,2.24.66,2.65,3.45.63,4.68-.05.03-.08.06-.1.12-.06.14-.07.28-.06.43.25,2.37.48,4.74.68,7.09.16,1.79.33,4.86.53,9.21,0,.03.02.06.06.07,2.25.8,2.55,3.6.4,4.74-.14.07-.22.21-.23.38-.04,2.63.16,5.47.15,7.89,0,2.88-.03,4.06.07,6.54.06,1.27.06,2.88.03,4.85,0,.15.02.29.06.43.02.06.06.1.11.13.36.18.64.28.88.51.4.38.64.8.73,1.27.26,1.45-.28,2.47-1.6,3.04-.1.05-.17.15-.17.26.03,1.91-.06,3.87-.28,5.86-.02.16.06.31.19.39,1.03.6,1.06,1.44.96,2.5-.06.67-.13,1.42-.52,1.9-1.05,1.32-3.4.82-3.61-.93-.09-.78-.03-1.55.19-2.31.21-.73.72-1.14,1.37-1.45.06-.03.08-.07.09-.14.16-1.96.26-3.6.3-4.91,0-.26,0-.52-.02-.78,0-.16-.1-.29-.24-.38-.55-.31-1.1-.56-1.35-1.05-.04-.07-.11-.11-.19-.1-7.59,1.1-14.84,2.16-21.73,3.2-.38.06-.64.06-.76,0-.48-.25-.57-.95-.25-1.34.08-.11.31-.19.68-.25,5.69-.87,12.96-1.99,21.82-3.38.09,0,.17-.07.18-.17.22-.74.72-1.31,1.49-1.72.06-.03.09-.09.09-.16,0-2.52,0-4.48-.1-7.5-.07-1.97,0-3.97-.1-6.15-.09-2.11-.06-4.1-.06-6.13,0-.09-.06-.17-.16-.2-.5-.13-.9-.42-1.21-.89-.05-.06-.13-.1-.2-.08-5.73,1.14-13.15,2.62-22.26,4.45-.64.13-1.15-.1-1.15-.84,0-.4.25-.66.74-.75.65-.13,1.1-.21,1.35-.27,8.74-1.82,15.69-3.28,20.85-4.37.1-.02.17-.09.2-.18.23-.78.72-1.36,1.47-1.75.06-.03.1-.09.1-.17,0-1-.03-2.01-.08-3-.24-4.52-.62-9.02-1.13-13.51,0-.07-.06-.13-.13-.15-.63-.18-1.1-.51-1.43-.95-.06-.09-.18-.14-.29-.11-.75.17-1.52.35-2.33.5-3.7.71-7.76,1.52-12.18,2.43-3.23.66-5.41,1.12-6.54,1.38-1.26.29-1.56-1.39-.39-1.64,5.91-1.25,12.83-2.71,20.75-4.36.18-.04.38-.03.52-.11.04-.03.07-.06.07-.11.13-.81.52-1.26,1.2-1.72.06-.04.09-.09.11-.16.05-.16.06-.35.04-.58-.64-5.58-1.6-11.14-2.88-16.68,0-.03-.03-.05-.06-.05-1.1-.03-2.03-.4-2.8-1.13-.29-.28-.54-.71-.87-1-.04-.04-.1-.06-.15-.04-4.75,1.1-9.36,2.21-13.85,3.3-.55.14-.98-.3-.98-.86,0-.4.24-.66.71-.76.76-.17,1.21-.28,1.33-.31,2.34-.57,4.65-1.11,6.92-1.64,2.29-.52,4.16-.97,5.6-1.33.06,0,.09-.06.1-.11.05-.22.09-.48.15-.76.2-1.07.83-1.91,1.76-2.51.05-.03.06-.08.05-.14l-5.88-17.62s-.04-.05-.06-.05c-.73,0-1.36-.06-2.02-.34-2.87-1.25-3.06-5.18-.5-6.84.12-.08.17-.23.14-.38l-5.37-17.03c-.03-.07-.09-.13-.17-.13-.25,0-.47-.02-.67-.02-.85-.02-1.67-.4-2.27-.95-1.59-1.47-1.73-3.88-.25-5.52.18-.2.77-.54.91-.99.02-.06.02-.14,0-.2l-4.71-18.16c-.04-.16-.17-.28-.34-.29-1.58-.13-2.71-.8-3.39-2.02-.94-1.7-.52-3.68.93-4.91.14-.12.44-.31.91-.56.04-.02.06-.05.09-.08.07-.12.09-.26.07-.4-1.16-8.22-1.84-13.08-2.06-14.59,0-.09-.08-.17-.17-.18-1.67-.29-2.78-1.19-3.3-2.69-.42-1.2-.2-2.54.6-3.52.51-.62,1.07-1.05,1.67-1.29.29-.11.45-.17.51-.19.08-.04.14-.11.14-.2v-12.88s0-.02-.02-.02l-1.24-.21s-.04,0-.04.03h0v11.9c0,.19-.07.33-.22.41-1.57.87-2.55,2.14-2.91,3.82-.14.64-.13,1.31.03,1.99.47,1.97,1.67,3.3,3.6,3.99.06.03.11.08.13.16l1.79,12.78v.07c-.02.21-.1.37-.25.47-1.49,1.04-2.4,3.23-2.08,5.02.33,1.85,1.55,3.45,3.33,4.08.36.13.63.22.79.29.17.06.29.2.33.37,1.72,6.52,3.13,11.86,4.22,16.04.06.27.07.49.03.67,0,.05-.04.08-.06.11-1.31,1.19-1.86,2.69-1.67,4.49.26,2.37,2.27,4.26,4.54,4.56.1,0,.17.08.21.17l4.35,13.8c.06.17.06.36,0,.53-.58,1.89-1.02,3.17-1.51,4.97-.4,1.46-.84,2.98-1.29,4.55-.61,2.07-1.06,3.99-1.59,6.1-.31,1.21-.8,3.46-1.45,6.73-.02.1-.04.17-.06.2-.02.04-.07.06-.11.03-.02,0-.03-.03-.04-.05-.49-1.93-.74-2.92-.76-2.97-.05-.14-.08-.34-.11-.61-.19-1.69-.26-2.7-.52-4.1-.14-.78-.22-1.31-.24-1.55-.06-.94-.16-2.38-.29-4.34-.05-.61-.3-1.77-.96-1.94-.76-.21-1.14,1.15-1.19,1.7-.08.99-.15,2.16-.2,3.5-.02.61-.11,1.89-.27,3.85-.06.74-.24,1.27-.36,1.97-.07.42-.2.91-.4,1.44-.47,1.28-1,2.46-1.6,3.53-.06.12-.22.17-.35.1,0,0-.03-.02-.04-.03-.16-.12-.27-.3-.36-.54-.35-.99-.75-1.81-1.2-2.48-.65-.97-.95-1.75-1.22-2.82-.19-.75-.39-1.49-.56-2.23-.22-.88-.49-1.64-.79-2.57-.13-.39-.45-1.11-.78-1.46-.2-.22-.53.03-.61.22-.38,1.05-.8,2.34-1.27,3.87-.33,1.09-.7,2.11-1.11,3.07-.18.42-.35.89-.42,1.24-.24,1.1-.4,1.86-.48,2.27-.2.98-.58,1.81-.93,2.79-.34.96-.54,1.93-.6,2.95-.06,1.04-.2,3.33-.43,6.87-.05.75-.11,1.32-.19,1.67-.02.06-.15.62-.4,1.65-.13.52-.41.88-.86,1.1-.49.24-1.03-.46-1.15-.85-.22-.71-.29-1.15-.57-1.83-.14-.33-.23-.67-.29-1.04-.09-.53-.21-1.31-.37-2.32-.03-.18-.18-.64-.45-1.37-.41-1.11-.64-2.02-.46-3.04.14-.85.23-1.46.28-1.86.13-1.15-.06-2.24-.54-3.25-.46-.96-.76-1.57-.9-1.87-.39-.79-.71-1.75-.92-2.36-.22-.62-.35-1.14-.4-1.56-.21-2.06-.34-3.41-.41-4.03-.06-.48-.2-1.06-.45-1.76-1.01-2.82-1.64-4.57-1.91-5.26-.43-1.14-1.1-2.6-1.61-3.53-.43-.77-.99-1.47-1.67-2.09-.12-.11-.15-.29-.06-.41.05-.06.13-.12.25-.16.52-.14.93-.25,1.21-.31,1.73-.41,2.88-2.31,3.12-3.99.24-1.6.52-3.11.82-4.53.13-.58.25-1.02.35-1.3.4-1.11.68-2.14,1.17-3.16,1.17-2.38,2.54-4.74,4.33-6.72,1.19-1.31,2.37-2.51,3.54-3.61.88-.82,1.91-1.55,3.06-2.17.21-.11.38-.25.51-.4.09-.11.08-.27-.02-.37-.41-.4-1.64-.49-2.28-.52-1.81-.06-3.66.14-5.53.59-1.58.39-3.09.86-4.53,1.39-2.66,1-4.01,1.51-4.05,1.53-2.21.86-4.55,1.97-7.02,3.34-2.82,1.56-5.46,3.56-7.68,5.68-1.47,1.4-2.76,2.76-3.87,4.09-.82.98-1.46,1.81-1.91,2.5-1.3,1.96-2.48,3.86-3.54,5.69-1.05,1.81-.82,3.41.69,4.79.43.4.87.76,1.33,1.11,1.58,1.21,2.5,1.88,3.7,2.93.57.51,1.8,1.55,3.68,3.11,1.61,1.34,3.11,2.9,4.47,4.67.29.38.59.69.88.94.15.12.33.11.54-.03.42-.29.52-.76.33-1.27-.29-.73-.67-1.37-1.16-1.91-1.24-1.41-2.9-2.95-4.56-4.32-1.46-1.21-3.24-2.82-5-4.16-.73-.56-1.46-1.15-2.2-1.77-.17-.15-.29-.29-.35-.45-.05-.14,0-.29.13-.38.17-.11.36-.21.56-.31.88-.43,2-.92,3.36-1.47.97-.4,2.13-.77,3.49-1.14,1.85-.51,3.43-.89,4.75-1.17,1.38-.29,2.51-.46,3.41-.52,1.64-.1,3.4-.12,4.99.26.51.12.96.59.42,1.05-.14.12-.29.19-.43.22-1.52.31-2.86,1-4.03,2.06-.75.69-1.3,1.59-1.77,2.41-.95,1.64-1.47,3.75-1.3,5.74.14,1.56.33,2.84.94,4.08.42.87.69,1.61.8,2.22.17.92-.46,1.95-1.13,2.51-.57.49-1.06.87-1.48,1.25-.7.64-1.38,1.24-2.03,1.8-1.89,1.6-3.46,3.33-4.68,5.38-.41.69-.9,1.6-1.47,2.75-.43.87-.73,1.57-.88,2.14-.38,1.32-.7,2.83-.97,4.53-.25,1.6-.2,3.03.07,4.49.08.45.29.75.64.92.89.43,1.7.09,2.93-.21.61-.15,1.21-.1,1.8.16.84.36,1.33.99,1.48,1.9.06.4-.06.72-.38.94-.08.06-.2.04-.26-.05,0,0,0-.02-.02-.03-.2-.47-.52-.84-.93-1.1-.64-.4-1.69-.19-2.41-.03-.9.21-1.64.43-2.22.68-2.66,1.13-4.84,2.88-6.55,5.24-.39.53-.71,1.1-.98,1.72-.46,1.06-.84,2.07-1.12,3.16-.14.53-.24.86-.29.98-.34.78-.92,1.11-1.73,1.01-1.09-.14-2.21-.17-2.6-.19-1.71-.11-3.59.11-5.19.85-.88.4-1.47.69-1.77.86-.75.43-1.49.97-2.21,1.58-1.27,1.1-2.22,2.15-2.86,3.63-.27.62-.64,1.54-1.09,2.77-.24.66-.37,1.07-.38,1.23-.03.71.29,1.08.74,1.57.08.09.07.23-.02.3,0,0-.02.02-.03.02-.23.14-.49.16-.77.06-.56-.2-.96-.56-1.19-1.06-.31-.67-.4-1.2-.13-1.91.26-.66.44-1.33.55-1.99.18-1.1-.14-2-.98-2.67-.57-.46-1.39-1.01-2.46-1.67-.89-.55-1.78-.98-2.67-1.29-1.18-.41-2.25-.71-3.21-.88-3.28-.61-6.6-.7-9.97-.27-1.42.18-2.63.52-3.63.99-.71.34-1.35.67-1.92.98-.36.2-.95.63-1.76,1.27-.81.64-1.63,1.32-2.46,2.02-.34.29-.73.15-.98-.11-.84-.83-1.87-1.63-3.09-2.4-3.24-2.04-7.49-2.73-11.05-1.11-1,.45-1.89,1.3-2.55,1.78-.52.39-.78.53-1.37.35-.44-.14-.87-.29-1.3-.47-.87-.35-1.49-.57-2.28-.85-.37-.13-.72-.22-1.05-.29-1.39-.26-2.72-.4-4-.44-2.82-.09-5.52.33-8.13,1.27-2.34.85-4.69,2.03-6.55,3.62-.17.14-.56.19-.66-.06-.38-.93,2.02-4.32,2.51-5.02.39-.54,1.2-1.62,2.43-3.22.57-.74,1.2-1.47,1.9-2.22.92-.98,1.6-1.66,2.06-2.06,1.14-.99,2.97-2.63,4.64-3.78,1.72-1.19,3.58-2.27,5.55-3.26.45-.23,1.59-.76,3.42-1.61.94-.43,2.14-.89,3.6-1.38,2.06-.68,3.98-1.22,5.76-1.61,1.74-.38,2.88-.63,3.42-.73,1.04-.19,1.67-.44,1.79-1.51.11-.95.18-1.52.24-1.7.26-.87.81-1.44,1.65-1.68.46-.14.84-.02,1.22.19.06.04.09.13.06.19-.02.03-.05.06-.08.06-1.13.37-1.69,1.24-1.39,2.44.37,1.44,1.68,2.02,3.01,2.29,1.35.28,2.79.46,4.31.53,3.29.17,6.36.23,9.64.12,1.44-.05,2.85-.18,4.26-.4,1.84-.29,3.44-.57,4.79-.85.83-.17,1.91-.46,2.69-.94.6-.37.93-.87,1.01-1.49.08-.69.04-1.35-.15-1.99-.17-.6-.55-1.23-.74-1.71-.38-.99-.5-1.92-.24-2.96.47-1.89,1.66-4.01,3.53-4.69.96-.35,1.99-.52,3.09-.53,1.17,0,2.28.35,3.35,1.06.36.24.78.77,1.26,1.02.7.37,1.49.37,2.37,0,1.08-.44,1.97-1.03,2.69-1.78,1.29-1.34,2.37-2.63,3.27-3.86.89-1.23,1.63-2.5,2.22-3.79.79-1.74,1.62-3.67,2.12-5.48.28-1,.52-2.05.71-3.17.32-1.83.6-3.73-.18-5.3-.27-.53-.68-.9-1.26-1.09-.47-.16-.88-.17-1.23-.04-.68.25-1.16.59-1.33,1.33-.03.11-.13.17-.22.16h-.04c-.08-.04-.15-.11-.2-.22-.22-.45-.2-.91.06-1.35.45-.76,1.09-1.21,1.9-1.34,1.23-.2,2.2.24,3.01-.98.21-.32.75-1.15,1.6-2.49.78-1.22,1.8-2.6,2.51-3.72.52-.84.21-2.08.11-3.02-.56-5.12-.92-8.32-1.08-9.61-.12-.94-.35-2.05-.7-3.35-.17-.66-.29-1.15-.32-1.46-.13-1.07-.17-1.69-.29-2.75-.12-1-.45-1.87-1.01-2.66-.39-.54-.64-.98-.78-1.49-.59-1.97-1.07-3.74-1.79-5.56-.54-1.4-.79-2.16-1.37-3.18-.25-.44-.91-1.19-1.47-.98-.12.05-.34.2-.65.47-.24.2-.42.43-.55.7-.5,1.04-.98,2.34-1.43,3.89-.05.15-.13.27-.25.36-.07.06-.17.04-.22-.02-.09-.1-.17-.21-.21-.35-.42-1.15-.52-2.23-.7-3.5-.12-.85-.48-1.63-.78-2.41-.03-.07-.06-.16-.06-.23-.11-.6-.21-1.29-.31-2.08-.09-.77-.41-1.23-.86-2.01-.21-.36-.51-.51-.89-.45-1.03.16-1.11,2.67-1.12,3.46-.03,2.07.11,3.7-.27,5.43-.29,1.36-.51,2.67-.62,3.64-.13,1.12-.57,2.03-1.4,2.77-.76.68-1.3,1.09-1.69,1.95-.52,1.14-.83,1.79-.91,1.95-.45.88-.64,1.74-.52,2.61.05.37.13.86.24,1.46.18,1.05-.05,1.78-.66,2.79-.56.93-1.01,1.68-1.15,2.57-.13.81-.24,1.84-.34,3.1-.06.66-.18,1.21-.4,1.64-.57,1.11-.99,1.95-1.27,2.51-.08.17-.15.35-.18.53-.3,1.35-.51,2.73-.61,4.13-.04.47-.11.84-.23,1.1-.46,1.01-.86,2.09-1.21,3.25-.05.17-.21.26-.37.22-.06-.02-.11-.07-.17-.18-.14-.3-.25-.59-.33-.87-.25-.79-.57-1.34-.96-2.14-.15-.31-.25-.55-.29-.72-.18-.71-.44-1.72-.75-3.05-.17-.73-.17-2.14-.33-3.38-.07-.5-.12-.81-.17-.93-.38-1.28-.61-2.55-.69-3.79-.09-1.42-.18-2.74-.29-3.99-.17-2.03-.25-3.84-.39-5.8-.05-.69-.11-1.16-.2-1.4-.09-.27-.29-.63-.6-1.08-.43-.64-.72-1.38-.87-2.23-.17-1-.29-2.01-.35-3.04-.09-1.59-.28-2.85-.48-3.91-.13-.67-.17-1.18-.12-1.53.13-.93.34-1.67.13-2.26-.39-1.08-1.1-2.08-1.79-2.97-.62-.79-1.16-1.93-1.23-2.95-.2-2.67-.42-5.72-.66-9.13-.06-.79-.13-1.5-.37-2.34-.31-1.1-.4-2.26-1.03-3.28-.33-.52-.84-.77-1.53-.74-.39.02-.64.21-.74.58-.26.87-.42,1.9-.86,2.75-.52,1.02-1.02,1.88-1.06,2.91,0,.29.06.87.18,1.73.11.76.23,1.36.34,1.8.14.53.12,1.03-.02,1.46-.34,1.06-.6,1.8-.69,2.83-.09,1.01-.16,2.08-.28,3.17-.35,3.16-.51,4.86-.75,6.33-.03.14-.07.26-.14.34-.07.08-.19.1-.29.03-.02,0-.03-.03-.04-.05-.06-.09-.11-.21-.13-.36-.17-1.29-.25-2.64-1.13-3.63-.22-.25-.52-.06-.65.17-.17.28-.27.64-.3,1.1-.1,1.3-.23,2.37-.38,3.2-.17.98-.3,1.89-.4,2.73-.18,1.51-.5,3.13-.95,4.88-.51,1.98-.55,4.11-.85,5.91-.1.66-.19,1.36-.27,2.11-.18,1.79-.56,3.38-1.19,4.96-.2.51-.75,1.4-1.39.73-.24-.26-.4-.52-.49-.78-.4-1.25-.67-2.62-.81-4.11-.1-1.11-.66-2.14-1.16-3.22-.24-.52-.38-1.01-.41-1.44-.11-1.49-.17-2.37-.2-2.65-.07-.76-.52-1.71-.7-2.18-.13-.32-.23-.75-.32-1.3-.19-1.18-.32-1.83-.65-2.86-.14-.42-.24-.83-.3-1.2-.35-2.11-.6-3.77-.75-5.01-.07-.62-.19-1.28-.36-2.01-.12-.55-.24-1.31-.34-2.26-.06-.49-.17-.96-.35-1.41-.2-.49-.34-.87-.43-1.15-.2-.64-.38-1.09-.52-1.34-.78-1.44-1.08-3-.87-4.67.08-.63.02-1.24-.18-1.83-.36-1.04-.58-2.03-.7-3.13-.09-.82-.29-1.96-.95-2.44-.09-.07-.23-.06-.31.02-.56.51-.94,1.13-1.13,1.88-.12.47-.2.87-.25,1.21-.35,2.39-.64,4.64-.88,6.72-.03.2-.06.38-.09.53-.33,1.23-1.54,2-2.03,3.19-.3.72-.52,1.33-.64,1.83-.49,1.9-.63,3.98-.73,5.96-.05.98-.14,1.72-.25,2.2-.16.64-.35,1.27-.56,1.88-.41,1.2-.71,2.68-.85,3.85-.16,1.26-.4,2.15-.87,3.15-.03.06-.09.08-.16.06,0,0-.02,0-.03-.02-.03-.03-.06-.06-.08-.13-.32-.72-.56-1.38-.72-2-.25-.98-.31-2.49-.66-3.55-.39-1.17-.71-2.34-.98-3.51-.14-.6-.23-1.15-.29-1.67-.18-1.75-.25-3.03-.42-5.94-.1-1.61-.38-3.14-.84-4.58-.63-1.99-1.07-4.01-1.16-5.86-.14-2.56-.22-4-.25-4.33-.08-.9-.17-1.5-.25-1.79-.36-1.29-1.67-2.27-2.89-2.73-.53-.2-1.01-.14-1.44.18-.87.66-1.36,1.38-1.91,2.5-.98,1.99-1.58,3.2-1.79,3.64-1.1,2.35-2.14,4.86-3.15,7.56-1.67,4.5-3.15,9.26-4.43,14.27-1.11,4.35-2.05,8.61-2.83,12.75-1.27,6.78-2.27,13.67-3.02,20.64-.9,8.36-1.48,16.78-1.74,25.25-.06,2.07-.06,3.87.02,5.92.1,2.65.19,4.89.29,6.73.54,10.36,1.55,20.4,3.01,30.12.36,2.39.8,5,1.33,7.8,1.72,9.26,4,18.44,7.16,27.13,1.84,5.07,4.06,9.88,6.64,14.45.18.32.46.85.84.6.44-.29.64-.76.73-1.32.07-.46.17-.87.28-1.24.27-.87.4-1.81.3-2.58-.1-.82-.3-1.92-.31-2.83,0-.56.07-1.36.24-2.39.1-.61.3-1.24.62-1.92.59-1.27.91-1.95.98-2.05.56-.89.89-1.5,1-1.83.25-.74.61-1.44,1.09-2.12.35-.5.81-.73,1.39-.69.75.05,1.09.6,1.25,1.27.07.3.19.79.35,1.46.03.13.07.25.13.36.68,1.37,1.2,2.4,1.53,3.09.29.61.36,1.26.43,1.91.12,1.13.62,1.46,1.37,2.14.97.87.97,2.39,1.54,3.48.22.42.63.88.92,1.41.45.8.79,1.37,1,1.71.54.87.69,1.86.87,2.81.06.29.17.64.36,1.07.26.6.57,1.45.92,2.55.23.74.47,1.29.69,1.65.44.7.87,1.49,1.27,2.36.29.64.58,1.18.85,1.6.57.91,1.55,1.07,2.39,1.41.48.19,1.73,1.06,2.05,1.57.32.51.52,1.16.59,1.99.03.29.18.48.49.54,1.43.31,2.98.62,4.68.89.16.03.3-.05.39-.18.2-.34.37-.62.64-.91.44-.47.79-.96,1.04-1.44.28-.53.46-.85.55-.93.4-.39.91-.8,1.47-.67.52.11,1.1.11,1.71,0,.27-.05.49,0,.66.17,1.04.98,2.2,1.76,3.48,2.33.55.25,1.18.98,1.79,1.17.75.24,1.5.04,2.2-.37.67-.4,1.1-.64,1.25-.76.27-.19.42-.47.47-.83.11-.84.31-1.51.74-2.34.07-.15.25-.54.52-1.17.62-1.44,1.32-2.66,2.1-3.67.34-.44.52-.95.54-1.53.02-.49.07-1.15.17-1.98.13-1.15.43-2,1.09-2.86.56-.74.98-1.3,1.25-1.69.06-.09.12-.19.17-.29.21-.51.4-.95.59-1.33.07-.16.27-.42.59-.79.04-.05.07-.09.09-.14.09-.17.15-.29.16-.34.32-1.28.63-2.57,1.78-3.13.35-.17.68-.13,1,.14,1.45,1.17,1.53,2.72,1.71,4.43.06.56.17,1,.35,1.33.29.56.79,1.13,1.48,1.71.62.52.91.99,1.12,1.87.14.56.45,1.56.92,2.99.07.24.17.44.28.62.42.68.91,1.27,1.43,1.96.1.14.19.29.26.45.33.82.52,1.47.56,1.94.11,1.12.23,2.06.34,2.8.17,1.07.24,2.32.42,3.5.18,1.15.86,2.34,1.44,3.2.13.19.32.38.57.53.16.1.4.15.75.16h2.9c.41,0,.63-.17.69-.56.15-.92.31-1.71.51-2.37.08-.28.18-1.1.3-2.5.06-.64.14-1.06.25-1.24.28-.48.44-.87.5-1.16.24-1.32.65-2.61,1.04-3.8.4-1.2.95-2.27,1.65-3.22.58-.79.86-1.35,1.35-2.04.62-.86,1.3-.1,2.03-.17.28-.03,1.09-.41,1.42-.17.26.19.52.48.77.86.28.4.74,1.11,1.39,2.13.04.06.25.34.62.83.53.71.76,1.52,1.03,2.34.25.77.72,1.72.98,2.33.05.1.07.2.09.31.12.66.19,1.21.24,1.67.07.71.27,1.21.59,2.16.21.63.16,1.4.17,2.06.03.95.19,1.7.5,2.44.06.16.21.25.38.24l3.19-.11c.13,0,.25-.08.3-.19.35-.68.58-1.4.68-2.14.29-2.01.48-3.83.64-5.24.08-.75.34-1.46.37-2.24.05-1.07-.1-2.37-.07-3.16.03-.69.24-1.57.64-2.68.29-.79.85-1.74,1.83-1.56.75.14,1,.63,1.33,1.25.09.17.31.25.49.17,1.09-.51,1.54-4.22,1.68-5.41.06-.48.19-1.19.42-2.13.12-.51.32-1.55.61-3.11.26-1.43,1.13-1.96,2.25-2.86.39-.31.68-.71.87-1.18.17-.41.21-.98.33-1.36.03-.1.07-.2.12-.3.23-.48.36-.81.38-.99.08-.69.17-1.39.24-2.09.04-.37.19-.77.47-1.21.54-.87.98-1.6,1.89-1.71.59-.07,1.35-.05,1.77.37.52.53,1.12,1.32,1.79,2.36.13.19.25.37.36.51.89,1.08.93,2.52,1.07,3.9.04.38.17.81.4,1.29.39.81.82,1.52,1.32,2.14.4.51.68.9.82,1.18.33.64.56,1.11.68,1.41.38.93.47,2.11.63,2.93.04.21.1.41.18.62.32.8.52,1.43.6,1.89.08.51.18,1.45.29,2.85.05.53.05.94,0,1.23-.11.98-.17,1.56-.17,1.76.02,1.21.1,2.55.25,4.04.15,1.48.39,2.72.72,3.74.14.41.22.75.25.98.1.7.17,1.51.4,1.81.31.41.75.33.94-.13.06-.15.11-.32.16-.52.25-1.12.26-1.81.41-3.44.13-1.37.49-2.49,1.04-3.5.4-.71,1.17-.7,1.91-.59.57.08.77.66.96,1.13.04.09.09.18.17.26.22.23.39.52.5.86.09.28.18.48.29.61.24.29.4.48.48.55.06.06.13.11.21.14.52.23.91.42,1.14.58.71.46,1.4,1.25,2.1,1.67.43.27.96.56,1.56.89.69.38,1.42.61,2.19.67.44.04,1.21-.05,2.27-.25,3.15-.61,5.93-1.22,8.33-1.85,3.77-.98,7.54-2.2,10.94-3.87,1.06-.52,1.87-.98,2.44-1.39,1.16-.83,2.21-1.87,3.14-3.1,4.71-6.28,8.19-13.37,10.88-20.79,1.25-3.45,2.34-6.81,3.25-10.08,1.55-5.55,2.85-11.21,3.91-16.99.29-1.58.65-3.62,1.08-6.08.17-.94.11-2.24-.52-2.95-.6-.66-1.37-1.24-2.21-1.66-1.2-.6-2.35-1.22-3.13-2.46-1.01-1.6-1.72-3.01-2.04-4.88-.22-1.27-.34-1.97-.36-2.08-.25-1.21-.7-2.32-1.36-3.36-.42-.65-.64-1.06-1.06-1.58-.2-.25-.43-.53-.71-.87-.64-.75-.99-1.64-1.3-2.57-.37-1.1-.17-2.35.12-3.41.25-.9.23-1.61-.15-2.38-.31-.64-.61-1.19-.88-1.67-.51-.87-.38-2.01-.18-2.97.19-.92.34-1.64.44-2.16.19-.97-.14-1.67-.99-2.12-1.12-.59-1.81-.97-2.07-1.11-.66-.4-1.07-.67-1.23-.86-.59-.63-.94-1.35-1.06-2.17-.22-1.55-.47-2.96-.75-4.25-.15-.69-.36-1.33-.64-1.95-.27-.58-.68-.72-1.23-.41-.15.08-.26.23-.29.4-.1.52-.22,1.23-.26,1.87-.12,2.03-.51,4.06-1.22,5.97-.07.2-.3.88-.69,2.03-.1.31-.31.81-.47,1.22-.03.06-.09.09-.15.06-.03,0-.06-.04-.06-.07l-6.19-18.57c-.04-.12,0-.24.08-.32.59-.52,1-1.15,1.24-1.9.62-1.89.32-3.58-.87-5.07-.79-.98-1.82-1.6-3.09-1.83-.09-.02-.15-.1-.13-.18v-.02c.86-2.83,1.85-6.17,2.97-10,.05-.17.19-.58.41-1.21,0-.04.05-.06.08-.06,1.14-.18,2.09-.65,2.84-1.39,1.17-1.15,1.7-2.56,1.59-4.22-.06-1.02-.45-1.98-1.14-2.86-.17-.21-.9-.75-.82-1.21,1.1-5.66,2.05-10.66,2.88-15,0,0,.05-.21.14-.59,0-.05.05-.08.08-.1.45-.23,1.01-.47,1.43-.8,1.33-1.06,2-2.47,2-4.22,0-1.99-1.12-3.77-2.91-4.64-.07-.04-.12-.11-.12-.19v-10.48c0-.1.06-.2.16-.24,2.8-1.33,4-4.68,2.42-7.4-.52-.89-1.29-1.62-2.29-2.16-.04-.02-.06-.06-.08-.09-.06-.12-.08-.25-.07-.39.02-2.38.03-5.51.02-9.37v-.74c0-.12-.06-.23-.17-.29l-.95-.47c-.06-.04-.15,0-.17.06v12.15c0,.06.04.1.09.11.64.1,1.3.49,1.94,1.16,1.33,1.38,1.36,3.56.18,5.02-.63.77-1.41,1.23-2.36,1.38-.07,0-.12.07-.12.15v12.57c0,.06.04.1.09.12,1.51.39,2.48,1.33,2.91,2.83.21.75.18,1.5-.09,2.25-.53,1.46-1.56,2.31-3.07,2.55-.16.03-.28.14-.3.29l-3.35,17.37s0,.06.04.08h-.04l-.1.08h0ZM161.56,42.61c-.77,1.02-.56,2.48.47,3.26s2.49.59,3.27-.43.56-2.48-.47-3.26-2.49-.59-3.27.43ZM169.02,66.75c0-1.29-1.05-2.34-2.34-2.34s-2.34,1.05-2.34,2.34,1.05,2.34,2.34,2.34,2.34-1.05,2.34-2.34ZM175.98,92.96c0-1.29-1.04-2.33-2.33-2.33h0c-1.29,0-2.33,1.04-2.33,2.33h0c0,1.29,1.04,2.33,2.33,2.33h0c1.29,0,2.33-1.04,2.33-2.33h0ZM183.82,117.63c0-1.29-1.04-2.33-2.33-2.33h0c-1.29,0-2.33,1.04-2.33,2.33h0c0,1.29,1.04,2.33,2.33,2.33h0c1.29,0,2.33-1.04,2.33-2.33h0ZM57.58,153.56c.18.16.19.32.03.49-.87.91-1.76,1.91-2.68,3.01-1.58,1.87-2.97,3.85-4.15,5.93-.98,1.75-2,3.69-2.72,5.53-.27.66-.53,1.41-.23,2.02.26.52.83.55,1.16.07.18-.27.4-.65.63-1.15.36-.79.72-1.7,1.1-2.48.8-1.64,1.79-3.22,2.83-4.8,1.85-2.8,3.99-5.19,6.14-7.57.59-.65,1-1.07,1.21-1.23.28-.21.59-.3.93-.27.98.11,1.11,1.11,1.2,1.88.51,4.25.98,8.07,1.41,11.47.14,1.05.27,2.48.5,3.77.09.51.24,1.34.78,1.46.55.13.84-.47.84-.95,0-.98-.02-1.78-.08-2.38-.29-2.48-.42-4.13-.73-6.29-.3-2.13-.52-3.77-.66-4.94-.15-1.25-.29-2.26-.4-3.06-.17-1.14-.66-2.45-1.72-3.08-.54-.32-1.36-.28-1.97-.17-.19.03-1.64.32-4.34.87-1.6.32-3.04.67-4.31,1.04-1.12.32-2.39.75-3.81,1.28-1.71.64-3.87,1.67-4.96,2.19-.29.14-1.12.58-2.5,1.33-.91.49-1.82,1.04-2.73,1.66-.59.4-2.72,1.8-1.64,2.63.41.31,1.01-.04,1.42-.31,1.34-.93,2.51-1.67,3.52-2.22.57-.31,1.18-.64,1.82-.98,4.15-2.21,8.6-3.85,13.22-4.76.22-.05.48-.06.76-.04.05,0,.08.02.12.05h.04-.03,0ZM113.37,152.22c-.59.09-1.01.59-.61,1.17.43.63,1.08.78,1.79.98,1.67.47,3.38.64,5.12.52.6-.05,1.28-.23,1.8-.49.45-.21.69-.52.73-.9.05-.55-.37-1.1-.99-.9-1.15.37-2.21.72-3.44.54-1.39-.2-2.64-.48-3.77-.82-.29-.09-.51-.13-.63-.1h0ZM107.49,163.76c-.37,1.06.64,1.67,1.63,1.53.85-.12,1.68-.03,2.63.11.48.06.81.06,1-.04.32-.16.53-.41.64-.77.18-.63.34-1.11.47-1.46.45-1.17.6-1.82.06-2.79-.22-.4-.69-.72-1.12-.56-.75.28-1.05,1.07-1,1.83.04.64.35,1.19-.24,1.73-.3.29-.78.24-1.13.09-1.02-.43-2.43-1.18-2.95.34h.02,0ZM97.21,172.66c.65.61,1.29-.19,1.46-.76.68-2.17.91-4.4.7-6.7-.04-.36-.09-.71-.17-1.05-.17-.74-.98-1.41-1.68-.83-.21.17-.29.38-.25.59.35,1.56.44,3.18.26,4.84-.08.73-.23,1.43-.46,2.11-.24.71-.4,1.32.15,1.81h-.01ZM194.94,166.18c0-.55-.44-.99-.99-.99h0c-.55,0-.99.44-.99.99h0c0,.55.44.99.99.99h0c.55,0,.99-.44.99-.99h0ZM196.26,187.02c-.4-.35-1.03-.3-1.39.11h0c-.36.41-.32,1.04.08,1.4h0c.4.35,1.03.3,1.39-.11h0c.36-.41.32-1.04-.08-1.4h0ZM196.16,211.7c-.54-.06-1.03.33-1.1.87h0c-.06.55.32,1.05.86,1.11h0c.54.06,1.03-.33,1.1-.87h0c.06-.55-.32-1.05-.86-1.11h0ZM196.32,223.42c.04-.36-.22-.68-.58-.73h-.07c-.36-.05-.68.21-.73.57l-.16,1.39c-.04.36.22.68.58.73h.07c.36.05.68-.21.73-.57l.16-1.39Z"/>
    <path class="st0" d="M186.53,92.14l3.35-17.37c.03-.16.16-.28.3-.29,1.52-.23,2.54-1.09,3.07-2.55.28-.75.3-1.5.09-2.25-.42-1.49-1.39-2.44-2.91-2.83-.06,0-.09-.06-.09-.12v-12.57c0-.07.06-.13.12-.15.95-.15,1.73-.61,2.36-1.38,1.18-1.45,1.15-3.64-.18-5.02-.64-.67-1.3-1.06-1.94-1.16-.06,0-.09-.06-.09-.11v-12.09c0-.07.06-.13.13-.13h.06l.95.47c.11.06.17.17.17.29v.74c0,3.86,0,6.98-.02,9.37,0,.14.03.27.07.39.02.04.05.07.08.09,1,.54,1.77,1.27,2.29,2.16,1.58,2.71.38,6.08-2.42,7.4-.09.05-.16.14-.16.24v10.48c0,.08.05.16.12.19,1.79.87,2.9,2.64,2.91,4.64,0,1.76-.66,3.16-2,4.22-.41.32-.98.57-1.43.8-.05.02-.07.06-.08.1-.09.38-.14.58-.14.59-.83,4.34-1.79,9.34-2.88,15-.08.45.65.99.82,1.21.69.88,1.08,1.84,1.14,2.86.11,1.67-.42,3.08-1.59,4.22-.75.75-1.7,1.21-2.84,1.39-.04,0-.06.04-.08.06-.23.64-.37,1.05-.41,1.21-1.12,3.84-2.12,7.17-2.97,10-.03.08.02.17.11.2h.02c1.27.23,2.3.85,3.09,1.83,1.2,1.49,1.49,3.18.87,5.07-.24.74-.65,1.37-1.24,1.9-.09.08-.12.2-.08.32l6.19,18.57c.02.06.09.09.15.07.04,0,.06-.04.07-.06.16-.4.37-.91.47-1.22.39-1.15.62-1.83.69-2.03.72-1.91,1.1-3.94,1.22-5.97.04-.63.15-1.34.26-1.87.04-.17.14-.31.29-.4.55-.3.97-.17,1.23.41.29.62.5,1.27.64,1.95.28,1.29.52,2.71.75,4.25.12.83.47,1.55,1.06,2.17.17.17.58.46,1.23.86.26.15.95.52,2.07,1.11.85.45,1.18,1.15.99,2.12-.1.52-.25,1.25-.44,2.16-.2.97-.32,2.11.18,2.97.28.48.57,1.03.88,1.67.38.77.4,1.48.15,2.38-.29,1.07-.49,2.31-.12,3.41.3.94.66,1.82,1.3,2.57.28.32.52.61.71.87.41.52.64.93,1.06,1.58.66,1.03,1.11,2.15,1.36,3.36.02.11.15.81.36,2.08.32,1.88,1.03,3.28,2.04,4.88.78,1.24,1.93,1.87,3.13,2.46.84.42,1.61.99,2.21,1.66.64.7.68,2,.52,2.95-.42,2.47-.78,4.5-1.08,6.08-1.06,5.78-2.37,11.45-3.91,16.99-.91,3.27-2,6.63-3.25,10.08-2.7,7.42-6.17,14.51-10.88,20.79-.93,1.24-1.98,2.27-3.14,3.1-.57.4-1.38.87-2.44,1.39-3.41,1.67-7.17,2.89-10.94,3.87-2.4.63-5.18,1.24-8.33,1.85-1.08.21-1.83.29-2.27.25-.76-.07-1.5-.29-2.19-.67-.6-.33-1.12-.63-1.56-.89-.7-.42-1.39-1.21-2.1-1.67-.23-.16-.62-.35-1.14-.58-.07-.04-.15-.08-.21-.14-.08-.07-.24-.26-.48-.55-.1-.13-.2-.33-.29-.61-.11-.34-.28-.63-.5-.86-.07-.07-.13-.16-.17-.26-.18-.47-.4-1.05-.96-1.13-.74-.11-1.51-.12-1.91.59-.55.99-.91,2.13-1.04,3.5-.15,1.63-.16,2.32-.41,3.44-.05.2-.1.38-.16.52-.18.46-.62.55-.94.13-.23-.3-.3-1.11-.4-1.81-.04-.24-.12-.56-.25-.98-.33-1.01-.57-2.25-.72-3.74s-.23-2.83-.25-4.04c0-.18.06-.77.17-1.76.04-.29.03-.71,0-1.23-.11-1.4-.2-2.35-.29-2.85-.07-.45-.28-1.08-.6-1.89-.08-.2-.14-.4-.18-.62-.16-.82-.24-2.01-.63-2.93-.12-.29-.34-.76-.68-1.41-.15-.29-.41-.67-.82-1.18-.49-.62-.93-1.33-1.32-2.14-.23-.49-.37-.91-.4-1.29-.14-1.38-.17-2.82-1.07-3.9-.12-.14-.24-.31-.36-.51-.66-1.04-1.25-1.82-1.79-2.36-.41-.41-1.18-.43-1.77-.37-.92.11-1.35.83-1.89,1.71-.28.44-.43.86-.47,1.21-.07.7-.16,1.4-.24,2.09-.02.17-.15.51-.38.99-.05.1-.09.2-.12.3-.12.39-.17.94-.33,1.36-.19.48-.48.87-.87,1.18-1.11.89-1.99,1.43-2.25,2.86-.29,1.56-.49,2.6-.61,3.11-.23.95-.37,1.66-.42,2.13-.15,1.21-.6,4.91-1.68,5.41-.18.08-.4,0-.49-.17-.32-.62-.57-1.1-1.33-1.25-.98-.18-1.54.76-1.83,1.56-.4,1.1-.62,1.99-.64,2.68-.03.78.11,2.09.07,3.16-.03.78-.29,1.48-.37,2.24-.16,1.4-.34,3.23-.64,5.24-.11.74-.34,1.45-.68,2.14-.06.12-.17.19-.3.19l-3.19.11c-.17,0-.31-.09-.38-.24-.3-.74-.48-1.49-.5-2.44-.02-.66.05-1.44-.17-2.06-.32-.95-.52-1.44-.59-2.16-.05-.45-.13-1-.24-1.67-.02-.11-.05-.21-.09-.31-.26-.61-.73-1.56-.98-2.33-.27-.82-.5-1.63-1.03-2.34-.37-.5-.58-.77-.62-.83-.65-1.01-1.12-1.72-1.39-2.13-.26-.39-.52-.67-.77-.86-.33-.24-1.14.15-1.42.17-.74.06-1.41-.7-2.03.17-.5.69-.77,1.25-1.35,2.04-.7.95-1.25,2.02-1.65,3.22-.4,1.18-.8,2.48-1.04,3.8-.06.29-.22.68-.5,1.16-.11.18-.19.6-.25,1.24-.12,1.39-.22,2.23-.3,2.5-.19.66-.36,1.45-.51,2.37-.06.39-.28.56-.69.56h-2.9c-.34,0-.6-.06-.75-.16-.25-.16-.44-.34-.57-.53-.58-.87-1.25-2.05-1.44-3.2-.18-1.18-.27-2.43-.42-3.5-.11-.75-.23-1.67-.34-2.8-.05-.47-.24-1.11-.56-1.94-.06-.17-.15-.31-.26-.45-.52-.69-1-1.27-1.43-1.96-.11-.17-.2-.38-.28-.62-.48-1.43-.78-2.43-.92-2.99-.21-.87-.51-1.35-1.12-1.87-.69-.58-1.19-1.15-1.48-1.71-.17-.32-.29-.76-.35-1.33-.18-1.71-.26-3.27-1.71-4.43-.32-.26-.65-.3-1-.14-1.15.56-1.45,1.86-1.78,3.13-.02.06-.06.17-.16.34-.03.05-.06.1-.09.14-.32.38-.52.64-.59.79-.17.39-.38.83-.59,1.33-.05.1-.1.2-.17.29-.28.4-.7.96-1.25,1.69-.65.87-.96,1.71-1.09,2.86-.09.83-.15,1.48-.17,1.98-.03.58-.2,1.09-.54,1.53-.77,1.01-1.47,2.24-2.1,3.67-.28.64-.45,1.02-.52,1.17-.42.83-.63,1.51-.74,2.34-.05.36-.2.63-.47.83-.16.12-.58.38-1.25.76-.7.4-1.44.62-2.2.37-.61-.19-1.22-.92-1.79-1.17-1.28-.57-2.44-1.35-3.48-2.33-.17-.17-.4-.22-.66-.17-.62.12-1.19.12-1.71,0-.56-.12-1.08.29-1.47.67-.09.09-.28.4-.55.93-.26.49-.6.98-1.04,1.44-.28.3-.44.57-.64.91-.07.14-.23.2-.39.18-1.68-.28-3.24-.57-4.68-.89-.29-.06-.46-.25-.49-.54-.07-.82-.27-1.48-.59-1.99s-1.57-1.38-2.05-1.57c-.85-.34-1.82-.49-2.39-1.41-.27-.42-.54-.96-.85-1.6-.4-.87-.83-1.66-1.27-2.36-.23-.36-.46-.91-.69-1.65-.35-1.1-.65-1.95-.92-2.55-.18-.41-.3-.77-.36-1.07-.18-.95-.32-1.94-.87-2.81-.21-.34-.55-.91-1-1.71-.29-.52-.7-.98-.92-1.41-.57-1.08-.57-2.6-1.54-3.48-.76-.69-1.25-1.01-1.37-2.14-.07-.65-.14-1.3-.43-1.91-.33-.69-.84-1.73-1.53-3.09-.06-.11-.1-.23-.13-.36-.16-.67-.27-1.17-.35-1.46-.17-.66-.5-1.21-1.25-1.27-.57-.04-1.04.19-1.39.69-.48.68-.84,1.39-1.09,2.12-.11.33-.45.94-1,1.83-.06.1-.39.78-.98,2.05-.31.68-.52,1.32-.62,1.92-.17,1.03-.25,1.82-.24,2.39,0,.9.21,2.01.31,2.83.09.76-.04,1.69-.3,2.58-.11.37-.2.78-.28,1.24-.08.55-.29,1.03-.73,1.32-.38.24-.65-.28-.84-.6-2.6-4.56-4.8-9.39-6.64-14.45-3.16-8.7-5.45-17.87-7.16-27.13-.52-2.82-.97-5.41-1.33-7.8-1.46-9.72-2.47-19.76-3.01-30.12-.09-1.84-.19-4.09-.29-6.73-.07-2.04-.08-3.85-.02-5.92.27-8.49.85-16.9,1.74-25.25.75-6.99,1.76-13.86,3.02-20.64.77-4.14,1.71-8.38,2.83-12.75,1.28-5.02,2.75-9.77,4.43-14.27,1-2.69,2.05-5.21,3.15-7.56.2-.43.8-1.65,1.79-3.64.55-1.11,1.05-1.84,1.91-2.5.43-.32.91-.39,1.44-.18,1.21.47,2.53,1.44,2.89,2.73.08.29.17.89.25,1.79.03.33.11,1.78.25,4.33.1,1.85.53,3.87,1.16,5.86.46,1.44.74,2.97.84,4.58.17,2.91.25,4.19.42,5.94.06.52.15,1.08.29,1.67.27,1.16.6,2.33.98,3.51.35,1.06.41,2.58.66,3.55.16.62.4,1.29.72,2,.03.06.06.1.08.13.05.05.12.04.16,0,0,0,0-.02.02-.03.48-.99.72-1.89.87-3.15.15-1.16.43-2.64.85-3.85.21-.61.4-1.23.56-1.88.12-.48.2-1.21.25-2.2.1-1.99.24-4.07.73-5.96.13-.51.35-1.11.64-1.83.51-1.2,1.7-1.96,2.03-3.19.04-.15.07-.32.09-.53.24-2.08.53-4.32.88-6.72.05-.34.13-.74.25-1.21.19-.74.57-1.36,1.13-1.88.09-.08.22-.09.31-.02.65.47.87,1.62.95,2.44.12,1.1.35,2.09.7,3.13.2.59.27,1.21.18,1.83-.21,1.67.07,3.22.87,4.67.14.26.31.71.52,1.34.09.28.23.66.43,1.15.18.45.3.92.35,1.41.1.96.22,1.71.34,2.26.17.73.29,1.39.36,2.01.15,1.23.4,2.9.75,5.01.06.37.17.77.3,1.2.33,1.02.46,1.68.65,2.86.09.54.19.98.32,1.3.18.47.63,1.42.7,2.18.03.28.1,1.16.2,2.65.03.43.17.92.41,1.44.5,1.08,1.06,2.11,1.16,3.22.14,1.49.4,2.86.81,4.11.08.26.25.52.49.78.63.67,1.19-.21,1.39-.73.63-1.58,1-3.17,1.19-4.96.07-.75.17-1.44.27-2.11.29-1.79.33-3.93.85-5.91.45-1.75.77-3.38.95-4.88.1-.85.24-1.77.4-2.73.15-.84.27-1.91.38-3.2.04-.46.14-.82.3-1.1.14-.23.43-.42.65-.17.89.98.98,2.34,1.13,3.63.02.14.06.26.13.36.06.09.19.12.29.06.02,0,.03-.03.04-.04.06-.08.11-.19.14-.34.25-1.47.4-3.17.75-6.33.12-1.09.18-2.15.28-3.17.09-1.02.35-1.77.69-2.83.14-.44.16-.94.02-1.46-.11-.44-.23-1.04-.34-1.8-.13-.86-.19-1.44-.18-1.73.03-1.03.53-1.88,1.06-2.91.43-.86.6-1.87.86-2.75.1-.36.35-.55.74-.58.69-.04,1.2.21,1.53.74.63,1.01.72,2.17,1.03,3.28.24.85.31,1.55.37,2.34.23,3.42.45,6.47.66,9.13.07,1,.63,2.14,1.23,2.95.69.89,1.4,1.89,1.79,2.97.21.58,0,1.33-.13,2.26-.05.35,0,.86.12,1.53.2,1.06.38,2.32.48,3.91.06,1.02.17,2.03.35,3.04.15.85.43,1.58.87,2.23.3.45.5.81.6,1.08.08.24.15.71.2,1.4.13,1.96.21,3.76.39,5.8.1,1.24.2,2.57.29,3.99.08,1.24.31,2.5.69,3.79.04.13.09.44.17.93.17,1.22.16,2.65.33,3.38.31,1.33.57,2.34.75,3.05.05.17.14.4.29.72.38.79.71,1.34.96,2.14.08.28.2.57.33.87.06.11.1.17.17.18.16.04.32-.06.37-.22.35-1.16.75-2.25,1.21-3.25.12-.26.19-.63.23-1.1.1-1.4.31-2.77.61-4.13.05-.18.1-.37.18-.53.28-.56.7-1.4,1.27-2.51.22-.43.35-.98.4-1.64.1-1.26.21-2.3.34-3.1.14-.88.58-1.64,1.15-2.57.62-1.01.85-1.74.66-2.79-.11-.61-.19-1.1-.24-1.46-.11-.87.07-1.74.52-2.61.08-.17.39-.82.91-1.95.4-.87.93-1.26,1.69-1.95.82-.74,1.27-1.65,1.4-2.77.11-.97.31-2.27.62-3.64.38-1.74.24-3.37.27-5.43,0-.79.09-3.3,1.12-3.46.39-.06.68.09.89.45.44.77.76,1.23.86,2.01.09.79.19,1.48.31,2.08.02.08.04.16.06.23.3.78.66,1.56.78,2.41.17,1.27.28,2.35.7,3.5.05.14.12.25.21.35.06.06.16.07.22.02.12-.09.2-.21.25-.36.45-1.56.92-2.85,1.43-3.89.13-.27.31-.5.55-.7.31-.27.53-.42.65-.47.56-.21,1.22.53,1.47.98.58,1.02.83,1.79,1.37,3.18.71,1.83,1.2,3.59,1.79,5.56.15.51.4.95.78,1.49.55.78.89,1.66,1.01,2.66.13,1.06.17,1.68.29,2.75.04.31.15.81.32,1.46.35,1.29.58,2.41.7,3.35.17,1.29.52,4.5,1.08,9.61.1.94.41,2.18-.11,3.02-.71,1.13-1.74,2.49-2.51,3.72-.86,1.34-1.39,2.17-1.6,2.49-.81,1.21-1.77.77-3.01.98-.81.13-1.44.58-1.9,1.34-.27.45-.29.9-.06,1.35.06.11.12.18.2.22.09.05.2,0,.25-.1v-.04c.17-.74.66-1.08,1.33-1.33.36-.13.76-.12,1.23.04.57.19.99.55,1.26,1.09.78,1.58.51,3.48.18,5.3-.2,1.11-.43,2.16-.71,3.17-.5,1.8-1.33,3.74-2.12,5.48-.59,1.29-1.33,2.56-2.22,3.79-.88,1.22-1.98,2.51-3.27,3.86-.72.75-1.61,1.33-2.69,1.78-.88.36-1.67.36-2.37,0-.48-.25-.9-.78-1.26-1.02-1.06-.71-2.18-1.07-3.35-1.06-1.1,0-2.14.18-3.09.53-1.87.68-3.06,2.81-3.53,4.69-.26,1.04-.14,1.97.24,2.96.18.48.56,1.11.74,1.71.18.64.23,1.31.15,1.99-.07.63-.41,1.12-1.01,1.49-.78.48-1.86.76-2.69.94-1.34.28-2.95.55-4.79.85-1.41.22-2.83.36-4.26.4-3.29.11-6.36.05-9.64-.12-1.52-.07-2.95-.25-4.31-.53-1.33-.28-2.64-.85-3.01-2.29-.3-1.2.27-2.07,1.39-2.44.07-.03.12-.11.09-.18,0-.04-.04-.06-.06-.08-.39-.22-.76-.33-1.22-.19-.84.25-1.39.81-1.65,1.68-.06.18-.14.75-.24,1.7-.12,1.07-.75,1.32-1.79,1.51-.54.1-1.68.34-3.42.73-1.79.39-3.7.93-5.76,1.61-1.46.48-2.66.94-3.6,1.38-1.82.85-2.96,1.39-3.42,1.61-1.98.98-3.83,2.07-5.55,3.26-1.67,1.14-3.5,2.79-4.64,3.78-.46.4-1.14,1.09-2.06,2.06-.69.74-1.33,1.47-1.9,2.22-1.23,1.61-2.04,2.69-2.43,3.22-.51.7-2.89,4.09-2.51,5.02.1.25.5.19.66.06,1.87-1.57,4.22-2.77,6.55-3.62,2.6-.94,5.3-1.36,8.13-1.27,1.28.05,2.61.19,4,.44.33.06.68.16,1.05.29.79.27,1.43.5,2.28.85.43.17.87.33,1.3.47.59.18.85.04,1.37-.35.66-.49,1.55-1.33,2.55-1.78,3.57-1.62,7.81-.93,11.05,1.11,1.22.77,2.25,1.57,3.09,2.4.26.25.64.4.98.11.84-.71,1.66-1.39,2.46-2.02.81-.64,1.4-1.07,1.76-1.27.57-.31,1.21-.64,1.92-.98,1-.48,2.21-.82,3.63-.99,3.37-.43,6.69-.34,9.97.27.97.17,2.04.47,3.21.88.88.31,1.78.74,2.67,1.29,1.07.65,1.89,1.21,2.46,1.67.84.67,1.17,1.56.98,2.67-.11.66-.29,1.33-.55,1.99-.28.71-.18,1.23.13,1.91.23.5.63.86,1.19,1.06.29.1.54.08.77-.06.1-.06.14-.19.07-.29,0,0-.02-.02-.02-.03-.44-.5-.76-.87-.74-1.57,0-.17.13-.57.38-1.23.45-1.23.82-2.16,1.09-2.77.64-1.47,1.59-2.51,2.86-3.63.71-.62,1.44-1.15,2.21-1.58.29-.17.87-.45,1.77-.86,1.61-.74,3.48-.96,5.19-.85.4.03,1.52.06,2.6.19.81.1,1.39-.23,1.73-1.01.06-.13.16-.46.29-.98.29-1.08.66-2.09,1.12-3.16.27-.62.59-1.19.98-1.72,1.71-2.36,3.89-4.1,6.55-5.24.58-.25,1.33-.48,2.22-.68.72-.17,1.77-.38,2.41.03.41.26.72.63.93,1.1.04.09.15.14.25.1,0,0,.02,0,.03-.02.31-.22.44-.53.38-.94-.15-.91-.64-1.55-1.48-1.9-.6-.26-1.21-.3-1.8-.16-1.21.3-2.02.65-2.93.21-.34-.17-.55-.47-.64-.92-.28-1.46-.32-2.89-.07-4.49.27-1.7.59-3.21.97-4.53.17-.56.46-1.27.88-2.14.57-1.15,1.07-2.07,1.47-2.75,1.22-2.05,2.8-3.79,4.68-5.38.65-.55,1.33-1.16,2.03-1.8.42-.39.91-.77,1.48-1.25.67-.57,1.3-1.59,1.13-2.51-.11-.61-.38-1.35-.8-2.22-.6-1.24-.8-2.53-.94-4.08-.17-1.99.35-4.1,1.3-5.74.47-.82,1.01-1.72,1.77-2.41,1.17-1.06,2.51-1.74,4.03-2.06.15-.03.29-.1.43-.22.53-.46.08-.93-.42-1.05-1.59-.38-3.34-.36-4.99-.26-.9.06-2.03.23-3.41.52-1.32.28-2.9.66-4.75,1.17-1.36.37-2.52.75-3.49,1.14-1.36.55-2.48,1.05-3.36,1.47-.21.1-.4.2-.56.31-.13.08-.17.24-.13.38.06.16.17.3.35.45.75.62,1.47,1.21,2.2,1.77,1.75,1.35,3.53,2.95,5,4.16,1.67,1.37,3.32,2.91,4.56,4.32.49.54.87,1.19,1.16,1.91.19.5.09.98-.33,1.27-.21.14-.4.15-.54.03-.29-.24-.59-.55-.88-.94-1.37-1.77-2.86-3.32-4.47-4.67-1.89-1.56-3.11-2.6-3.68-3.11-1.2-1.05-2.12-1.72-3.7-2.93-.45-.35-.9-.72-1.33-1.11-1.52-1.38-1.75-2.98-.69-4.79,1.07-1.83,2.25-3.73,3.54-5.69.45-.69,1.1-1.53,1.91-2.5,1.11-1.33,2.41-2.69,3.87-4.09,2.23-2.12,4.87-4.12,7.68-5.68,2.48-1.37,4.81-2.48,7.02-3.34.04-.02,1.39-.52,4.05-1.53,1.44-.54,2.94-1,4.53-1.39,1.87-.46,3.72-.65,5.53-.59.64.03,1.87.1,2.28.52.1.1.11.26.02.37-.12.16-.29.29-.51.4-1.16.63-2.18,1.35-3.06,2.17-1.18,1.1-2.36,2.3-3.54,3.61-1.79,1.98-3.18,4.33-4.33,6.72-.5,1.01-.77,2.03-1.17,3.16-.1.29-.22.72-.35,1.3-.31,1.41-.58,2.92-.82,4.53-.25,1.68-1.39,3.58-3.12,3.99-.29.06-.69.17-1.21.31-.12.04-.21.08-.25.16-.08.13-.06.3.06.41.69.63,1.24,1.32,1.67,2.09.52.93,1.18,2.39,1.61,3.53.26.68.89,2.43,1.91,5.26.25.7.4,1.29.45,1.76.06.63.2,1.97.41,4.03.05.43.17.96.4,1.56.21.61.54,1.56.92,2.36.14.29.44.91.9,1.87.5,1.01.67,2.1.54,3.25-.05.4-.14,1.01-.28,1.86-.17,1.01.05,1.92.46,3.04.28.73.42,1.19.45,1.37.16,1,.28,1.78.37,2.32.06.37.16.71.29,1.04.28.68.35,1.12.57,1.83.12.38.66,1.09,1.15.85.44-.22.73-.59.86-1.1.25-1.03.38-1.57.4-1.65.08-.36.15-.92.19-1.67.23-3.53.38-5.82.43-6.87.06-1,.26-1.99.6-2.95.35-.98.73-1.8.93-2.79.08-.42.25-1.18.48-2.27.07-.35.24-.82.42-1.24.41-.96.78-1.98,1.11-3.07.46-1.53.88-2.83,1.27-3.87.07-.19.4-.44.61-.22.32.35.65,1.08.78,1.46.3.92.57,1.67.79,2.57.18.74.37,1.48.56,2.23.28,1.07.57,1.85,1.22,2.82.44.65.85,1.48,1.2,2.48.08.24.2.42.36.54.11.09.27.07.36-.04,0,0,.02-.03.03-.04.6-1.08,1.14-2.25,1.6-3.53.19-.53.33-1.01.4-1.44.12-.7.29-1.23.36-1.97.16-1.96.25-3.24.27-3.85.05-1.33.11-2.5.2-3.5.05-.55.42-1.91,1.19-1.7.65.17.91,1.33.96,1.94.14,1.95.24,3.41.29,4.34.02.25.09.76.24,1.55.26,1.4.32,2.41.52,4.1.03.27.06.47.11.61.02.06.28,1.05.76,2.97,0,.05.06.07.1.06.02,0,.04-.02.05-.04.02-.04.05-.1.06-.2.65-3.27,1.14-5.5,1.45-6.73.54-2.11.99-4.03,1.59-6.1.46-1.57.89-3.08,1.29-4.55.5-1.8.94-3.08,1.51-4.97.06-.17.06-.36,0-.53l-4.35-13.8c-.03-.09-.11-.17-.21-.17-2.26-.3-4.28-2.19-4.54-4.56-.19-1.8.36-3.3,1.67-4.49.03-.03.06-.06.06-.11.05-.18.04-.4-.03-.67-1.1-4.18-2.5-9.53-4.22-16.04-.05-.17-.17-.3-.33-.37-.17-.06-.43-.16-.79-.29-1.78-.64-3-2.23-3.33-4.08-.32-1.79.59-3.98,2.08-5.02.14-.1.22-.26.25-.47v-.07l-1.79-12.78c0-.07-.06-.13-.13-.16-1.93-.69-3.13-2.02-3.6-3.99-.16-.67-.17-1.33-.03-1.99.36-1.67,1.33-2.95,2.91-3.82.15-.08.22-.22.22-.41-.02-1.55-.02-5.51,0-11.9,0-.02.02-.04.04-.04h0l1.24.21s.02,0,.02.02v12.88c0,.09-.06.17-.14.2-.06.02-.23.09-.51.19-.62.24-1.18.66-1.67,1.29-.8.98-1.01,2.33-.6,3.52.52,1.5,1.63,2.39,3.3,2.69.09.02.17.09.17.18.21,1.5.9,6.36,2.06,14.59.02.16,0,.29-.07.4-.02.04-.06.06-.09.08-.46.25-.76.43-.91.56-1.44,1.24-1.87,3.21-.93,4.91.67,1.22,1.8,1.9,3.39,2.02.17,0,.3.13.34.29l4.71,18.16c.02.06.02.14,0,.2-.14.45-.73.79-.91.99-1.48,1.64-1.34,4.06.25,5.52.6.55,1.44.93,2.27.95.2,0,.42,0,.67.02.08,0,.15.06.17.13l5.37,17.03c.05.14,0,.29-.14.38-2.56,1.66-2.37,5.6.5,6.84.65.29,1.29.34,2.02.34.03,0,.06.02.06.05l5.88,17.62s0,.1-.05.14c-.93.6-1.56,1.44-1.76,2.51-.06.29-.1.54-.15.76,0,.06-.06.1-.1.11-1.44.37-3.31.81-5.6,1.33-2.27.52-4.58,1.07-6.92,1.64-.13.03-.58.14-1.33.31-.47.11-.71.37-.71.76,0,.56.43.99.98.86,4.49-1.1,9.11-2.19,13.85-3.3.06,0,.11,0,.15.04.33.3.58.73.87,1,.77.73,1.7,1.1,2.8,1.13.03,0,.06.02.06.05,1.27,5.54,2.24,11.1,2.88,16.68.03.23.02.42-.04.58-.02.06-.06.12-.11.16-.67.46-1.07.9-1.2,1.72,0,.05-.04.09-.07.11-.14.08-.33.07-.52.11-7.92,1.67-14.84,3.12-20.75,4.36-1.17.25-.87,1.92.39,1.64,1.14-.26,3.32-.72,6.54-1.38,4.42-.91,8.48-1.72,12.18-2.43.81-.16,1.59-.32,2.33-.5.11-.03.23.02.29.11.32.45.8.76,1.43.95.07.02.12.08.13.15.52,4.49.89,9,1.13,13.51.06.99.08,1.99.08,3,0,.06-.04.13-.1.17-.75.38-1.25.97-1.47,1.75-.03.09-.1.17-.2.18-5.16,1.1-12.12,2.55-20.85,4.37-.25.06-.69.14-1.35.27-.49.09-.74.35-.74.75,0,.74.51.97,1.15.84,9.1-1.82,16.52-3.31,22.26-4.45.08-.02.17.02.2.08.31.46.72.76,1.21.89.09.03.16.11.16.2,0,2.02-.04,4.03.06,6.13.1,2.18.03,4.18.1,6.15.11,3.02.09,4.98.1,7.5,0,.06-.04.13-.09.16-.76.41-1.26.98-1.49,1.72-.03.08-.1.15-.18.17-8.85,1.39-16.13,2.51-21.82,3.38-.37.06-.59.14-.68.25-.32.4-.23,1.1.25,1.34.13.06.39.07.76,0,6.89-1.04,14.13-2.11,21.73-3.2.08,0,.16.03.19.1.25.48.8.74,1.35,1.05.14.07.23.22.24.38.02.27.03.52.02.78-.05,1.31-.15,2.94-.3,4.91,0,.06-.04.11-.09.14-.65.32-1.15.73-1.37,1.45-.22.76-.29,1.54-.19,2.31.21,1.75,2.55,2.25,3.61.93.39-.48.45-1.22.52-1.9.1-1.06.08-1.91-.96-2.5-.14-.08-.21-.23-.19-.39.21-2,.3-3.96.28-5.86,0-.11.06-.21.17-.26,1.33-.57,1.86-1.58,1.6-3.04-.08-.47-.32-.89-.73-1.27-.24-.22-.52-.32-.88-.51-.06-.03-.09-.07-.11-.13-.05-.14-.06-.29-.06-.43.04-1.96.03-3.58-.03-4.85-.1-2.48-.08-3.66-.07-6.54,0-2.42-.18-5.26-.15-7.89,0-.16.09-.3.23-.38,2.15-1.15,1.85-3.94-.4-4.74-.03,0-.06-.04-.06-.07-.19-4.35-.38-7.43-.53-9.21-.2-2.35-.43-4.71-.68-7.09-.02-.15,0-.29.06-.43.02-.05.06-.09.1-.12,2.02-1.22,1.61-4.02-.63-4.68-.08-.03-.15-.1-.15-.19,0-.22-.03-.41-.05-.59-.7-5.96-1.74-11.89-3.12-17.79-.03-.13-.15-.22-.29-.22-.69,0-1.46.09-2.02-.17-1.57-.73-1.93-2.63-.65-3.83.36-.33.83-.54,1.41-.65.08-.02.14-.09.12-.18v-.02l-6.3-18.89c-.04-.1,0-.2.08-.27,1.29-.92,2.11-2.58,1.68-4.17-.54-2.04-2.15-3.02-4.21-3.06-.03,0-.06-.02-.06-.05-.12-.52-.3-1.17-.55-1.92-1.05-3.27-2.63-8.28-4.74-15.04-.06-.21-.05-.35.06-.42.56-.37,1-.89,1.34-1.56.02-.03.05-.05.07-.04,2.32.57,4.79,1.2,7.42,1.89.29.07.53.07.75,0,.52-.17.54-.97.26-1.3-.09-.11-.37-.23-.83-.34-1.67-.4-4.05-1.01-7.15-1.81-.08-.02-.14-.09-.15-.17-.03-.36-.02-.64-.11-.97-.37-1.33-1.2-2.21-2.47-2.65-.42-.15-.82-.17-1.32-.18-.1,0-.2-.06-.25-.16-.09-.17-.17-.36-.22-.56-.65-2.54-2.19-8.4-4.61-17.59-.11-.42.03-.64.39-.89.6-.41,1.03-.95,1.27-1.6.03-.06.09-.11.17-.09,7.38,1.22,13.65,2.27,18.78,3.16.39.06.65.07.79,0,.51-.21.6-1.01.14-1.35-.13-.1-.39-.17-.75-.24-4.22-.7-10.01-1.68-17.41-2.95-.47-.08-.87-.16-1.19-.22-.12-.03-.2-.13-.21-.25-.03-.39-.11-.74-.24-1.04-.62-1.38-1.66-2.2-3.14-2.44-.17-.03-.29-.16-.32-.33l-2.07-14.73c0-.08.04-.16.11-.19.87-.39,1.59-.94,2.02-1.8.06-.12.19-.17.32-.14.39.11,1.1.29,2.14.53,4.22.99,10.96,2.59,20.23,4.78,1,.24,1.33-1.34.48-1.55-2.01-.47-8.84-2.09-20.52-4.84-1.18-.28-1.88-.45-2.1-.52-.04,0-.06-.05-.06-.08-.12-1.51-.79-2.63-2.02-3.37-.33-.2-.8-.32-1.04-.44-.05-.02-.07-.06-.07-.11v-12.7s.04-.08.08-.08h.02l1.13.19s.06.04.06.07v.26c0,5.97,0,9.61-.02,10.92,0,.3.11.52.35.64,1.17.62,1.99,1.52,2.47,2.71.06.16.14.36.23.62.02.04.05.06.08.07l18.86,4.44c.06.02.13-.03.14-.09v-14.27c0-.06.05-.09.09-.09h.04l1.19.51c.06.03.11.09.11.17v13.98c0,.1.07.19.17.22.96.24,1.41.29,2.06.74.42.29.68.95.81,1.42.19.73-.21,1.6-.72,2.11-.67.66-1.54.72-2.42.51-.06-.02-.13.03-.14.08v.17c0,6.65,0,11.69-.03,15.08,0,.23.11.36.33.4,1.2.19,2.2.43,2.65,1.66.5,1.35-.27,2.72-1.67,3.09-.37.09-.83.03-1.13.07-.39.06-.4.29-.47.67-.71,3.64-1.72,8.87-3.04,15.73-.19,1.02-.42,2.15-.68,3.41-.06.31.09.52.48.62,1.1.29,1.79.93,2.02,1.94.21.87-.25,1.91-1.03,2.42-.64.42-1.67.34-2.42.18-.16-.04-.3.06-.35.21-1.33,4.46-2.23,7.45-2.66,8.94-.1.36-.12.69-.04,1.01.16.64.33,1.21.52,1.73.06.18.16.22.26.1.02-.02.03-.04.04-.06l3.06-10.16s.06-.08.1-.08c.52-.03.8,0,1.21-.11,2.11-.56,3.4-2.65,2.77-4.79-.32-1.11-1.05-1.96-2.18-2.54-.03-.02-.05-.05-.04-.08l.02.02h0l.09-.05h0ZM187.29,67.87c.1.02.19-.05.21-.15v-15.33c0-.31-.26-.32-.5-.38-5.7-1.34-10.78-2.54-15.21-3.59-1.41-.33-2.8-.6-4.04-1.02-.08-.03-.17,0-.23.05l-1.11.94s-.03.03-.04.05c-.07.16-.1.3-.08.45.29,2.17.74,5.28,1.32,9.36.16,1.07.29,2.13.42,3.18.02.14.1.26.22.32.36.18.76.29,1.11.52,1.1.7,1.86,1.62,2.26,2.77.05.13.16.21.29.24l15.38,2.6h0ZM183.41,92.75s.05-.11.06-.18c.15-.81,1.38-7.16,3.68-19.05.08-.45.23-.88-.3-.98-4.61-.76-9.76-1.64-15.43-2.6-.2-.04-.34-.04-.4-.02-.32.12-.9.64-.93.98-.02.17,0,.29,0,.38,1.28,4.85,2.69,10.23,4.22,16.14.06.2.15.32.29.36,1.82.4,3.09,1.39,3.83,2.96.13.28.19.7.39.95.03.04.06.06.1.08.17.07.36.14.57.18,1.13.28,2.35.58,3.64.91.11.03.23-.02.29-.12h0ZM153.74,87.57c-.44-.06-1.18.13-1.51.22-3.34.92-6.42,2.04-9.73,3.32-1.71.66-3.21,1.33-4.49,2-1.93,1.01-3.36,1.81-4.28,2.42-1.39.91-3.05,2.22-4.97,3.93-.55.5-1.17,1.1-1.83,1.83-1.16,1.26-1.74,1.9-1.75,1.91-2.06,2.33-3.49,4.85-5.17,7.74-.12.2-.2.4-.26.59-.04.14.05.29.19.32h.09c.17-.02.37-.07.58-.17,2.02-.95,3.85-1.67,5.46-2.18,2.48-.78,5.07-1.42,7.74-1.89,1.66-.29,3.51-.38,5.55-.27.49.03.94.08,1.34.17.77.17,1.21.26,1.33.29.46.12.75-.04.87-.48.06-.25.19-.7.24-1,.38-2.58,1.04-4.97,1.99-7.18.57-1.33,1.45-2.93,2.67-4.8,1.4-2.17,3.41-4.26,5.28-5.87.36-.3.61-.56.75-.75.04-.05.02-.11-.03-.15,0,0-.03-.02-.05-.02v.02h-.01ZM179.98,105.06c.08-.12.15-.25.18-.39.1-.32.75-2.46,1.92-6.4.06-.21.09-.39.08-.52,0-.16-.12-.28-.27-.31-1.81-.45-3.09-.77-3.85-.97-.4-.1-.98.07-.79.62.54,1.63,1.14,3.68,1.69,5.34.33.98.54,1.67.64,2.08.04.16.11.33.2.53.03.06.08.07.14.06.02,0,.03-.02.05-.04h.01ZM172.4,218.87s-.04-.07-.07-.07c-.45-.02-.81,0-1.21-.11-1.43-.43-2.29-1.88-1.62-3.3.52-1.1,1.59-1.31,2.7-1.42.06,0,.1-.06.09-.11l-.67-18.64c0-.06-.05-.1-.1-.09h-.03c-.73.21-1.4.1-2.03-.33-.95-.65-1.28-2.02-.73-3.02.55-1.01,1.49-1.27,2.57-1.35.05,0,.08-.05.08-.09l-.29-16.66c0-.14-.11-.25-.25-.25-.56-.02-1.02,0-1.44-.16-.47-.18-1.22-.89-1.35-1.43-.3-1.25.05-2.16,1.04-2.75.55-.32,1.17-.4,1.81-.52.1-.02.17-.1.18-.2.05-.37.07-.79.09-1.27.1-2.68.24-5.3.42-7.86.17-2.33.47-5.61.9-9.88,0-.05,0-.09-.05-.12-.21-.17-.4-.06-.62-.08-1.33-.09-2.39-1.45-2.1-2.78.15-.67.52-1.19,1.1-1.56.5-.3,1.38-.42,1.85-.55.6-.16.54-.72.62-1.22.94-6.57,2.3-13.08,4.1-19.53.18-.67.38-1.29.56-1.84,0-.04,0-.07-.02-.1l-1.02-1.32c-.04-.06-.12-.06-.17-.02-.02.02-.04.04-.04.06-1.88,6.25-3.35,12.65-4.44,19.19-.22,1.33-.4,2.49-.54,3.5,0,.07-.06.13-.13.15-.52.14-.8.18-1.22.39-1.58.78-2.29,2.39-1.96,4.09.25,1.31,1.17,2.13,2.33,2.74.06.03.08.08.07.15-.55,5.38-1.01,10.84-1.18,16.46,0,.32-.17.52-.48.6-1.29.34-2.31,1.49-2.55,2.81-.39,2.08.87,3.73,2.84,4.33.04,0,.06.05.06.09l.25,14.32c0,.11-.06.2-.17.24-1.22.44-2.16,1.45-2.46,2.72-.22.95-.06,1.87.51,2.76.53.87,1.32,1.4,2.34,1.62.11.02.18.12.18.23,0,1.29.1,2.8.12,4.2.03,2.06.11,4.63.24,7.69.06,1.44.06,2.83.03,4.06,0,.12-.08.23-.19.28-1.61.64-2.5,1.91-2.44,3.68.05,1.22.61,2.21,1.69,2.95.42.29.89.37,1.34.54.04.02.06.05.07.09l.67,4.81c0,.07-.02.15-.07.2-.68.64-1.01,1.26-.85,2.22.22,1.35.42,2.54,1.96,2.9.4.09.76-.05,1.11-.18.55-.22.92-.63,1.1-1.21.1-.32.15-.56.14-.73-.06-.98-.29-2.45-1.2-3.02-.18-.11-.4-.17-.63-.28-.04-.02-.07-.05-.09-.08-.08-.15-.14-.27-.16-.37-.31-1.77-.53-3.63-.66-5.58h.07ZM184.76,141.3c.06-.1.14-.3.23-.61.18-.62.7-1.29,1.13-1.75.03-.03.05-.06.06-.1.05-.12.04-.28-.03-.47-1.13-3.34-2.55-7.78-3.97-11.97-.28-.82-.63-1.88-1.04-3.18-.07-.22-.19-.35-.37-.4-.49-.11-.97-.24-1.43-.4-.09-.03-.19.02-.23.11h0c-1.81,6.36-3.22,12.77-4.22,19.25-.07.51-.16,1.07-.23,1.68,0,.1.06.18.16.2.04,0,.09,0,.17-.02,4.62-1.1,7.85-1.88,9.67-2.31.05,0,.08-.04.11-.08l-.02.03h0v.02h0ZM101.82,132.88c.1-.07.14-.22.11-.42-.22-1.83-.51-3.49-1.85-4.81-.4-.4-.74-.58-1.2-.17-.14.12-.25.29-.32.52-.29.77-.31,1.42-.17,2.28.03.13.1.59.23,1.39.11.65.04,1.33-.2,2.02-.06.16.02.33.17.4h.03c.13.07.29.02.35-.12v-.04c.31-1,.52-1.9.64-2.67.06-.42.52-.94.95-.52.49.5.75,1.34.97,2.01.04.11.14.17.24.16.02,0,.04-.02.06-.03h-.01ZM88.54,144.13c0-.41-.76-.68-1-.85-.5-.34-1.07-1.01-.47-1.54.17-.15.38-.24.61-.26.87-.07,1.55-.16,2.06-.24.12-.02.2-.12.2-.24s-.06-.19-.17-.21c-1.11-.21-2.23-.48-3.29-.92-.24-.1-.6-.2-1.09-.32-.66-.16-1.26-.06-1.79.28-.46.3-.55.8-.2,1.26.51.66,1.18,1.2,1.94,1.75.33.24.74.48,1.21.72.71.35,1.32.73,1.86.72.07,0,.14-.06.14-.14h-.01ZM190.65,142.6c0-.44-.36-.79-.79-.79s-.79.36-.79.79.36.79.79.79h0c.44,0,.79-.36.79-.79h0ZM175.27,148.55c.02.31.12.59.31.83.81,1.04,1.33,1.8,1.6,2.89.26,1.02.5,1.93.74,2.75.14.49.27.79.37.93.6.74,1.06,1.53,1.4,2.39.23.58.39,1.44.49,1.91.16.74.36,1.34.71,1.97.51.9.82,1.48.92,1.74.02.04.05.07.08.1.25.17.43.14.58-.1.21-.35.38-.81.43-1.22.12-.87.24-1.81.4-2.63.13-.66.36-1.27.58-1.95.06-.16.13-.48.23-.98.26-1.27.64-2.58,1.12-3.92.7-1.93,1.87-3.79,3.02-5.45.05-.06.03-.15-.04-.19,0,0-.02,0-.03-.02-.9-.33-1.69-.86-2.36-1.57-.04-.04-.09-.06-.14-.05l-10.36,2.48s-.06.05-.06.08v.02h0Z"/>
    <path class="st0" d="M161.56,42.61c.77-1.02,2.24-1.21,3.27-.43s1.24,2.24.47,3.26c-.77,1.02-2.24,1.21-3.27.43s-1.24-2.24-.47-3.26ZM164.23,44c0-.44-.36-.8-.8-.8h0c-.44,0-.8.36-.8.8h0c0,.44.36.8.8.8h0c.44,0,.8-.36.8-.8h0Z"/>
    <circle cx="163.43" cy="44" r=".8"/>
    <path d="M187.29,67.87l-15.38-2.6c-.13-.02-.24-.11-.29-.24-.4-1.15-1.16-2.08-2.26-2.77-.35-.22-.75-.32-1.11-.52-.12-.06-.21-.18-.22-.32-.13-1.05-.27-2.11-.42-3.18-.58-4.07-1.02-7.19-1.32-9.36-.02-.15,0-.29.08-.45,0-.02.02-.04.04-.05l1.11-.94c.06-.06.16-.07.23-.05,1.25.42,2.63.69,4.04,1.02,4.45,1.05,9.52,2.25,15.21,3.59.23.06.5.06.5.38v15.3c0,.1-.08.18-.18.18h-.03Z"/>
    <path class="st0" d="M169.02,66.75c0,1.29-1.05,2.34-2.34,2.34s-2.34-1.05-2.34-2.34,1.05-2.34,2.34-2.34,2.34,1.05,2.34,2.34ZM167.48,66.75c0-.44-.36-.79-.79-.79s-.79.36-.79.79.36.79.79.79.79-.36.79-.79Z"/>
    <circle cx="166.68" cy="66.75" r=".79"/>
    <path d="M183.41,92.75c-.06.1-.17.16-.29.12-1.29-.33-2.5-.64-3.64-.91-.21-.06-.4-.11-.57-.18-.04-.02-.07-.05-.1-.08-.18-.25-.26-.67-.39-.95-.74-1.57-2.02-2.57-3.83-2.96-.15-.03-.24-.15-.29-.36-1.53-5.91-2.94-11.29-4.22-16.14-.02-.07-.02-.2,0-.38.03-.35.61-.87.93-.98.06-.03.2-.02.4.02,5.68.98,10.82,1.84,15.43,2.6.54.09.4.52.3.98-2.31,11.89-3.53,18.24-3.68,19.05-.02.07-.04.14-.06.18h0Z"/>
    <path d="M153.74,87.57c.06,0,.1.06.09.12,0,.02,0,.04-.02.05-.14.19-.39.45-.75.75-1.88,1.61-3.88,3.7-5.28,5.87-1.21,1.88-2.1,3.48-2.67,4.8-.95,2.21-1.61,4.6-1.99,7.18-.05.3-.17.75-.24,1-.12.44-.4.61-.87.48-.11-.03-.55-.12-1.33-.29-.4-.08-.86-.15-1.34-.17-2.04-.12-3.89-.03-5.55.27-2.67.47-5.26,1.1-7.74,1.89-1.61.51-3.42,1.23-5.46,2.18-.21.1-.4.16-.58.17-.15,0-.28-.1-.29-.25v-.08c.05-.19.14-.39.26-.59,1.68-2.89,3.11-5.41,5.17-7.74,0,0,.59-.64,1.75-1.91.67-.73,1.28-1.34,1.83-1.83,1.92-1.71,3.58-3.02,4.97-3.93.92-.61,2.35-1.41,4.28-2.42,1.28-.67,2.78-1.33,4.49-2,3.3-1.28,6.39-2.4,9.73-3.32.33-.09,1.07-.29,1.51-.22h.03Z"/>
    <path class="st0" d="M175.98,92.96c0,1.29-1.04,2.33-2.33,2.33h0c-1.29,0-2.33-1.04-2.33-2.33h0c0-1.29,1.04-2.33,2.33-2.33h0c1.29,0,2.33,1.04,2.33,2.33h0ZM174.5,92.91c0-.44-.36-.8-.8-.8h0c-.44,0-.8.36-.8.8h0c0,.44.36.8.8.8h0c.44,0,.8-.36.8-.8h0Z"/>
    <circle cx="173.7" cy="92.91" r=".8"/>
    <path d="M179.98,105.06s-.1.06-.15.03c-.02,0-.03-.03-.04-.05-.09-.2-.17-.38-.2-.53-.1-.4-.31-1.1-.64-2.08-.55-1.66-1.15-3.71-1.69-5.34-.18-.54.4-.72.79-.62.75.19,2.03.52,3.85.97.15.04.26.17.27.31,0,.13-.02.3-.08.52-1.19,3.94-1.83,6.07-1.92,6.4-.05.14-.1.27-.18.39h-.01Z"/>
    <path class="st0" d="M183.82,117.63c0,1.29-1.04,2.33-2.33,2.33h0c-1.29,0-2.33-1.04-2.33-2.33h0c0-1.29,1.04-2.33,2.33-2.33h0c1.29,0,2.33,1.04,2.33,2.33h0ZM182,116.99c-.34-.28-.84-.22-1.12.13h0c-.29.35-.24.85.1,1.12s.84.22,1.12-.13h0c.29-.35.24-.85-.1-1.12Z"/>
    <ellipse cx="181.5" cy="117.62" rx=".81" ry=".79" transform="translate(-24.48 183.57) rotate(-50.7)"/>
    <path d="M172.4,218.87c.13,1.94.35,3.8.66,5.58.02.1.06.22.16.37.02.04.06.06.09.08.22.1.44.17.63.28.91.56,1.13,2.03,1.2,3.02,0,.16-.04.4-.14.73-.18.58-.55.98-1.1,1.21-.35.15-.71.28-1.11.18-1.55-.36-1.74-1.55-1.96-2.9-.16-.96.17-1.57.85-2.22.06-.06.08-.13.07-.2l-.67-4.81s-.04-.07-.07-.09c-.44-.17-.91-.25-1.34-.54-1.09-.75-1.66-1.73-1.69-2.95-.06-1.78.83-3.04,2.44-3.68.11-.05.18-.16.19-.28.04-1.22.03-2.61-.03-4.06-.13-3.06-.21-5.63-.24-7.69-.02-1.4-.12-2.91-.12-4.2,0-.11-.07-.2-.18-.23-1.02-.21-1.8-.75-2.34-1.62-.56-.89-.73-1.82-.51-2.76.3-1.27,1.24-2.27,2.46-2.72.1-.04.17-.14.17-.24l-.25-14.32s-.03-.07-.06-.09c-1.97-.61-3.23-2.25-2.84-4.33.24-1.32,1.26-2.48,2.55-2.81.31-.08.47-.29.48-.6.17-5.62.63-11.08,1.18-16.46,0-.06-.03-.12-.07-.15-1.16-.62-2.08-1.44-2.33-2.74-.32-1.69.38-3.3,1.96-4.09.42-.2.7-.25,1.22-.39.07-.02.12-.07.13-.15.14-1,.32-2.16.54-3.5,1.09-6.54,2.57-12.94,4.44-19.19.02-.06.08-.1.15-.08.03,0,.05.02.06.04l1.02,1.32s.03.06.02.1c-.18.55-.38,1.17-.56,1.84-1.79,6.45-3.16,12.96-4.1,19.53-.07.52,0,1.07-.62,1.22-.47.12-1.35.25-1.85.55-.59.36-.96.87-1.1,1.56-.29,1.33.77,2.69,2.1,2.78.21.02.4-.09.62.08.04.03.06.07.05.12-.44,4.26-.74,7.55-.9,9.88-.18,2.56-.32,5.18-.42,7.86-.02.48-.05.9-.09,1.27,0,.1-.09.18-.18.2-.64.12-1.26.19-1.81.52-.99.58-1.34,1.5-1.04,2.75.13.53.88,1.24,1.35,1.43.41.16.88.14,1.44.16.14,0,.25.11.25.25l.29,16.66s-.04.09-.08.09c-1.08.08-2.02.34-2.57,1.35-.55,1-.22,2.37.73,3.02.63.43,1.31.54,2.03.33.06-.02.11.02.12.06v.03l.67,18.64c0,.06-.04.1-.09.11-1.1.11-2.17.31-2.7,1.42-.67,1.43.19,2.87,1.62,3.3.4.12.76.09,1.21.11.04,0,.07.04.07.07l-.02.02h0l-.04-.03h0ZM172.72,226.24c-.61.11-.58.75-.45,1.46s.32,1.33.93,1.21c.61-.11.58-.75.45-1.46s-.32-1.33-.93-1.21Z"/>
    <path d="M184.64,141.38c-1.82.43-5.05,1.21-9.67,2.31-.06.02-.12.02-.17.02-.1-.02-.17-.1-.16-.2.07-.62.16-1.18.23-1.68,1-6.48,2.41-12.89,4.22-19.25.03-.09.13-.15.22-.12h0c.46.15.94.29,1.43.4.17.04.29.17.37.4.42,1.3.76,2.36,1.04,3.18,1.42,4.2,2.83,8.63,3.97,11.97.06.19.07.35.03.47,0,.04-.04.07-.06.1-.42.46-.95,1.13-1.13,1.75-.09.3-.17.51-.23.61-.03.05-.06.07-.11.08l.03-.02h0v-.02h0Z"/>
    <path d="M101.82,132.88c-.08.06-.2.04-.27-.06,0-.02-.03-.05-.03-.06-.21-.67-.48-1.52-.97-2.01-.41-.42-.88.08-.95.52-.11.77-.32,1.67-.64,2.67-.05.14-.19.22-.33.17h-.06c-.16-.08-.22-.26-.17-.41.24-.69.31-1.37.2-2.02-.13-.79-.21-1.25-.23-1.39-.16-.86-.12-1.51.17-2.28.08-.22.19-.4.32-.52.46-.41.8-.23,1.2.17,1.34,1.33,1.63,2.98,1.85,4.81.03.21,0,.35-.11.42h.02Z"/>
    <path d="M88.54,144.13c0,.07-.06.14-.14.14h0c-.53,0-1.15-.37-1.86-.72-.48-.24-.88-.48-1.21-.72-.76-.55-1.44-1.09-1.94-1.75-.35-.46-.27-.96.2-1.26.53-.34,1.13-.43,1.79-.28.49.12.86.22,1.09.32,1.06.44,2.18.7,3.29.92.11.02.16.09.17.21,0,.12-.08.22-.2.24-.52.08-1.2.16-2.06.24-.24.02-.44.1-.61.26-.59.52-.02,1.2.47,1.54.24.17.99.44,1,.85h.01Z"/>
    <circle cx="189.85" cy="142.6" r=".79"/>
    <path d="M175.27,148.55s.03-.07.06-.08l10.36-2.48c.06,0,.1,0,.14.05.67.72,1.45,1.24,2.36,1.57.07.03.11.1.08.17,0,0,0,.02-.02.03-1.15,1.67-2.32,3.52-3.02,5.45-.49,1.34-.87,2.65-1.12,3.92-.1.5-.17.83-.23.98-.22.67-.45,1.29-.58,1.95-.17.82-.28,1.77-.4,2.63-.06.41-.22.87-.43,1.22-.14.23-.33.27-.58.1-.04-.03-.06-.06-.08-.1-.11-.26-.41-.84-.92-1.74-.35-.63-.55-1.23-.71-1.97-.1-.48-.27-1.33-.49-1.91-.34-.87-.8-1.66-1.4-2.39-.11-.14-.23-.44-.37-.93-.23-.82-.48-1.74-.74-2.75-.28-1.1-.8-1.85-1.6-2.89-.19-.25-.29-.52-.31-.83h0Z"/>
    <path class="st0" d="M57.46,153.5c-.29-.02-.54,0-.76.04-4.63.91-9.07,2.56-13.22,4.76-.64.34-1.25.67-1.82.98-1.01.54-2.19,1.29-3.52,2.22-.4.29-1,.64-1.42.31-1.1-.84,1.04-2.24,1.64-2.63.91-.62,1.82-1.16,2.73-1.66,1.38-.75,2.22-1.19,2.5-1.33,1.1-.52,3.26-1.56,4.96-2.19,1.42-.52,2.69-.96,3.81-1.28,1.27-.37,2.71-.72,4.31-1.04,2.7-.55,4.15-.84,4.34-.87.62-.1,1.43-.15,1.97.17,1.05.64,1.55,1.94,1.72,3.08.12.79.26,1.8.4,3.06.14,1.17.36,2.82.66,4.94.3,2.15.44,3.8.73,6.29.07.61.1,1.41.08,2.38,0,.48-.29,1.07-.84.95-.54-.12-.69-.96-.78-1.46-.23-1.31-.37-2.72-.5-3.77-.43-3.4-.9-7.22-1.41-11.47-.09-.76-.21-1.77-1.2-1.88-.34-.04-.65.06-.93.27-.22.17-.63.58-1.21,1.23-2.15,2.37-4.29,4.76-6.14,7.57-1.04,1.57-2.03,3.17-2.83,4.8-.38.77-.74,1.67-1.1,2.48-.23.51-.44.88-.63,1.15-.33.48-.9.45-1.16-.07-.3-.61-.03-1.35.23-2.02.73-1.84,1.74-3.79,2.72-5.53,1.18-2.08,2.56-4.06,4.15-5.93.93-1.1,1.82-2.1,2.68-3.01.16-.17.15-.33-.03-.49-.04-.03-.07-.05-.12-.05h-.04.03,0Z"/>
    <path class="st0" d="M112.76,153.39c-.4-.58.02-1.07.61-1.17.12-.02.33.02.63.1,1.12.34,2.38.61,3.77.82,1.23.18,2.29-.17,3.44-.54.63-.2,1.04.35.99.9-.04.39-.28.69-.73.9-.52.25-1.21.44-1.8.49-1.74.13-3.45-.05-5.12-.52-.71-.2-1.35-.37-1.79-.98h0Z"/>
    <path class="st0" d="M109.13,165.27c-1,.15-2-.47-1.63-1.53.52-1.52,1.93-.77,2.95-.34.35.15.83.19,1.13-.09.59-.54.28-1.08.24-1.73-.05-.76.24-1.56,1-1.83.43-.16.9.16,1.12.56.53.97.39,1.61-.06,2.79-.14.35-.29.84-.47,1.46-.1.36-.31.62-.64.77-.19.09-.52.1-1,.04-.95-.14-1.79-.23-2.63-.11h-.02,0Z"/>
    <path class="st0" d="M98.68,171.91c-.18.57-.81,1.36-1.46.76-.53-.5-.38-1.1-.15-1.81.22-.67.38-1.37.46-2.11.18-1.66.09-3.27-.26-4.84-.05-.21.04-.4.25-.59.7-.58,1.51.1,1.68.83.08.34.14.69.17,1.05.21,2.3-.02,4.53-.7,6.7h.01Z"/>
    <circle class="st0" cx="193.94" cy="166.18" r=".99"/>
    <ellipse class="st0" cx="195.6" cy="187.79" rx=".99" ry=".98" transform="translate(-74.41 212.68) rotate(-49.1)"/>
    <ellipse class="st0" cx="196.04" cy="212.7" rx="1" ry=".98" transform="translate(-38.67 381.77) rotate(-83.1)"/>
    <path class="st0" d="M194.81,224.62l.15-1.32c.05-.38.39-.65.76-.61h0c.38.05.65.39.61.76l-.15,1.32c-.05.38-.39.65-.76.61h0c-.38-.05-.65-.39-.61-.76Z"/>
    <path class="st0" d="M173.65,227.45c.13.72.17,1.35-.45,1.46-.61.11-.8-.5-.93-1.21-.13-.72-.17-1.35.45-1.46.61-.11.8.5.93,1.21Z"/>
  </g>
</svg>